M48
METRIC,LZ,000.000
;FILE_FORMAT=3:3
;TYPE=PLATED
;Layer: PTH_Through
;EasyEDA v6.5.54, 2026-02-28 13:51:01
;7712b455386f42aea1306104f3d7de7a,3c0a2ecc023845ba9696b03a0d16ddfb,10
;Gerber Generator version 0.2
;Holesize 1 = 0.310 mm
T01C0.310
;Holesize 2 = 0.915 mm
T02C0.915
;Holesize 3 = 1.000 mm
T03C1.000
;Holesize 4 = 1.133 mm
T04C1.133
;Holesize 5 = 1.501 mm
T05C1.501
%
G05
G90
T01
X021844Y032385
X046355Y037338
X059817Y060960
X068072Y062865
T02
X025019Y036957
X022479Y036957
X019939Y036957
X017399Y036957
X014859Y036957
T03
X063273Y046568
X060733Y046568
X058193Y046568
X055653Y046568
X053113Y046568
X050573Y046568
X048033Y046568
X045493Y046568
X042953Y046568
X040413Y046568
X015013Y046568
X017553Y046568
X020093Y046568
X022633Y046568
X025173Y046568
X027713Y046568
X030253Y046568
X032793Y046568
X035333Y046568
X037873Y046568
X037873Y064348
X035333Y064348
X032793Y064348
X030253Y064348
X027713Y064348
X025173Y064348
X022633Y064348
X020093Y064348
X017553Y064348
X015013Y064348
X040413Y064348
X042953Y064348
X045493Y064348
X048033Y064348
X050573Y064348
X053113Y064348
X055653Y064348
X058193Y064348
X060733Y064348
X063273Y064348
X027559Y036957
T04
X073914Y064643
X073914Y062103
X073914Y059563
X073914Y057023
X073914Y054483
X073914Y051943
X073914Y049403
X073914Y046863
X073914Y044323
X099314Y064643
X099314Y062103
X099314Y059563
X099314Y057023
X099314Y054483
T05
X048387Y030099
X044577Y030099
M30
