G04 Layer: BottomSolderMaskLayer*
G04 EasyEDA v6.5.54, 2026-02-28 13:51:01*
G04 7712b455386f42aea1306104f3d7de7a,3c0a2ecc023845ba9696b03a0d16ddfb,10*
G04 Gerber Generator version 0.2*
G04 Scale: 100 percent, Rotated: No, Reflected: No *
G04 Dimensions in millimeters *
G04 leading zeros omitted , absolute positions ,4 integer and 5 decimal *
%FSLAX45Y45*%
%MOMM*%

%AMMACRO1*4,1,8,-0.8211,-0.8508,-0.8508,-0.8208,-0.8508,0.8211,-0.8211,0.8508,0.8208,0.8508,0.8508,0.8211,0.8508,-0.8208,0.8208,-0.8508,-0.8211,-0.8508,0*%
%ADD10C,2.6016*%
%ADD11C,1.7016*%
%ADD12MACRO1*%
%ADD13C,1.8370*%
%ADD14C,1.7272*%
%ADD15C,1.6256*%
%ADD16C,0.0137*%

%LPD*%
D10*
G01*
X4838700Y3009900D03*
G01*
X4457700Y3009900D03*
D11*
G01*
X6327292Y4656810D03*
G01*
X6073292Y4656810D03*
D12*
G01*
X5819305Y4656797D03*
D11*
G01*
X5565292Y4656810D03*
G01*
X5311292Y4656810D03*
G01*
X5057292Y4656810D03*
G01*
X4803292Y4656810D03*
D12*
G01*
X4549305Y4656797D03*
D11*
G01*
X4295317Y4656810D03*
G01*
X4041317Y4656810D03*
G01*
X1501317Y4656810D03*
G01*
X1755317Y4656810D03*
D12*
G01*
X2009305Y4656797D03*
D11*
G01*
X2263317Y4656810D03*
G01*
X2517317Y4656810D03*
G01*
X2771317Y4656810D03*
G01*
X3025317Y4656810D03*
D12*
G01*
X3279305Y4656797D03*
D11*
G01*
X3533317Y4656810D03*
G01*
X3787317Y4656810D03*
G01*
X3787317Y6434785D03*
G01*
X3533317Y6434785D03*
D12*
G01*
X3279305Y6434797D03*
D11*
G01*
X3025317Y6434785D03*
G01*
X2771317Y6434785D03*
G01*
X2517317Y6434785D03*
G01*
X2263317Y6434785D03*
D12*
G01*
X2009305Y6434797D03*
D11*
G01*
X1755317Y6434785D03*
G01*
X1501317Y6434785D03*
G01*
X4041317Y6434785D03*
G01*
X4295317Y6434785D03*
D12*
G01*
X4549305Y6434797D03*
D11*
G01*
X4803292Y6434785D03*
G01*
X5057292Y6434785D03*
G01*
X5311292Y6434785D03*
G01*
X5565292Y6434785D03*
D12*
G01*
X5819305Y6434797D03*
D11*
G01*
X6073292Y6434785D03*
G01*
X6327292Y6434785D03*
D13*
G01*
X7391405Y6464300D03*
G01*
X7391405Y6210300D03*
G01*
X7391405Y5956300D03*
G01*
X7391405Y5702300D03*
G01*
X7391405Y5448300D03*
G01*
X7391405Y5194300D03*
G01*
X7391405Y4940300D03*
G01*
X7391405Y4686300D03*
G01*
X7391405Y4432300D03*
G01*
X9931405Y6464300D03*
G01*
X9931405Y6210300D03*
G01*
X9931405Y5956300D03*
G01*
X9931405Y5702300D03*
G01*
X9931405Y5448300D03*
D14*
G01*
X2755900Y3695700D03*
D15*
G01*
X2501900Y3695700D03*
G01*
X2247900Y3695700D03*
G01*
X1993900Y3695700D03*
G01*
X1739900Y3695700D03*
G01*
X1485900Y3695700D03*
M02*
