G04 Layer: TopLayer*
G04 EasyEDA v6.5.54, 2026-02-28 13:51:01*
G04 7712b455386f42aea1306104f3d7de7a,3c0a2ecc023845ba9696b03a0d16ddfb,10*
G04 Gerber Generator version 0.2*
G04 Scale: 100 percent, Rotated: No, Reflected: No *
G04 Dimensions in millimeters *
G04 leading zeros omitted , absolute positions ,4 integer and 5 decimal *
%FSLAX45Y45*%
%MOMM*%

%ADD10C,0.3000*%
%ADD11C,1.0000*%
%ADD12C,2.5000*%
%ADD13C,1.6000*%
%ADD14R,1.6000X1.6000*%
%ADD15C,1.6330*%
%ADD16C,0.0167*%
%ADD17C,1.5240*%
%ADD18C,0.6200*%

%LPD*%
G36*
X1095756Y2225903D02*
G01*
X1091793Y2226716D01*
X1088491Y2228951D01*
X1086307Y2232304D01*
X1085596Y2236266D01*
X1086459Y2240178D01*
X1088796Y2243480D01*
X1092200Y2245563D01*
X1097534Y2247544D01*
X1118412Y2257399D01*
X1138428Y2268931D01*
X1157427Y2282139D01*
X1175207Y2296871D01*
X1191717Y2313025D01*
X1206804Y2330500D01*
X1220419Y2349195D01*
X1232357Y2369007D01*
X1242669Y2389682D01*
X1251153Y2411171D01*
X1257808Y2433269D01*
X1262634Y2455875D01*
X1265529Y2478836D01*
X1266494Y2501900D01*
X1265529Y2524963D01*
X1262634Y2547924D01*
X1257808Y2570530D01*
X1251153Y2592628D01*
X1242669Y2614117D01*
X1232357Y2634792D01*
X1220419Y2654604D01*
X1206804Y2673248D01*
X1191717Y2690774D01*
X1175207Y2706928D01*
X1157427Y2721660D01*
X1138428Y2734868D01*
X1118412Y2746400D01*
X1097534Y2756255D01*
X1075842Y2764282D01*
X1053592Y2770530D01*
X1030884Y2774848D01*
X1007922Y2777236D01*
X984808Y2777744D01*
X961745Y2776270D01*
X938885Y2772918D01*
X916381Y2767634D01*
X894435Y2760472D01*
X873150Y2751531D01*
X852627Y2740812D01*
X833119Y2728468D01*
X814730Y2714498D01*
X797560Y2699004D01*
X781761Y2682189D01*
X767384Y2664053D01*
X754583Y2644800D01*
X744982Y2627274D01*
X742035Y2623972D01*
X737971Y2622194D01*
X733552Y2622346D01*
X729589Y2624378D01*
X726897Y2627884D01*
X725932Y2632202D01*
X725932Y6794398D01*
X726694Y6798360D01*
X728980Y6801713D01*
X732434Y6803898D01*
X736396Y6804558D01*
X740359Y6803593D01*
X743610Y6801205D01*
X745642Y6797751D01*
X746760Y6794550D01*
X756158Y6773418D01*
X767283Y6753199D01*
X780084Y6733946D01*
X794461Y6715810D01*
X810260Y6698996D01*
X827430Y6683502D01*
X845819Y6669531D01*
X865327Y6657187D01*
X885850Y6646468D01*
X907135Y6637528D01*
X929081Y6630365D01*
X951585Y6625081D01*
X974445Y6621729D01*
X997508Y6620256D01*
X1020622Y6620764D01*
X1043584Y6623151D01*
X1066292Y6627469D01*
X1088542Y6633718D01*
X1110234Y6641744D01*
X1131112Y6651599D01*
X1151128Y6663131D01*
X1170127Y6676339D01*
X1187907Y6691071D01*
X1204417Y6707225D01*
X1219504Y6724700D01*
X1233119Y6743395D01*
X1245057Y6763207D01*
X1255369Y6783882D01*
X1263853Y6805371D01*
X1270508Y6827469D01*
X1275334Y6850075D01*
X1278229Y6873036D01*
X1279194Y6896100D01*
X1278229Y6919163D01*
X1275334Y6942124D01*
X1270508Y6964730D01*
X1263853Y6986828D01*
X1255369Y7008317D01*
X1245057Y7028992D01*
X1233119Y7048804D01*
X1219504Y7067448D01*
X1204417Y7084974D01*
X1187907Y7101128D01*
X1170127Y7115860D01*
X1151128Y7129068D01*
X1131112Y7140600D01*
X1110234Y7150455D01*
X1099566Y7154418D01*
X1096162Y7156500D01*
X1093825Y7159802D01*
X1092962Y7163714D01*
X1093673Y7167676D01*
X1095857Y7171029D01*
X1099210Y7173264D01*
X1103122Y7174077D01*
X10300868Y7174077D01*
X10304729Y7173315D01*
X10308031Y7171131D01*
X10310215Y7167829D01*
X10311028Y7163968D01*
X10310266Y7160056D01*
X10308082Y7156754D01*
X10304780Y7154570D01*
X10283850Y7145731D01*
X10263327Y7135012D01*
X10243820Y7122668D01*
X10225430Y7108698D01*
X10208260Y7093203D01*
X10192461Y7076389D01*
X10178084Y7058253D01*
X10165283Y7039000D01*
X10154158Y7018781D01*
X10144760Y6997649D01*
X10137190Y6975856D01*
X10131450Y6953453D01*
X10127589Y6930694D01*
X10125659Y6907631D01*
X10125659Y6884568D01*
X10127589Y6861505D01*
X10131450Y6838746D01*
X10137190Y6816344D01*
X10144760Y6794550D01*
X10154158Y6773418D01*
X10165283Y6753199D01*
X10178084Y6733946D01*
X10192461Y6715810D01*
X10208260Y6698996D01*
X10225430Y6683502D01*
X10243820Y6669531D01*
X10263327Y6657187D01*
X10283850Y6646468D01*
X10305135Y6637528D01*
X10327081Y6630365D01*
X10349585Y6625081D01*
X10372445Y6621729D01*
X10395508Y6620256D01*
X10418622Y6620764D01*
X10441584Y6623151D01*
X10464292Y6627469D01*
X10486542Y6633718D01*
X10508234Y6641744D01*
X10529112Y6651599D01*
X10549128Y6663131D01*
X10568127Y6676339D01*
X10585907Y6691071D01*
X10602417Y6707225D01*
X10617504Y6724700D01*
X10631119Y6743395D01*
X10643057Y6763207D01*
X10653369Y6783882D01*
X10654487Y6786727D01*
X10656620Y6790029D01*
X10659922Y6792315D01*
X10663834Y6793128D01*
X10667746Y6792366D01*
X10671048Y6790181D01*
X10673283Y6786880D01*
X10674096Y6782968D01*
X10674096Y2591612D01*
X10673232Y2587599D01*
X10670895Y2584196D01*
X10667390Y2582062D01*
X10663326Y2581452D01*
X10659364Y2582519D01*
X10656163Y2585059D01*
X10654182Y2588666D01*
X10649153Y2605328D01*
X10640669Y2626817D01*
X10630357Y2647492D01*
X10618419Y2667304D01*
X10604804Y2685948D01*
X10589717Y2703474D01*
X10573207Y2719628D01*
X10555427Y2734360D01*
X10536428Y2747568D01*
X10516412Y2759100D01*
X10495534Y2768955D01*
X10473842Y2776982D01*
X10451592Y2783230D01*
X10428884Y2787548D01*
X10405922Y2789936D01*
X10382808Y2790444D01*
X10359745Y2788970D01*
X10336885Y2785618D01*
X10314381Y2780334D01*
X10292435Y2773172D01*
X10271150Y2764231D01*
X10250627Y2753512D01*
X10231120Y2741168D01*
X10212730Y2727198D01*
X10195560Y2711704D01*
X10179761Y2694889D01*
X10165384Y2676753D01*
X10152583Y2657500D01*
X10141458Y2637282D01*
X10132060Y2616149D01*
X10124490Y2594356D01*
X10118750Y2571953D01*
X10114889Y2549194D01*
X10112959Y2526131D01*
X10112959Y2503068D01*
X10114889Y2480005D01*
X10118750Y2457246D01*
X10124490Y2434844D01*
X10132060Y2413050D01*
X10141458Y2391918D01*
X10152583Y2371699D01*
X10165384Y2352446D01*
X10179761Y2334310D01*
X10195560Y2317496D01*
X10212730Y2302002D01*
X10231120Y2288032D01*
X10250627Y2275687D01*
X10271150Y2264968D01*
X10292435Y2256028D01*
X10314381Y2248865D01*
X10326827Y2245969D01*
X10330586Y2244191D01*
X10333380Y2240991D01*
X10334599Y2237028D01*
X10334142Y2232812D01*
X10332008Y2229205D01*
X10328605Y2226767D01*
X10324490Y2225903D01*
G37*

%LPC*%
G36*
X4457700Y2859024D02*
G01*
X4474616Y2859938D01*
X4491278Y2862783D01*
X4507534Y2867456D01*
X4523181Y2873959D01*
X4537964Y2882138D01*
X4551781Y2891942D01*
X4564380Y2903220D01*
X4575657Y2915818D01*
X4585462Y2929636D01*
X4593640Y2944418D01*
X4600143Y2960065D01*
X4604816Y2976321D01*
X4607661Y2992983D01*
X4608576Y3009900D01*
X4607661Y3026816D01*
X4604816Y3043478D01*
X4600143Y3059734D01*
X4593640Y3075381D01*
X4585462Y3090164D01*
X4575657Y3103981D01*
X4564380Y3116580D01*
X4551781Y3127857D01*
X4537964Y3137662D01*
X4523181Y3145840D01*
X4507534Y3152343D01*
X4491278Y3157016D01*
X4474616Y3159861D01*
X4457700Y3160776D01*
X4440783Y3159861D01*
X4424121Y3157016D01*
X4407865Y3152343D01*
X4392218Y3145840D01*
X4377436Y3137662D01*
X4363618Y3127857D01*
X4351020Y3116580D01*
X4339742Y3103981D01*
X4329938Y3090164D01*
X4321759Y3075381D01*
X4315256Y3059734D01*
X4310583Y3043478D01*
X4307738Y3026816D01*
X4306824Y3009900D01*
X4307738Y2992983D01*
X4310583Y2976321D01*
X4315256Y2960065D01*
X4321759Y2944418D01*
X4329938Y2929636D01*
X4339742Y2915818D01*
X4351020Y2903220D01*
X4363618Y2891942D01*
X4377436Y2882138D01*
X4392218Y2873959D01*
X4407865Y2867456D01*
X4424121Y2862783D01*
X4440783Y2859938D01*
G37*
G36*
X4907534Y2875838D02*
G01*
X4918964Y2882138D01*
X4932781Y2891942D01*
X4945380Y2903220D01*
X4956657Y2915818D01*
X4966462Y2929636D01*
X4972761Y2941066D01*
X4907534Y2941066D01*
G37*
G36*
X4769866Y2875838D02*
G01*
X4769866Y2941066D01*
X4704638Y2941066D01*
X4710938Y2929636D01*
X4720742Y2915818D01*
X4732020Y2903220D01*
X4744618Y2891942D01*
X4758436Y2882138D01*
G37*
G36*
X4907534Y3078734D02*
G01*
X4972761Y3078734D01*
X4966462Y3090164D01*
X4956657Y3103981D01*
X4945380Y3116580D01*
X4932781Y3127857D01*
X4918964Y3137662D01*
X4907534Y3143961D01*
G37*
G36*
X4704638Y3078734D02*
G01*
X4769866Y3078734D01*
X4769866Y3143961D01*
X4758436Y3137662D01*
X4744618Y3127857D01*
X4732020Y3116580D01*
X4720742Y3103981D01*
X4710938Y3090164D01*
G37*
G36*
X2247900Y3593592D02*
G01*
X2261514Y3594506D01*
X2274874Y3597249D01*
X2287778Y3601720D01*
X2299919Y3607866D01*
X2311146Y3615588D01*
X2321306Y3624732D01*
X2330094Y3635146D01*
X2337409Y3646627D01*
X2343150Y3659022D01*
X2347214Y3672027D01*
X2349449Y3685489D01*
X2349906Y3699103D01*
X2348585Y3712667D01*
X2345385Y3725926D01*
X2340508Y3738676D01*
X2333955Y3750614D01*
X2325878Y3761587D01*
X2316378Y3771392D01*
X2305659Y3779875D01*
X2293924Y3786835D01*
X2281377Y3792118D01*
X2268220Y3795725D01*
X2254707Y3797554D01*
X2241092Y3797554D01*
X2227580Y3795725D01*
X2214422Y3792118D01*
X2201875Y3786835D01*
X2190140Y3779875D01*
X2179421Y3771392D01*
X2169922Y3761587D01*
X2161844Y3750614D01*
X2155291Y3738676D01*
X2150414Y3725926D01*
X2147214Y3712667D01*
X2145893Y3699103D01*
X2146350Y3685489D01*
X2148586Y3672027D01*
X2152650Y3659022D01*
X2158390Y3646627D01*
X2165705Y3635146D01*
X2174494Y3624732D01*
X2184654Y3615588D01*
X2195880Y3607866D01*
X2208022Y3601720D01*
X2220925Y3597249D01*
X2234285Y3594506D01*
G37*
G36*
X2755900Y3593592D02*
G01*
X2769514Y3594506D01*
X2782874Y3597249D01*
X2795778Y3601720D01*
X2807919Y3607866D01*
X2819146Y3615588D01*
X2829306Y3624732D01*
X2838094Y3635146D01*
X2845409Y3646627D01*
X2851150Y3659022D01*
X2855214Y3672027D01*
X2857449Y3685489D01*
X2857906Y3699103D01*
X2856585Y3712667D01*
X2853385Y3725926D01*
X2848508Y3738676D01*
X2841955Y3750614D01*
X2833878Y3761587D01*
X2824378Y3771392D01*
X2813659Y3779875D01*
X2801924Y3786835D01*
X2789377Y3792118D01*
X2776220Y3795725D01*
X2762707Y3797554D01*
X2749092Y3797554D01*
X2735580Y3795725D01*
X2722422Y3792118D01*
X2709875Y3786835D01*
X2698140Y3779875D01*
X2687421Y3771392D01*
X2677922Y3761587D01*
X2669844Y3750614D01*
X2663291Y3738676D01*
X2658414Y3725926D01*
X2655214Y3712667D01*
X2653893Y3699103D01*
X2654350Y3685489D01*
X2656586Y3672027D01*
X2660650Y3659022D01*
X2666390Y3646627D01*
X2673705Y3635146D01*
X2682494Y3624732D01*
X2692654Y3615588D01*
X2703880Y3607866D01*
X2716022Y3601720D01*
X2728925Y3597249D01*
X2742285Y3594506D01*
G37*
G36*
X2501900Y3593592D02*
G01*
X2515514Y3594506D01*
X2528874Y3597249D01*
X2541778Y3601720D01*
X2553919Y3607866D01*
X2565146Y3615588D01*
X2575306Y3624732D01*
X2584094Y3635146D01*
X2591409Y3646627D01*
X2597150Y3659022D01*
X2601214Y3672027D01*
X2603449Y3685489D01*
X2603906Y3699103D01*
X2602585Y3712667D01*
X2599385Y3725926D01*
X2594508Y3738676D01*
X2587955Y3750614D01*
X2579878Y3761587D01*
X2570378Y3771392D01*
X2559659Y3779875D01*
X2547924Y3786835D01*
X2535377Y3792118D01*
X2522220Y3795725D01*
X2508707Y3797554D01*
X2495092Y3797554D01*
X2481580Y3795725D01*
X2468422Y3792118D01*
X2455875Y3786835D01*
X2444140Y3779875D01*
X2433421Y3771392D01*
X2423922Y3761587D01*
X2415844Y3750614D01*
X2409291Y3738676D01*
X2404414Y3725926D01*
X2401214Y3712667D01*
X2399893Y3699103D01*
X2400350Y3685489D01*
X2402586Y3672027D01*
X2406650Y3659022D01*
X2412390Y3646627D01*
X2419705Y3635146D01*
X2428494Y3624732D01*
X2438654Y3615588D01*
X2449880Y3607866D01*
X2462022Y3601720D01*
X2474925Y3597249D01*
X2488285Y3594506D01*
G37*
G36*
X1739900Y3593592D02*
G01*
X1753514Y3594506D01*
X1766874Y3597249D01*
X1779778Y3601720D01*
X1791919Y3607866D01*
X1803146Y3615588D01*
X1813306Y3624732D01*
X1822094Y3635146D01*
X1829409Y3646627D01*
X1835150Y3659022D01*
X1839214Y3672027D01*
X1841449Y3685489D01*
X1841906Y3699103D01*
X1840585Y3712667D01*
X1837385Y3725926D01*
X1832508Y3738676D01*
X1825955Y3750614D01*
X1817878Y3761587D01*
X1808378Y3771392D01*
X1797659Y3779875D01*
X1785924Y3786835D01*
X1773377Y3792118D01*
X1760220Y3795725D01*
X1746707Y3797554D01*
X1733092Y3797554D01*
X1719580Y3795725D01*
X1706422Y3792118D01*
X1693875Y3786835D01*
X1682140Y3779875D01*
X1671421Y3771392D01*
X1661922Y3761587D01*
X1653844Y3750614D01*
X1647291Y3738676D01*
X1642414Y3725926D01*
X1639214Y3712667D01*
X1637893Y3699103D01*
X1638350Y3685489D01*
X1640586Y3672027D01*
X1644650Y3659022D01*
X1650390Y3646627D01*
X1657705Y3635146D01*
X1666493Y3624732D01*
X1676654Y3615588D01*
X1687880Y3607866D01*
X1700022Y3601720D01*
X1712925Y3597249D01*
X1726285Y3594506D01*
G37*
G36*
X1485900Y3593592D02*
G01*
X1499514Y3594506D01*
X1512874Y3597249D01*
X1525778Y3601720D01*
X1537919Y3607866D01*
X1549146Y3615588D01*
X1559306Y3624732D01*
X1568094Y3635146D01*
X1575409Y3646627D01*
X1581150Y3659022D01*
X1585214Y3672027D01*
X1587449Y3685489D01*
X1587906Y3699103D01*
X1586585Y3712667D01*
X1583385Y3725926D01*
X1578508Y3738676D01*
X1571955Y3750614D01*
X1563878Y3761587D01*
X1554378Y3771392D01*
X1543659Y3779875D01*
X1531924Y3786835D01*
X1519377Y3792118D01*
X1506220Y3795725D01*
X1492707Y3797554D01*
X1479092Y3797554D01*
X1465580Y3795725D01*
X1452422Y3792118D01*
X1439875Y3786835D01*
X1428140Y3779875D01*
X1417421Y3771392D01*
X1407922Y3761587D01*
X1399844Y3750614D01*
X1393291Y3738676D01*
X1388414Y3725926D01*
X1385214Y3712667D01*
X1383893Y3699103D01*
X1384350Y3685489D01*
X1386586Y3672027D01*
X1390650Y3659022D01*
X1396390Y3646627D01*
X1403705Y3635146D01*
X1412494Y3624732D01*
X1422654Y3615588D01*
X1433880Y3607866D01*
X1446022Y3601720D01*
X1458925Y3597249D01*
X1472285Y3594506D01*
G37*
G36*
X1949450Y3604056D02*
G01*
X1949450Y3651250D01*
X1902256Y3651250D01*
X1904390Y3646627D01*
X1911705Y3635146D01*
X1920493Y3624732D01*
X1930654Y3615588D01*
X1941880Y3607866D01*
G37*
G36*
X2038350Y3604056D02*
G01*
X2045919Y3607866D01*
X2057146Y3615588D01*
X2067306Y3624732D01*
X2076094Y3635146D01*
X2083409Y3646627D01*
X2085543Y3651250D01*
X2038350Y3651250D01*
G37*
G36*
X2038350Y3740150D02*
G01*
X2085695Y3740150D01*
X2079955Y3750614D01*
X2071878Y3761587D01*
X2062378Y3771392D01*
X2051659Y3779875D01*
X2039924Y3786835D01*
X2038350Y3787495D01*
G37*
G36*
X1902104Y3740150D02*
G01*
X1949450Y3740150D01*
X1949450Y3787495D01*
X1947875Y3786835D01*
X1936140Y3779875D01*
X1925421Y3771392D01*
X1915922Y3761587D01*
X1907844Y3750614D01*
G37*
G36*
X7391400Y4324756D02*
G01*
X7405420Y4325670D01*
X7419238Y4328414D01*
X7432548Y4332935D01*
X7445197Y4339183D01*
X7456881Y4347006D01*
X7467447Y4356252D01*
X7476744Y4366818D01*
X7484516Y4378553D01*
X7490764Y4391152D01*
X7495286Y4404461D01*
X7498029Y4418279D01*
X7498943Y4432300D01*
X7498029Y4446320D01*
X7495286Y4460138D01*
X7490764Y4473448D01*
X7484516Y4486097D01*
X7476744Y4497781D01*
X7467447Y4508347D01*
X7456881Y4517644D01*
X7445197Y4525416D01*
X7432548Y4531664D01*
X7419238Y4536186D01*
X7405420Y4538929D01*
X7391400Y4539843D01*
X7377379Y4538929D01*
X7363561Y4536186D01*
X7355992Y4533595D01*
X7352284Y4533087D01*
X7348626Y4533900D01*
X7345527Y4536033D01*
X7079691Y4801870D01*
X7073087Y4807254D01*
X7066025Y4811064D01*
X7058355Y4813350D01*
X7049922Y4814214D01*
X4158284Y4814214D01*
X4149851Y4813350D01*
X4142181Y4811064D01*
X4135120Y4807254D01*
X4128515Y4801870D01*
X4085894Y4759248D01*
X4082796Y4757115D01*
X4079138Y4756251D01*
X4075429Y4756810D01*
X4068724Y4759096D01*
X4055110Y4761788D01*
X4041292Y4762703D01*
X4027474Y4761788D01*
X4013911Y4759096D01*
X4000804Y4754626D01*
X3988358Y4748479D01*
X3976827Y4740808D01*
X3966413Y4731664D01*
X3957320Y4721250D01*
X3949598Y4709718D01*
X3943502Y4697323D01*
X3939032Y4684217D01*
X3936339Y4670602D01*
X3935425Y4656785D01*
X3936339Y4642967D01*
X3939032Y4629404D01*
X3943502Y4616297D01*
X3949598Y4603851D01*
X3957320Y4592320D01*
X3966413Y4581906D01*
X3976827Y4572812D01*
X3988358Y4565091D01*
X4000804Y4558995D01*
X4013911Y4554524D01*
X4027474Y4551832D01*
X4041292Y4550918D01*
X4055110Y4551832D01*
X4068724Y4554524D01*
X4081830Y4558995D01*
X4094226Y4565091D01*
X4105757Y4572812D01*
X4116171Y4581906D01*
X4125315Y4592320D01*
X4132986Y4603851D01*
X4139133Y4616297D01*
X4143603Y4629404D01*
X4146296Y4642967D01*
X4147210Y4656785D01*
X4146296Y4670602D01*
X4143603Y4684217D01*
X4141317Y4690922D01*
X4140758Y4694631D01*
X4141622Y4698288D01*
X4143756Y4701387D01*
X4171797Y4729429D01*
X4175048Y4731613D01*
X4178960Y4732375D01*
X4199737Y4732375D01*
X4204004Y4731461D01*
X4207459Y4728819D01*
X4209491Y4725009D01*
X4209745Y4720640D01*
X4208170Y4716576D01*
X4203598Y4709718D01*
X4197451Y4697323D01*
X4193032Y4684217D01*
X4190339Y4670602D01*
X4189425Y4656785D01*
X4190339Y4642967D01*
X4193032Y4629404D01*
X4197451Y4616297D01*
X4203598Y4603851D01*
X4211320Y4592320D01*
X4220413Y4581906D01*
X4230827Y4572812D01*
X4242358Y4565091D01*
X4254804Y4558995D01*
X4267911Y4554524D01*
X4281474Y4551832D01*
X4295292Y4550918D01*
X4309110Y4551832D01*
X4322724Y4554524D01*
X4335830Y4558995D01*
X4348226Y4565091D01*
X4359757Y4572812D01*
X4370171Y4581906D01*
X4379315Y4592320D01*
X4386986Y4603851D01*
X4393133Y4616297D01*
X4397603Y4629404D01*
X4400296Y4642967D01*
X4401210Y4656785D01*
X4400296Y4670602D01*
X4397603Y4684217D01*
X4393133Y4697323D01*
X4386986Y4709718D01*
X4382414Y4716576D01*
X4380839Y4720640D01*
X4381093Y4725009D01*
X4383176Y4728819D01*
X4386630Y4731461D01*
X4390898Y4732375D01*
X4433214Y4732375D01*
X4437126Y4731613D01*
X4440428Y4729429D01*
X4442612Y4726127D01*
X4443374Y4722215D01*
X4443374Y4577384D01*
X4444085Y4571034D01*
X4446016Y4565599D01*
X4449114Y4560671D01*
X4453178Y4556607D01*
X4458106Y4553508D01*
X4463542Y4551629D01*
X4469892Y4550867D01*
X4628743Y4550867D01*
X4635042Y4551629D01*
X4640529Y4553508D01*
X4645406Y4556607D01*
X4649520Y4560671D01*
X4652568Y4565599D01*
X4654499Y4571034D01*
X4655210Y4577384D01*
X4655210Y4722215D01*
X4655972Y4726127D01*
X4658207Y4729429D01*
X4661509Y4731613D01*
X4665370Y4732375D01*
X4707737Y4732375D01*
X4712004Y4731461D01*
X4715459Y4728819D01*
X4717491Y4725009D01*
X4717745Y4720640D01*
X4716170Y4716576D01*
X4711598Y4709718D01*
X4705451Y4697323D01*
X4701032Y4684217D01*
X4698339Y4670602D01*
X4697425Y4656785D01*
X4698339Y4642967D01*
X4701032Y4629404D01*
X4705451Y4616297D01*
X4711598Y4603851D01*
X4719320Y4592320D01*
X4728413Y4581906D01*
X4738827Y4572812D01*
X4750358Y4565091D01*
X4762804Y4558995D01*
X4775911Y4554524D01*
X4789474Y4551832D01*
X4803292Y4550918D01*
X4817110Y4551832D01*
X4830724Y4554524D01*
X4843830Y4558995D01*
X4856226Y4565091D01*
X4867757Y4572812D01*
X4878171Y4581906D01*
X4887315Y4592320D01*
X4894986Y4603851D01*
X4901133Y4616297D01*
X4905603Y4629404D01*
X4908296Y4642967D01*
X4909210Y4656785D01*
X4908296Y4670602D01*
X4905603Y4684217D01*
X4901133Y4697323D01*
X4894986Y4709718D01*
X4890414Y4716576D01*
X4888839Y4720640D01*
X4889093Y4725009D01*
X4891176Y4728819D01*
X4894630Y4731461D01*
X4898898Y4732375D01*
X4961737Y4732375D01*
X4966004Y4731461D01*
X4969459Y4728819D01*
X4971491Y4725009D01*
X4971745Y4720640D01*
X4970170Y4716576D01*
X4965598Y4709718D01*
X4959451Y4697323D01*
X4955032Y4684217D01*
X4952339Y4670602D01*
X4951425Y4656785D01*
X4952339Y4642967D01*
X4955032Y4629404D01*
X4959451Y4616297D01*
X4965598Y4603851D01*
X4973320Y4592320D01*
X4982413Y4581906D01*
X4992827Y4572812D01*
X5004358Y4565091D01*
X5016804Y4558995D01*
X5029911Y4554524D01*
X5043474Y4551832D01*
X5057292Y4550918D01*
X5071110Y4551832D01*
X5084724Y4554524D01*
X5097830Y4558995D01*
X5110226Y4565091D01*
X5121757Y4572812D01*
X5132171Y4581906D01*
X5141315Y4592320D01*
X5148986Y4603851D01*
X5155133Y4616297D01*
X5159603Y4629404D01*
X5162296Y4642967D01*
X5163210Y4656785D01*
X5162296Y4670602D01*
X5159603Y4684217D01*
X5155133Y4697323D01*
X5148986Y4709718D01*
X5144414Y4716576D01*
X5142839Y4720640D01*
X5143093Y4725009D01*
X5145176Y4728819D01*
X5148630Y4731461D01*
X5152898Y4732375D01*
X5215737Y4732375D01*
X5220004Y4731461D01*
X5223459Y4728819D01*
X5225491Y4725009D01*
X5225745Y4720640D01*
X5224170Y4716576D01*
X5219598Y4709718D01*
X5213451Y4697323D01*
X5209032Y4684217D01*
X5206339Y4670602D01*
X5205425Y4656785D01*
X5206339Y4642967D01*
X5209032Y4629404D01*
X5213451Y4616297D01*
X5219598Y4603851D01*
X5227320Y4592320D01*
X5236413Y4581906D01*
X5246827Y4572812D01*
X5258358Y4565091D01*
X5270804Y4558995D01*
X5283911Y4554524D01*
X5297474Y4551832D01*
X5311292Y4550918D01*
X5325110Y4551832D01*
X5338724Y4554524D01*
X5351830Y4558995D01*
X5364226Y4565091D01*
X5375757Y4572812D01*
X5386171Y4581906D01*
X5395315Y4592320D01*
X5402986Y4603851D01*
X5409133Y4616297D01*
X5413603Y4629404D01*
X5416296Y4642967D01*
X5417210Y4656785D01*
X5416296Y4670602D01*
X5413603Y4684217D01*
X5409133Y4697323D01*
X5402986Y4709718D01*
X5398414Y4716576D01*
X5396839Y4720640D01*
X5397093Y4725009D01*
X5399176Y4728819D01*
X5402630Y4731461D01*
X5406898Y4732375D01*
X5469737Y4732375D01*
X5473954Y4731461D01*
X5477459Y4728819D01*
X5479491Y4725009D01*
X5479745Y4720640D01*
X5478170Y4716576D01*
X5473598Y4709718D01*
X5467451Y4697323D01*
X5463032Y4684217D01*
X5460339Y4670602D01*
X5459425Y4656785D01*
X5460339Y4642967D01*
X5463032Y4629404D01*
X5467451Y4616297D01*
X5473598Y4603851D01*
X5481320Y4592320D01*
X5490413Y4581906D01*
X5500827Y4572812D01*
X5512358Y4565091D01*
X5524754Y4558995D01*
X5537911Y4554524D01*
X5551474Y4551832D01*
X5565292Y4550918D01*
X5579110Y4551832D01*
X5592724Y4554524D01*
X5605830Y4558995D01*
X5618226Y4565091D01*
X5629757Y4572812D01*
X5640171Y4581906D01*
X5649315Y4592320D01*
X5656986Y4603851D01*
X5663133Y4616297D01*
X5667603Y4629404D01*
X5670296Y4642967D01*
X5671210Y4656785D01*
X5670296Y4670602D01*
X5667603Y4684217D01*
X5663133Y4697323D01*
X5656986Y4709718D01*
X5652414Y4716576D01*
X5650839Y4720640D01*
X5651093Y4725009D01*
X5653125Y4728819D01*
X5656630Y4731461D01*
X5660898Y4732375D01*
X5703214Y4732375D01*
X5707126Y4731613D01*
X5710428Y4729429D01*
X5712612Y4726127D01*
X5713374Y4722215D01*
X5713374Y4577384D01*
X5714085Y4571034D01*
X5716016Y4565599D01*
X5719114Y4560671D01*
X5723178Y4556607D01*
X5728106Y4553508D01*
X5733542Y4551629D01*
X5739892Y4550867D01*
X5898743Y4550867D01*
X5905042Y4551629D01*
X5910529Y4553508D01*
X5915406Y4556607D01*
X5919520Y4560671D01*
X5922568Y4565599D01*
X5924499Y4571034D01*
X5925210Y4577384D01*
X5925210Y4722215D01*
X5925972Y4726127D01*
X5928207Y4729429D01*
X5931458Y4731613D01*
X5935370Y4732375D01*
X5977737Y4732375D01*
X5982004Y4731461D01*
X5985459Y4728819D01*
X5987491Y4725009D01*
X5987745Y4720640D01*
X5986170Y4716576D01*
X5981598Y4709718D01*
X5975451Y4697323D01*
X5971032Y4684217D01*
X5968339Y4670602D01*
X5967425Y4656785D01*
X5968339Y4642967D01*
X5971032Y4629404D01*
X5975451Y4616297D01*
X5981598Y4603851D01*
X5989320Y4592320D01*
X5998413Y4581906D01*
X6008827Y4572812D01*
X6020358Y4565091D01*
X6032804Y4558995D01*
X6045911Y4554524D01*
X6059474Y4551832D01*
X6073292Y4550918D01*
X6087110Y4551832D01*
X6100724Y4554524D01*
X6113830Y4558995D01*
X6126226Y4565091D01*
X6137757Y4572812D01*
X6148171Y4581906D01*
X6157315Y4592320D01*
X6164986Y4603851D01*
X6171133Y4616297D01*
X6175603Y4629404D01*
X6178296Y4642967D01*
X6179210Y4656785D01*
X6178296Y4670602D01*
X6175603Y4684217D01*
X6171133Y4697323D01*
X6164986Y4709718D01*
X6160414Y4716576D01*
X6158839Y4720640D01*
X6159093Y4725009D01*
X6161176Y4728819D01*
X6164630Y4731461D01*
X6168898Y4732375D01*
X6231737Y4732375D01*
X6235954Y4731461D01*
X6239459Y4728819D01*
X6241491Y4725009D01*
X6241745Y4720640D01*
X6240170Y4716576D01*
X6235598Y4709718D01*
X6229451Y4697323D01*
X6225032Y4684217D01*
X6222339Y4670602D01*
X6221425Y4656785D01*
X6222339Y4642967D01*
X6225032Y4629404D01*
X6229451Y4616297D01*
X6235598Y4603851D01*
X6243320Y4592320D01*
X6252413Y4581906D01*
X6262827Y4572812D01*
X6274358Y4565091D01*
X6286754Y4558995D01*
X6299911Y4554524D01*
X6313474Y4551832D01*
X6327292Y4550918D01*
X6341110Y4551832D01*
X6354724Y4554524D01*
X6367830Y4558995D01*
X6380226Y4565091D01*
X6391757Y4572812D01*
X6402171Y4581906D01*
X6411315Y4592320D01*
X6418986Y4603851D01*
X6425133Y4616297D01*
X6429603Y4629404D01*
X6432296Y4642967D01*
X6433210Y4656785D01*
X6432296Y4670602D01*
X6429603Y4684217D01*
X6425133Y4697323D01*
X6418986Y4709718D01*
X6414414Y4716576D01*
X6412839Y4720640D01*
X6413093Y4725009D01*
X6415125Y4728819D01*
X6418630Y4731461D01*
X6422898Y4732375D01*
X7029246Y4732375D01*
X7033158Y4731613D01*
X7036460Y4729429D01*
X7287666Y4478172D01*
X7289800Y4475073D01*
X7290663Y4471416D01*
X7290104Y4467707D01*
X7287514Y4460138D01*
X7284770Y4446320D01*
X7283856Y4432300D01*
X7284770Y4418279D01*
X7287514Y4404461D01*
X7292035Y4391152D01*
X7298283Y4378553D01*
X7306106Y4366818D01*
X7315352Y4356252D01*
X7325918Y4347006D01*
X7337653Y4339183D01*
X7350252Y4332935D01*
X7363561Y4328414D01*
X7377379Y4325670D01*
G37*
G36*
X3199892Y4550867D02*
G01*
X3358743Y4550867D01*
X3365042Y4551629D01*
X3370529Y4553508D01*
X3375406Y4556607D01*
X3379520Y4560671D01*
X3382568Y4565599D01*
X3384499Y4571034D01*
X3385210Y4577384D01*
X3385210Y4736236D01*
X3384499Y4742535D01*
X3382568Y4748022D01*
X3379520Y4752898D01*
X3375406Y4757013D01*
X3370529Y4760061D01*
X3365042Y4761992D01*
X3358743Y4762703D01*
X3199892Y4762703D01*
X3193542Y4761992D01*
X3188106Y4760061D01*
X3183178Y4757013D01*
X3179114Y4752898D01*
X3176016Y4748022D01*
X3174136Y4742535D01*
X3173425Y4736236D01*
X3173425Y4577384D01*
X3174136Y4571034D01*
X3176016Y4565599D01*
X3179114Y4560671D01*
X3183178Y4556607D01*
X3188106Y4553508D01*
X3193542Y4551629D01*
G37*
G36*
X1929892Y4550867D02*
G01*
X2088743Y4550867D01*
X2095042Y4551629D01*
X2100529Y4553508D01*
X2105406Y4556607D01*
X2109520Y4560671D01*
X2112619Y4565599D01*
X2114499Y4571034D01*
X2115210Y4577384D01*
X2115210Y4736236D01*
X2114499Y4742535D01*
X2112619Y4748022D01*
X2109520Y4752898D01*
X2105406Y4757013D01*
X2100529Y4760061D01*
X2095042Y4761992D01*
X2088743Y4762703D01*
X1929892Y4762703D01*
X1923542Y4761992D01*
X1918106Y4760061D01*
X1913178Y4757013D01*
X1909114Y4752898D01*
X1906016Y4748022D01*
X1904136Y4742535D01*
X1903425Y4736236D01*
X1903425Y4577384D01*
X1904136Y4571034D01*
X1906016Y4565599D01*
X1909114Y4560671D01*
X1913178Y4556607D01*
X1918106Y4553508D01*
X1923542Y4551629D01*
G37*
G36*
X1501292Y4550918D02*
G01*
X1515110Y4551832D01*
X1528724Y4554524D01*
X1541830Y4558995D01*
X1554276Y4565091D01*
X1565757Y4572812D01*
X1576171Y4581906D01*
X1585315Y4592320D01*
X1592986Y4603851D01*
X1599133Y4616297D01*
X1603603Y4629404D01*
X1606296Y4642967D01*
X1607210Y4656785D01*
X1606296Y4670602D01*
X1603603Y4684217D01*
X1599133Y4697323D01*
X1592986Y4709718D01*
X1585315Y4721250D01*
X1576171Y4731664D01*
X1565757Y4740808D01*
X1554276Y4748479D01*
X1541830Y4754626D01*
X1528724Y4759096D01*
X1515110Y4761788D01*
X1501292Y4762703D01*
X1487474Y4761788D01*
X1473911Y4759096D01*
X1460804Y4754626D01*
X1448358Y4748479D01*
X1436827Y4740808D01*
X1426413Y4731664D01*
X1417320Y4721250D01*
X1409598Y4709718D01*
X1403502Y4697323D01*
X1399032Y4684217D01*
X1396339Y4670602D01*
X1395425Y4656785D01*
X1396339Y4642967D01*
X1399032Y4629404D01*
X1403502Y4616297D01*
X1409598Y4603851D01*
X1417320Y4592320D01*
X1426413Y4581906D01*
X1436827Y4572812D01*
X1448358Y4565091D01*
X1460804Y4558995D01*
X1473911Y4554524D01*
X1487474Y4551832D01*
G37*
G36*
X1755292Y4550918D02*
G01*
X1769110Y4551832D01*
X1782724Y4554524D01*
X1795830Y4558995D01*
X1808225Y4565091D01*
X1819757Y4572812D01*
X1830171Y4581906D01*
X1839315Y4592320D01*
X1846986Y4603851D01*
X1853133Y4616297D01*
X1857603Y4629404D01*
X1860296Y4642967D01*
X1861210Y4656785D01*
X1860296Y4670602D01*
X1857603Y4684217D01*
X1853133Y4697323D01*
X1846986Y4709718D01*
X1839315Y4721250D01*
X1830171Y4731664D01*
X1819757Y4740808D01*
X1808225Y4748479D01*
X1795830Y4754626D01*
X1782724Y4759096D01*
X1769110Y4761788D01*
X1755292Y4762703D01*
X1741474Y4761788D01*
X1727911Y4759096D01*
X1714804Y4754626D01*
X1702358Y4748479D01*
X1690827Y4740808D01*
X1680413Y4731664D01*
X1671320Y4721250D01*
X1663598Y4709718D01*
X1657502Y4697323D01*
X1653032Y4684217D01*
X1650339Y4670602D01*
X1649425Y4656785D01*
X1650339Y4642967D01*
X1653032Y4629404D01*
X1657502Y4616297D01*
X1663598Y4603851D01*
X1671320Y4592320D01*
X1680413Y4581906D01*
X1690827Y4572812D01*
X1702358Y4565091D01*
X1714804Y4558995D01*
X1727911Y4554524D01*
X1741474Y4551832D01*
G37*
G36*
X3787292Y4550918D02*
G01*
X3801110Y4551832D01*
X3814724Y4554524D01*
X3827830Y4558995D01*
X3840226Y4565091D01*
X3851757Y4572812D01*
X3862171Y4581906D01*
X3871315Y4592320D01*
X3878986Y4603851D01*
X3885133Y4616297D01*
X3889603Y4629404D01*
X3892296Y4642967D01*
X3893210Y4656785D01*
X3892296Y4670602D01*
X3889603Y4684217D01*
X3885133Y4697323D01*
X3878986Y4709718D01*
X3871315Y4721250D01*
X3862171Y4731664D01*
X3851757Y4740808D01*
X3840226Y4748479D01*
X3827830Y4754626D01*
X3814724Y4759096D01*
X3801110Y4761788D01*
X3787292Y4762703D01*
X3773474Y4761788D01*
X3759911Y4759096D01*
X3746804Y4754626D01*
X3734358Y4748479D01*
X3722827Y4740808D01*
X3712413Y4731664D01*
X3703320Y4721250D01*
X3695598Y4709718D01*
X3689502Y4697323D01*
X3685032Y4684217D01*
X3682339Y4670602D01*
X3681425Y4656785D01*
X3682339Y4642967D01*
X3685032Y4629404D01*
X3689502Y4616297D01*
X3695598Y4603851D01*
X3703320Y4592320D01*
X3712413Y4581906D01*
X3722827Y4572812D01*
X3734358Y4565091D01*
X3746804Y4558995D01*
X3759911Y4554524D01*
X3773474Y4551832D01*
G37*
G36*
X2771292Y4550918D02*
G01*
X2785110Y4551832D01*
X2798724Y4554524D01*
X2811830Y4558995D01*
X2824226Y4565091D01*
X2835757Y4572812D01*
X2846171Y4581906D01*
X2855315Y4592320D01*
X2862986Y4603851D01*
X2869133Y4616297D01*
X2873603Y4629404D01*
X2876296Y4642967D01*
X2877210Y4656785D01*
X2876296Y4670602D01*
X2873603Y4684217D01*
X2869133Y4697323D01*
X2862986Y4709718D01*
X2855315Y4721250D01*
X2846171Y4731664D01*
X2835757Y4740808D01*
X2824226Y4748479D01*
X2811830Y4754626D01*
X2798724Y4759096D01*
X2785110Y4761788D01*
X2771292Y4762703D01*
X2757474Y4761788D01*
X2743911Y4759096D01*
X2730804Y4754626D01*
X2718358Y4748479D01*
X2706827Y4740808D01*
X2696413Y4731664D01*
X2687320Y4721250D01*
X2679598Y4709718D01*
X2673502Y4697323D01*
X2669032Y4684217D01*
X2666339Y4670602D01*
X2665425Y4656785D01*
X2666339Y4642967D01*
X2669032Y4629404D01*
X2673502Y4616297D01*
X2679598Y4603851D01*
X2687320Y4592320D01*
X2696413Y4581906D01*
X2706827Y4572812D01*
X2718358Y4565091D01*
X2730804Y4558995D01*
X2743911Y4554524D01*
X2757474Y4551832D01*
G37*
G36*
X2263292Y4550918D02*
G01*
X2277110Y4551832D01*
X2290724Y4554524D01*
X2303830Y4558995D01*
X2316276Y4565091D01*
X2327757Y4572812D01*
X2338171Y4581906D01*
X2347315Y4592320D01*
X2354986Y4603851D01*
X2361133Y4616297D01*
X2365603Y4629404D01*
X2368296Y4642967D01*
X2369210Y4656785D01*
X2368296Y4670602D01*
X2365603Y4684217D01*
X2361133Y4697323D01*
X2354986Y4709718D01*
X2347315Y4721250D01*
X2338171Y4731664D01*
X2327757Y4740808D01*
X2316276Y4748479D01*
X2303830Y4754626D01*
X2290724Y4759096D01*
X2277110Y4761788D01*
X2263292Y4762703D01*
X2249474Y4761788D01*
X2235911Y4759096D01*
X2222804Y4754626D01*
X2210358Y4748479D01*
X2198827Y4740808D01*
X2188413Y4731664D01*
X2179320Y4721250D01*
X2171598Y4709718D01*
X2165502Y4697323D01*
X2161032Y4684217D01*
X2158339Y4670602D01*
X2157425Y4656785D01*
X2158339Y4642967D01*
X2161032Y4629404D01*
X2165502Y4616297D01*
X2171598Y4603851D01*
X2179320Y4592320D01*
X2188413Y4581906D01*
X2198827Y4572812D01*
X2210358Y4565091D01*
X2222804Y4558995D01*
X2235911Y4554524D01*
X2249474Y4551832D01*
G37*
G36*
X3533292Y4550918D02*
G01*
X3547110Y4551832D01*
X3560724Y4554524D01*
X3573830Y4558995D01*
X3586226Y4565091D01*
X3597757Y4572812D01*
X3608171Y4581906D01*
X3617315Y4592320D01*
X3624986Y4603851D01*
X3631133Y4616297D01*
X3635603Y4629404D01*
X3638296Y4642967D01*
X3639210Y4656785D01*
X3638296Y4670602D01*
X3635603Y4684217D01*
X3631133Y4697323D01*
X3624986Y4709718D01*
X3617315Y4721250D01*
X3608171Y4731664D01*
X3597757Y4740808D01*
X3586226Y4748479D01*
X3573830Y4754626D01*
X3560724Y4759096D01*
X3547110Y4761788D01*
X3533292Y4762703D01*
X3519474Y4761788D01*
X3505911Y4759096D01*
X3492804Y4754626D01*
X3480358Y4748479D01*
X3468827Y4740808D01*
X3458413Y4731664D01*
X3449320Y4721250D01*
X3441598Y4709718D01*
X3435502Y4697323D01*
X3431032Y4684217D01*
X3428339Y4670602D01*
X3427425Y4656785D01*
X3428339Y4642967D01*
X3431032Y4629404D01*
X3435502Y4616297D01*
X3441598Y4603851D01*
X3449320Y4592320D01*
X3458413Y4581906D01*
X3468827Y4572812D01*
X3480358Y4565091D01*
X3492804Y4558995D01*
X3505911Y4554524D01*
X3519474Y4551832D01*
G37*
G36*
X2517292Y4550918D02*
G01*
X2531110Y4551832D01*
X2544724Y4554524D01*
X2557830Y4558995D01*
X2570226Y4565091D01*
X2581757Y4572812D01*
X2592171Y4581906D01*
X2601315Y4592320D01*
X2608986Y4603851D01*
X2615133Y4616297D01*
X2619603Y4629404D01*
X2622296Y4642967D01*
X2623210Y4656785D01*
X2622296Y4670602D01*
X2619603Y4684217D01*
X2615133Y4697323D01*
X2608986Y4709718D01*
X2601315Y4721250D01*
X2592171Y4731664D01*
X2581757Y4740808D01*
X2570226Y4748479D01*
X2557830Y4754626D01*
X2544724Y4759096D01*
X2531110Y4761788D01*
X2517292Y4762703D01*
X2503474Y4761788D01*
X2489911Y4759096D01*
X2476804Y4754626D01*
X2464358Y4748479D01*
X2452827Y4740808D01*
X2442413Y4731664D01*
X2433320Y4721250D01*
X2425598Y4709718D01*
X2419502Y4697323D01*
X2415032Y4684217D01*
X2412339Y4670602D01*
X2411425Y4656785D01*
X2412339Y4642967D01*
X2415032Y4629404D01*
X2419502Y4616297D01*
X2425598Y4603851D01*
X2433320Y4592320D01*
X2442413Y4581906D01*
X2452827Y4572812D01*
X2464358Y4565091D01*
X2476804Y4558995D01*
X2489911Y4554524D01*
X2503474Y4551832D01*
G37*
G36*
X3025292Y4550918D02*
G01*
X3039110Y4551832D01*
X3052724Y4554524D01*
X3065830Y4558995D01*
X3078226Y4565091D01*
X3089757Y4572812D01*
X3100171Y4581906D01*
X3109315Y4592320D01*
X3116986Y4603851D01*
X3123133Y4616297D01*
X3127603Y4629404D01*
X3130296Y4642967D01*
X3131210Y4656785D01*
X3130296Y4670602D01*
X3127603Y4684217D01*
X3123133Y4697323D01*
X3116986Y4709718D01*
X3109315Y4721250D01*
X3100171Y4731664D01*
X3089757Y4740808D01*
X3078226Y4748479D01*
X3065830Y4754626D01*
X3052724Y4759096D01*
X3039110Y4761788D01*
X3025292Y4762703D01*
X3011474Y4761788D01*
X2997911Y4759096D01*
X2984804Y4754626D01*
X2972358Y4748479D01*
X2960827Y4740808D01*
X2950413Y4731664D01*
X2941320Y4721250D01*
X2933598Y4709718D01*
X2927502Y4697323D01*
X2923032Y4684217D01*
X2920339Y4670602D01*
X2919425Y4656785D01*
X2920339Y4642967D01*
X2923032Y4629404D01*
X2927502Y4616297D01*
X2933598Y4603851D01*
X2941320Y4592320D01*
X2950413Y4581906D01*
X2960827Y4572812D01*
X2972358Y4565091D01*
X2984804Y4558995D01*
X2997911Y4554524D01*
X3011474Y4551832D01*
G37*
G36*
X7391400Y4578756D02*
G01*
X7405420Y4579670D01*
X7419238Y4582414D01*
X7432548Y4586935D01*
X7445197Y4593183D01*
X7456881Y4601006D01*
X7467447Y4610252D01*
X7476744Y4620818D01*
X7484516Y4632553D01*
X7490764Y4645152D01*
X7495286Y4658461D01*
X7498029Y4672279D01*
X7498943Y4686300D01*
X7498029Y4700320D01*
X7495286Y4714138D01*
X7490764Y4727448D01*
X7484516Y4740097D01*
X7476744Y4751781D01*
X7467447Y4762347D01*
X7456881Y4771644D01*
X7445197Y4779416D01*
X7432548Y4785664D01*
X7419238Y4790186D01*
X7405420Y4792929D01*
X7391400Y4793843D01*
X7377379Y4792929D01*
X7363561Y4790186D01*
X7350252Y4785664D01*
X7337653Y4779416D01*
X7325918Y4771644D01*
X7315352Y4762347D01*
X7306106Y4751781D01*
X7298283Y4740097D01*
X7292035Y4727448D01*
X7287514Y4714138D01*
X7284770Y4700320D01*
X7283856Y4686300D01*
X7284770Y4672279D01*
X7287514Y4658461D01*
X7292035Y4645152D01*
X7298283Y4632553D01*
X7306106Y4620818D01*
X7315352Y4610252D01*
X7325918Y4601006D01*
X7337653Y4593183D01*
X7350252Y4586935D01*
X7363561Y4582414D01*
X7377379Y4579670D01*
G37*
G36*
X7391400Y4832756D02*
G01*
X7405420Y4833670D01*
X7419238Y4836414D01*
X7432548Y4840935D01*
X7445197Y4847183D01*
X7456881Y4855006D01*
X7467447Y4864252D01*
X7476744Y4874818D01*
X7484516Y4886553D01*
X7490764Y4899152D01*
X7495286Y4912461D01*
X7498029Y4926279D01*
X7498943Y4940300D01*
X7498029Y4954320D01*
X7495286Y4968138D01*
X7490764Y4981448D01*
X7484516Y4994046D01*
X7476744Y5005781D01*
X7467447Y5016347D01*
X7456881Y5025593D01*
X7445197Y5033416D01*
X7432548Y5039664D01*
X7419238Y5044186D01*
X7405420Y5046929D01*
X7391400Y5047843D01*
X7377379Y5046929D01*
X7363561Y5044186D01*
X7350252Y5039664D01*
X7337653Y5033416D01*
X7325918Y5025593D01*
X7315352Y5016347D01*
X7306106Y5005781D01*
X7298283Y4994046D01*
X7292035Y4981448D01*
X7287514Y4968138D01*
X7284770Y4954320D01*
X7283856Y4940300D01*
X7284770Y4926279D01*
X7287514Y4912461D01*
X7292035Y4899152D01*
X7298283Y4886553D01*
X7306106Y4874818D01*
X7315352Y4864252D01*
X7325918Y4855006D01*
X7337653Y4847183D01*
X7350252Y4840935D01*
X7363561Y4836414D01*
X7377379Y4833670D01*
G37*
G36*
X7391400Y5086756D02*
G01*
X7405420Y5087670D01*
X7419238Y5090414D01*
X7432548Y5094935D01*
X7445197Y5101183D01*
X7456881Y5109006D01*
X7467447Y5118252D01*
X7476744Y5128818D01*
X7484516Y5140553D01*
X7490764Y5153152D01*
X7495286Y5166461D01*
X7498029Y5180279D01*
X7498943Y5194300D01*
X7498029Y5208320D01*
X7495286Y5222138D01*
X7490764Y5235448D01*
X7484516Y5248046D01*
X7476744Y5259781D01*
X7467447Y5270347D01*
X7456881Y5279593D01*
X7445197Y5287416D01*
X7432548Y5293664D01*
X7419238Y5298186D01*
X7405420Y5300929D01*
X7391400Y5301843D01*
X7377379Y5300929D01*
X7363561Y5298186D01*
X7350252Y5293664D01*
X7337653Y5287416D01*
X7325918Y5279593D01*
X7315352Y5270347D01*
X7306106Y5259781D01*
X7298283Y5248046D01*
X7292035Y5235448D01*
X7287514Y5222138D01*
X7284770Y5208320D01*
X7283856Y5194300D01*
X7284770Y5180279D01*
X7287514Y5166461D01*
X7292035Y5153152D01*
X7298283Y5140553D01*
X7306106Y5128818D01*
X7315352Y5118252D01*
X7325918Y5109006D01*
X7337653Y5101183D01*
X7350252Y5094935D01*
X7363561Y5090414D01*
X7377379Y5087670D01*
G37*
G36*
X7391400Y5340756D02*
G01*
X7405420Y5341670D01*
X7419238Y5344414D01*
X7432548Y5348935D01*
X7445197Y5355183D01*
X7456881Y5363006D01*
X7467447Y5372252D01*
X7476744Y5382818D01*
X7484516Y5394553D01*
X7490764Y5407152D01*
X7495286Y5420461D01*
X7498029Y5434279D01*
X7498943Y5448300D01*
X7498029Y5462320D01*
X7495286Y5476138D01*
X7490764Y5489448D01*
X7484516Y5502046D01*
X7476744Y5513781D01*
X7467447Y5524347D01*
X7456881Y5533593D01*
X7445197Y5541416D01*
X7432548Y5547664D01*
X7419238Y5552186D01*
X7405420Y5554929D01*
X7391400Y5555843D01*
X7377379Y5554929D01*
X7363561Y5552186D01*
X7350252Y5547664D01*
X7337653Y5541416D01*
X7325918Y5533593D01*
X7315352Y5524347D01*
X7306106Y5513781D01*
X7298283Y5502046D01*
X7292035Y5489448D01*
X7287514Y5476138D01*
X7284770Y5462320D01*
X7283856Y5448300D01*
X7284770Y5434279D01*
X7287514Y5420461D01*
X7292035Y5407152D01*
X7298283Y5394553D01*
X7306106Y5382818D01*
X7315352Y5372252D01*
X7325918Y5363006D01*
X7337653Y5355183D01*
X7350252Y5348935D01*
X7363561Y5344414D01*
X7377379Y5341670D01*
G37*
G36*
X9931400Y5340756D02*
G01*
X9945420Y5341670D01*
X9959238Y5344414D01*
X9972548Y5348935D01*
X9985146Y5355183D01*
X9996881Y5363006D01*
X10007447Y5372252D01*
X10016693Y5382818D01*
X10024516Y5394553D01*
X10030764Y5407152D01*
X10035286Y5420461D01*
X10038029Y5434279D01*
X10038943Y5448300D01*
X10038029Y5462320D01*
X10035286Y5476138D01*
X10030764Y5489448D01*
X10024516Y5502046D01*
X10016693Y5513781D01*
X10007447Y5524347D01*
X9996881Y5533593D01*
X9985146Y5541416D01*
X9972548Y5547664D01*
X9959238Y5552186D01*
X9945420Y5554929D01*
X9931400Y5555843D01*
X9917379Y5554929D01*
X9903561Y5552186D01*
X9890252Y5547664D01*
X9877653Y5541416D01*
X9865918Y5533593D01*
X9855352Y5524347D01*
X9846106Y5513781D01*
X9838283Y5502046D01*
X9832035Y5489448D01*
X9827514Y5476138D01*
X9824770Y5462320D01*
X9823856Y5448300D01*
X9824770Y5434279D01*
X9827514Y5420461D01*
X9832035Y5407152D01*
X9838283Y5394553D01*
X9846106Y5382818D01*
X9855352Y5372252D01*
X9865918Y5363006D01*
X9877653Y5355183D01*
X9890252Y5348935D01*
X9903561Y5344414D01*
X9917379Y5341670D01*
G37*
G36*
X9931400Y5594756D02*
G01*
X9945420Y5595670D01*
X9959238Y5598414D01*
X9972548Y5602935D01*
X9985146Y5609183D01*
X9996881Y5617006D01*
X10007447Y5626252D01*
X10016693Y5636818D01*
X10024516Y5648553D01*
X10030764Y5661152D01*
X10035286Y5674461D01*
X10038029Y5688279D01*
X10038943Y5702300D01*
X10038029Y5716320D01*
X10035286Y5730138D01*
X10030764Y5743448D01*
X10024516Y5756046D01*
X10016693Y5767781D01*
X10007447Y5778347D01*
X9996881Y5787593D01*
X9985146Y5795416D01*
X9972548Y5801664D01*
X9959238Y5806186D01*
X9945420Y5808929D01*
X9931400Y5809843D01*
X9917379Y5808929D01*
X9903561Y5806186D01*
X9890252Y5801664D01*
X9877653Y5795416D01*
X9865918Y5787593D01*
X9855352Y5778347D01*
X9846106Y5767781D01*
X9838283Y5756046D01*
X9832035Y5743448D01*
X9827514Y5730138D01*
X9824770Y5716320D01*
X9823856Y5702300D01*
X9824770Y5688279D01*
X9827514Y5674461D01*
X9832035Y5661152D01*
X9838283Y5648553D01*
X9846106Y5636818D01*
X9855352Y5626252D01*
X9865918Y5617006D01*
X9877653Y5609183D01*
X9890252Y5602935D01*
X9903561Y5598414D01*
X9917379Y5595670D01*
G37*
G36*
X7391400Y5594756D02*
G01*
X7405420Y5595670D01*
X7419238Y5598414D01*
X7432548Y5602935D01*
X7445197Y5609183D01*
X7456881Y5617006D01*
X7467447Y5626252D01*
X7476744Y5636818D01*
X7484516Y5648553D01*
X7490764Y5661152D01*
X7495286Y5674461D01*
X7498029Y5688279D01*
X7498943Y5702300D01*
X7498029Y5716320D01*
X7495286Y5730138D01*
X7490764Y5743448D01*
X7484516Y5756046D01*
X7476744Y5767781D01*
X7467447Y5778347D01*
X7456881Y5787593D01*
X7445197Y5795416D01*
X7432548Y5801664D01*
X7419238Y5806186D01*
X7405420Y5808929D01*
X7391400Y5809843D01*
X7377379Y5808929D01*
X7363561Y5806186D01*
X7350252Y5801664D01*
X7337653Y5795416D01*
X7325918Y5787593D01*
X7315352Y5778347D01*
X7306106Y5767781D01*
X7298283Y5756046D01*
X7292035Y5743448D01*
X7287514Y5730138D01*
X7284770Y5716320D01*
X7283856Y5702300D01*
X7284770Y5688279D01*
X7287514Y5674461D01*
X7292035Y5661152D01*
X7298283Y5648553D01*
X7306106Y5636818D01*
X7315352Y5626252D01*
X7325918Y5617006D01*
X7337653Y5609183D01*
X7350252Y5602935D01*
X7363561Y5598414D01*
X7377379Y5595670D01*
G37*
G36*
X9931400Y5848756D02*
G01*
X9945420Y5849670D01*
X9959238Y5852414D01*
X9972548Y5856935D01*
X9985146Y5863183D01*
X9996881Y5871006D01*
X10007447Y5880252D01*
X10016693Y5890818D01*
X10024516Y5902553D01*
X10030764Y5915152D01*
X10035286Y5928461D01*
X10038029Y5942279D01*
X10038943Y5956300D01*
X10038029Y5970320D01*
X10035286Y5984138D01*
X10030764Y5997448D01*
X10024516Y6010046D01*
X10016693Y6021781D01*
X10007447Y6032347D01*
X9996881Y6041593D01*
X9985146Y6049416D01*
X9972548Y6055664D01*
X9959238Y6060186D01*
X9945420Y6062929D01*
X9931400Y6063843D01*
X9917379Y6062929D01*
X9903561Y6060186D01*
X9890252Y6055664D01*
X9877653Y6049416D01*
X9865918Y6041593D01*
X9855352Y6032347D01*
X9846106Y6021781D01*
X9838283Y6010046D01*
X9832035Y5997448D01*
X9827514Y5984138D01*
X9824770Y5970320D01*
X9823856Y5956300D01*
X9824770Y5942279D01*
X9827514Y5928461D01*
X9832035Y5915152D01*
X9838283Y5902553D01*
X9846106Y5890818D01*
X9855352Y5880252D01*
X9865918Y5871006D01*
X9877653Y5863183D01*
X9890252Y5856935D01*
X9903561Y5852414D01*
X9917379Y5849670D01*
G37*
G36*
X7391400Y5848756D02*
G01*
X7405420Y5849670D01*
X7419238Y5852414D01*
X7432548Y5856935D01*
X7445197Y5863183D01*
X7456881Y5871006D01*
X7467447Y5880252D01*
X7476744Y5890818D01*
X7484516Y5902553D01*
X7490764Y5915152D01*
X7495286Y5928461D01*
X7498029Y5942279D01*
X7498943Y5956300D01*
X7498029Y5970320D01*
X7495286Y5984138D01*
X7490764Y5997448D01*
X7484516Y6010046D01*
X7476744Y6021781D01*
X7467447Y6032347D01*
X7456881Y6041593D01*
X7445197Y6049416D01*
X7432548Y6055664D01*
X7419238Y6060186D01*
X7405420Y6062929D01*
X7391400Y6063843D01*
X7377379Y6062929D01*
X7363561Y6060186D01*
X7350252Y6055664D01*
X7337653Y6049416D01*
X7325918Y6041593D01*
X7315352Y6032347D01*
X7306106Y6021781D01*
X7298283Y6010046D01*
X7292035Y5997448D01*
X7287514Y5984138D01*
X7284770Y5970320D01*
X7283856Y5956300D01*
X7284770Y5942279D01*
X7287514Y5928461D01*
X7292035Y5915152D01*
X7298283Y5902553D01*
X7306106Y5890818D01*
X7315352Y5880252D01*
X7325918Y5871006D01*
X7337653Y5863183D01*
X7350252Y5856935D01*
X7363561Y5852414D01*
X7377379Y5849670D01*
G37*
G36*
X9931400Y6102756D02*
G01*
X9945420Y6103670D01*
X9959238Y6106414D01*
X9972548Y6110935D01*
X9985146Y6117183D01*
X9996881Y6125006D01*
X10007447Y6134252D01*
X10016693Y6144818D01*
X10024516Y6156553D01*
X10030764Y6169152D01*
X10035286Y6182461D01*
X10038029Y6196279D01*
X10038943Y6210300D01*
X10038029Y6224320D01*
X10035286Y6238138D01*
X10030764Y6251448D01*
X10024516Y6264046D01*
X10016693Y6275781D01*
X10007447Y6286347D01*
X9996881Y6295593D01*
X9985146Y6303416D01*
X9972548Y6309664D01*
X9959238Y6314186D01*
X9945420Y6316929D01*
X9931400Y6317843D01*
X9917379Y6316929D01*
X9903561Y6314186D01*
X9890252Y6309664D01*
X9877653Y6303416D01*
X9865918Y6295593D01*
X9855352Y6286347D01*
X9846106Y6275781D01*
X9838283Y6264046D01*
X9832035Y6251448D01*
X9827514Y6238138D01*
X9824770Y6224320D01*
X9823856Y6210300D01*
X9824770Y6196279D01*
X9827514Y6182461D01*
X9832035Y6169152D01*
X9838283Y6156553D01*
X9846106Y6144818D01*
X9855352Y6134252D01*
X9865918Y6125006D01*
X9877653Y6117183D01*
X9890252Y6110935D01*
X9903561Y6106414D01*
X9917379Y6103670D01*
G37*
G36*
X7344206Y6113932D02*
G01*
X7344206Y6163106D01*
X7295032Y6163106D01*
X7298283Y6156553D01*
X7306106Y6144818D01*
X7315352Y6134252D01*
X7325918Y6125006D01*
X7337653Y6117183D01*
G37*
G36*
X7438593Y6113932D02*
G01*
X7445197Y6117183D01*
X7456881Y6125006D01*
X7467447Y6134252D01*
X7476744Y6144818D01*
X7484516Y6156553D01*
X7487767Y6163106D01*
X7438593Y6163106D01*
G37*
G36*
X7295032Y6257493D02*
G01*
X7344206Y6257493D01*
X7344206Y6306667D01*
X7337653Y6303416D01*
X7325918Y6295593D01*
X7315352Y6286347D01*
X7306106Y6275781D01*
X7298283Y6264046D01*
G37*
G36*
X7438593Y6257493D02*
G01*
X7487767Y6257493D01*
X7484516Y6264046D01*
X7476744Y6275781D01*
X7467447Y6286347D01*
X7456881Y6295593D01*
X7445197Y6303416D01*
X7438593Y6306667D01*
G37*
G36*
X5865672Y6328867D02*
G01*
X5898743Y6328867D01*
X5905042Y6329578D01*
X5910529Y6331508D01*
X5915406Y6334607D01*
X5919520Y6338671D01*
X5922568Y6343599D01*
X5924499Y6349034D01*
X5925210Y6355384D01*
X5925210Y6388455D01*
X5865672Y6388455D01*
G37*
G36*
X5739892Y6328867D02*
G01*
X5772962Y6328867D01*
X5772962Y6388455D01*
X5713374Y6388455D01*
X5713374Y6355384D01*
X5714085Y6349034D01*
X5716016Y6343599D01*
X5719114Y6338671D01*
X5723178Y6334607D01*
X5728106Y6331508D01*
X5733542Y6329578D01*
G37*
G36*
X1929892Y6328867D02*
G01*
X2088743Y6328867D01*
X2095042Y6329578D01*
X2100529Y6331508D01*
X2105406Y6334607D01*
X2109520Y6338671D01*
X2112619Y6343599D01*
X2114499Y6349034D01*
X2115210Y6355384D01*
X2115210Y6494119D01*
X2115972Y6498031D01*
X2118207Y6501333D01*
X2121509Y6503517D01*
X2125370Y6504279D01*
X2163673Y6504279D01*
X2167940Y6503365D01*
X2171395Y6500723D01*
X2173427Y6496913D01*
X2173681Y6492544D01*
X2171598Y6487718D01*
X2165502Y6475323D01*
X2161032Y6462217D01*
X2158339Y6448602D01*
X2157425Y6434785D01*
X2158339Y6420967D01*
X2161032Y6407404D01*
X2165502Y6394297D01*
X2171598Y6381851D01*
X2179320Y6370320D01*
X2188413Y6359906D01*
X2198827Y6350812D01*
X2210358Y6343091D01*
X2222804Y6336944D01*
X2235911Y6332524D01*
X2249474Y6329832D01*
X2263292Y6328918D01*
X2277110Y6329832D01*
X2290724Y6332524D01*
X2303830Y6336944D01*
X2316276Y6343091D01*
X2327757Y6350812D01*
X2338171Y6359906D01*
X2347315Y6370320D01*
X2354986Y6381851D01*
X2361133Y6394297D01*
X2365603Y6407404D01*
X2368296Y6420967D01*
X2369210Y6434785D01*
X2368296Y6448602D01*
X2365603Y6462217D01*
X2361133Y6475323D01*
X2354986Y6487718D01*
X2352903Y6492544D01*
X2353157Y6496913D01*
X2355240Y6500723D01*
X2358694Y6503365D01*
X2362962Y6504279D01*
X2417673Y6504279D01*
X2421940Y6503365D01*
X2425395Y6500723D01*
X2427427Y6496913D01*
X2427681Y6492544D01*
X2425598Y6487718D01*
X2419502Y6475323D01*
X2415032Y6462217D01*
X2412339Y6448602D01*
X2411425Y6434785D01*
X2412339Y6420967D01*
X2415032Y6407404D01*
X2419502Y6394297D01*
X2425598Y6381851D01*
X2433320Y6370320D01*
X2442413Y6359906D01*
X2452827Y6350812D01*
X2464358Y6343091D01*
X2476804Y6336944D01*
X2489911Y6332524D01*
X2503474Y6329832D01*
X2517292Y6328918D01*
X2531110Y6329832D01*
X2544724Y6332524D01*
X2557830Y6336944D01*
X2570226Y6343091D01*
X2581757Y6350812D01*
X2592171Y6359906D01*
X2601315Y6370320D01*
X2608986Y6381851D01*
X2615133Y6394297D01*
X2619603Y6407404D01*
X2622296Y6420967D01*
X2623210Y6434785D01*
X2622296Y6448602D01*
X2619603Y6462217D01*
X2615133Y6475323D01*
X2608986Y6487718D01*
X2606903Y6492544D01*
X2607157Y6496913D01*
X2609240Y6500723D01*
X2612694Y6503365D01*
X2616962Y6504279D01*
X2671673Y6504279D01*
X2675940Y6503365D01*
X2679395Y6500723D01*
X2681427Y6496913D01*
X2681681Y6492544D01*
X2679598Y6487718D01*
X2673502Y6475323D01*
X2669032Y6462217D01*
X2666339Y6448602D01*
X2665425Y6434785D01*
X2666339Y6420967D01*
X2669032Y6407404D01*
X2673502Y6394297D01*
X2679598Y6381851D01*
X2687320Y6370320D01*
X2696413Y6359906D01*
X2706827Y6350812D01*
X2718358Y6343091D01*
X2730804Y6336944D01*
X2743911Y6332524D01*
X2757474Y6329832D01*
X2771292Y6328918D01*
X2785110Y6329832D01*
X2798724Y6332524D01*
X2811830Y6336944D01*
X2824226Y6343091D01*
X2835757Y6350812D01*
X2846171Y6359906D01*
X2855315Y6370320D01*
X2862986Y6381851D01*
X2869133Y6394297D01*
X2873603Y6407404D01*
X2876296Y6420967D01*
X2877210Y6434785D01*
X2876296Y6448602D01*
X2873603Y6462217D01*
X2869133Y6475323D01*
X2862986Y6487718D01*
X2860903Y6492544D01*
X2861157Y6496913D01*
X2863240Y6500723D01*
X2866694Y6503365D01*
X2870962Y6504279D01*
X2925673Y6504279D01*
X2929890Y6503365D01*
X2933395Y6500723D01*
X2935427Y6496913D01*
X2935681Y6492544D01*
X2933598Y6487718D01*
X2927502Y6475323D01*
X2923032Y6462217D01*
X2920339Y6448602D01*
X2919425Y6434785D01*
X2920339Y6420967D01*
X2923032Y6407404D01*
X2927502Y6394297D01*
X2933598Y6381851D01*
X2941320Y6370320D01*
X2950413Y6359906D01*
X2960827Y6350812D01*
X2972358Y6343091D01*
X2984804Y6336944D01*
X2997911Y6332524D01*
X3011474Y6329832D01*
X3025292Y6328918D01*
X3039110Y6329832D01*
X3052724Y6332524D01*
X3065830Y6336944D01*
X3078226Y6343091D01*
X3089757Y6350812D01*
X3100171Y6359906D01*
X3109315Y6370320D01*
X3116986Y6381851D01*
X3123133Y6394297D01*
X3127603Y6407404D01*
X3130296Y6420967D01*
X3131210Y6434785D01*
X3130296Y6448602D01*
X3127603Y6462217D01*
X3123133Y6475323D01*
X3116986Y6487718D01*
X3114903Y6492544D01*
X3115157Y6496913D01*
X3117240Y6500723D01*
X3120694Y6503365D01*
X3124962Y6504279D01*
X3163265Y6504279D01*
X3167126Y6503517D01*
X3170428Y6501333D01*
X3172612Y6498031D01*
X3173425Y6494119D01*
X3173425Y6355384D01*
X3174136Y6349034D01*
X3176016Y6343599D01*
X3179114Y6338671D01*
X3183178Y6334607D01*
X3188106Y6331508D01*
X3193542Y6329578D01*
X3199892Y6328867D01*
X3358743Y6328867D01*
X3365042Y6329578D01*
X3370529Y6331508D01*
X3375406Y6334607D01*
X3379520Y6338671D01*
X3382568Y6343599D01*
X3384499Y6349034D01*
X3385210Y6355384D01*
X3385210Y6494119D01*
X3385972Y6498031D01*
X3388207Y6501333D01*
X3391509Y6503517D01*
X3395370Y6504279D01*
X3433673Y6504279D01*
X3437940Y6503365D01*
X3441395Y6500723D01*
X3443427Y6496913D01*
X3443681Y6492544D01*
X3441598Y6487718D01*
X3435502Y6475323D01*
X3431032Y6462217D01*
X3428339Y6448602D01*
X3427425Y6434785D01*
X3428339Y6420967D01*
X3431032Y6407404D01*
X3435502Y6394297D01*
X3441598Y6381851D01*
X3449320Y6370320D01*
X3458413Y6359906D01*
X3468827Y6350812D01*
X3480358Y6343091D01*
X3492804Y6336944D01*
X3505911Y6332524D01*
X3519474Y6329832D01*
X3533292Y6328918D01*
X3547110Y6329832D01*
X3560724Y6332524D01*
X3573830Y6336944D01*
X3586226Y6343091D01*
X3597757Y6350812D01*
X3608171Y6359906D01*
X3617315Y6370320D01*
X3624986Y6381851D01*
X3631133Y6394297D01*
X3635603Y6407404D01*
X3638296Y6420967D01*
X3639210Y6434785D01*
X3638296Y6448602D01*
X3635603Y6462217D01*
X3631133Y6475323D01*
X3624986Y6487718D01*
X3622903Y6492544D01*
X3623157Y6496913D01*
X3625240Y6500723D01*
X3628694Y6503365D01*
X3632962Y6504279D01*
X3687673Y6504279D01*
X3691890Y6503365D01*
X3695395Y6500723D01*
X3697427Y6496913D01*
X3697681Y6492544D01*
X3695598Y6487718D01*
X3689502Y6475323D01*
X3685032Y6462217D01*
X3682339Y6448602D01*
X3681425Y6434785D01*
X3682339Y6420967D01*
X3685032Y6407404D01*
X3689502Y6394297D01*
X3695598Y6381851D01*
X3703320Y6370320D01*
X3712413Y6359906D01*
X3722827Y6350812D01*
X3734358Y6343091D01*
X3746804Y6336944D01*
X3759911Y6332524D01*
X3773474Y6329832D01*
X3787292Y6328918D01*
X3801110Y6329832D01*
X3814724Y6332524D01*
X3827830Y6336944D01*
X3840226Y6343091D01*
X3851757Y6350812D01*
X3862171Y6359906D01*
X3871315Y6370320D01*
X3878986Y6381851D01*
X3885133Y6394297D01*
X3889603Y6407404D01*
X3892296Y6420967D01*
X3893210Y6434785D01*
X3892296Y6448602D01*
X3889603Y6462217D01*
X3885133Y6475323D01*
X3878986Y6487718D01*
X3876903Y6492544D01*
X3877157Y6496913D01*
X3879240Y6500723D01*
X3882694Y6503365D01*
X3886962Y6504279D01*
X3941673Y6504279D01*
X3945890Y6503365D01*
X3949395Y6500723D01*
X3951427Y6496913D01*
X3951681Y6492544D01*
X3949598Y6487718D01*
X3943502Y6475323D01*
X3939032Y6462217D01*
X3936339Y6448602D01*
X3935425Y6434785D01*
X3936339Y6420967D01*
X3939032Y6407404D01*
X3943502Y6394297D01*
X3949598Y6381851D01*
X3957320Y6370320D01*
X3966413Y6359906D01*
X3976827Y6350812D01*
X3988358Y6343091D01*
X4000804Y6336944D01*
X4013911Y6332524D01*
X4027474Y6329832D01*
X4041292Y6328918D01*
X4055110Y6329832D01*
X4068724Y6332524D01*
X4081830Y6336944D01*
X4094226Y6343091D01*
X4105757Y6350812D01*
X4116171Y6359906D01*
X4125315Y6370320D01*
X4132986Y6381851D01*
X4139133Y6394297D01*
X4143603Y6407404D01*
X4146296Y6420967D01*
X4147210Y6434785D01*
X4146296Y6448602D01*
X4143603Y6462217D01*
X4139133Y6475323D01*
X4132986Y6487718D01*
X4130903Y6492544D01*
X4131157Y6496913D01*
X4133240Y6500723D01*
X4136694Y6503365D01*
X4140962Y6504279D01*
X4195673Y6504279D01*
X4199890Y6503365D01*
X4203395Y6500723D01*
X4205427Y6496913D01*
X4205681Y6492544D01*
X4203598Y6487718D01*
X4197451Y6475323D01*
X4193032Y6462217D01*
X4190339Y6448602D01*
X4189425Y6434785D01*
X4190339Y6420967D01*
X4193032Y6407404D01*
X4197451Y6394297D01*
X4203598Y6381851D01*
X4211320Y6370320D01*
X4220413Y6359906D01*
X4230827Y6350812D01*
X4242358Y6343091D01*
X4254804Y6336944D01*
X4267911Y6332524D01*
X4281474Y6329832D01*
X4295292Y6328918D01*
X4309110Y6329832D01*
X4322724Y6332524D01*
X4335830Y6336944D01*
X4348226Y6343091D01*
X4359757Y6350812D01*
X4370171Y6359906D01*
X4379315Y6370320D01*
X4386986Y6381851D01*
X4393133Y6394297D01*
X4397603Y6407404D01*
X4400296Y6420967D01*
X4401210Y6434785D01*
X4400296Y6448602D01*
X4397603Y6462217D01*
X4393133Y6475323D01*
X4386986Y6487718D01*
X4384903Y6492544D01*
X4385157Y6496913D01*
X4387240Y6500723D01*
X4390694Y6503365D01*
X4394962Y6504279D01*
X4433214Y6504279D01*
X4437126Y6503517D01*
X4440428Y6501333D01*
X4442612Y6498031D01*
X4443374Y6494119D01*
X4443374Y6355384D01*
X4444085Y6349034D01*
X4446016Y6343599D01*
X4449114Y6338671D01*
X4453178Y6334607D01*
X4458106Y6331508D01*
X4463542Y6329578D01*
X4469892Y6328867D01*
X4628743Y6328867D01*
X4635042Y6329578D01*
X4640529Y6331508D01*
X4645406Y6334607D01*
X4649520Y6338671D01*
X4652568Y6343599D01*
X4654499Y6349034D01*
X4655210Y6355384D01*
X4655210Y6494119D01*
X4655972Y6498031D01*
X4658207Y6501333D01*
X4661509Y6503517D01*
X4665370Y6504279D01*
X4703673Y6504279D01*
X4707890Y6503365D01*
X4711395Y6500723D01*
X4713427Y6496913D01*
X4713681Y6492544D01*
X4711598Y6487718D01*
X4705502Y6475323D01*
X4701032Y6462217D01*
X4698339Y6448602D01*
X4697425Y6434785D01*
X4698339Y6420967D01*
X4701032Y6407404D01*
X4705502Y6394297D01*
X4711598Y6381851D01*
X4719320Y6370320D01*
X4728413Y6359906D01*
X4738827Y6350812D01*
X4750358Y6343091D01*
X4762804Y6336944D01*
X4775911Y6332524D01*
X4789474Y6329832D01*
X4803292Y6328918D01*
X4817110Y6329832D01*
X4830724Y6332524D01*
X4843830Y6336944D01*
X4856226Y6343091D01*
X4867757Y6350812D01*
X4878171Y6359906D01*
X4887315Y6370320D01*
X4894986Y6381851D01*
X4901133Y6394297D01*
X4905603Y6407404D01*
X4908296Y6420967D01*
X4909210Y6434785D01*
X4908296Y6448602D01*
X4905603Y6462217D01*
X4901133Y6475323D01*
X4894986Y6487718D01*
X4892903Y6492544D01*
X4893157Y6496913D01*
X4895240Y6500723D01*
X4898694Y6503365D01*
X4902962Y6504279D01*
X4957673Y6504279D01*
X4961890Y6503365D01*
X4965395Y6500723D01*
X4967427Y6496913D01*
X4967681Y6492544D01*
X4965598Y6487718D01*
X4959451Y6475323D01*
X4955032Y6462217D01*
X4952339Y6448602D01*
X4951425Y6434785D01*
X4952339Y6420967D01*
X4955032Y6407404D01*
X4959451Y6394297D01*
X4965598Y6381851D01*
X4973320Y6370320D01*
X4982413Y6359906D01*
X4992827Y6350812D01*
X5004358Y6343091D01*
X5016804Y6336944D01*
X5029911Y6332524D01*
X5043474Y6329832D01*
X5057292Y6328918D01*
X5071110Y6329832D01*
X5084724Y6332524D01*
X5097830Y6336944D01*
X5110226Y6343091D01*
X5121757Y6350812D01*
X5132171Y6359906D01*
X5141315Y6370320D01*
X5148986Y6381851D01*
X5155133Y6394297D01*
X5159603Y6407404D01*
X5162296Y6420967D01*
X5163210Y6434785D01*
X5162296Y6448602D01*
X5159603Y6462217D01*
X5155133Y6475323D01*
X5148986Y6487718D01*
X5146903Y6492544D01*
X5147157Y6496913D01*
X5149240Y6500723D01*
X5152694Y6503365D01*
X5156962Y6504279D01*
X5211673Y6504279D01*
X5215890Y6503365D01*
X5219395Y6500723D01*
X5221427Y6496913D01*
X5221681Y6492544D01*
X5219598Y6487718D01*
X5213451Y6475323D01*
X5209032Y6462217D01*
X5206339Y6448602D01*
X5205425Y6434785D01*
X5206339Y6420967D01*
X5209032Y6407404D01*
X5213451Y6394297D01*
X5219598Y6381851D01*
X5227320Y6370320D01*
X5236413Y6359906D01*
X5246827Y6350812D01*
X5258358Y6343091D01*
X5270804Y6336944D01*
X5283911Y6332524D01*
X5297474Y6329832D01*
X5311292Y6328918D01*
X5325110Y6329832D01*
X5338724Y6332524D01*
X5351830Y6336944D01*
X5364226Y6343091D01*
X5375757Y6350812D01*
X5386171Y6359906D01*
X5395315Y6370320D01*
X5402986Y6381851D01*
X5409133Y6394297D01*
X5413603Y6407404D01*
X5416296Y6420967D01*
X5417210Y6434785D01*
X5416296Y6448602D01*
X5413603Y6462217D01*
X5409133Y6475323D01*
X5402986Y6487718D01*
X5400903Y6492544D01*
X5401157Y6496913D01*
X5403240Y6500723D01*
X5406694Y6503365D01*
X5410962Y6504279D01*
X5465673Y6504279D01*
X5469890Y6503365D01*
X5473395Y6500723D01*
X5475427Y6496913D01*
X5475681Y6492544D01*
X5473598Y6487718D01*
X5467451Y6475323D01*
X5463032Y6462217D01*
X5460339Y6448602D01*
X5459425Y6434785D01*
X5460339Y6420967D01*
X5463032Y6407404D01*
X5467451Y6394297D01*
X5473598Y6381851D01*
X5481320Y6370320D01*
X5490413Y6359906D01*
X5500827Y6350812D01*
X5512358Y6343091D01*
X5524754Y6336944D01*
X5537911Y6332524D01*
X5551474Y6329832D01*
X5565292Y6328918D01*
X5579110Y6329832D01*
X5592724Y6332524D01*
X5605830Y6336944D01*
X5618226Y6343091D01*
X5629757Y6350812D01*
X5640171Y6359906D01*
X5649315Y6370320D01*
X5656986Y6381851D01*
X5663133Y6394297D01*
X5667603Y6407404D01*
X5670296Y6420967D01*
X5671210Y6434785D01*
X5670296Y6448602D01*
X5667603Y6462217D01*
X5663133Y6475323D01*
X5656986Y6487718D01*
X5654903Y6492544D01*
X5655157Y6496913D01*
X5657240Y6500723D01*
X5660694Y6503365D01*
X5664962Y6504279D01*
X5703214Y6504279D01*
X5707126Y6503517D01*
X5710428Y6501333D01*
X5712612Y6498031D01*
X5713374Y6494119D01*
X5713374Y6481165D01*
X5772962Y6481165D01*
X5772962Y6494119D01*
X5773724Y6498031D01*
X5775909Y6501333D01*
X5779211Y6503517D01*
X5783122Y6504279D01*
X5855512Y6504279D01*
X5859373Y6503517D01*
X5862675Y6501333D01*
X5864860Y6498031D01*
X5865672Y6494119D01*
X5865672Y6481165D01*
X5925210Y6481165D01*
X5925210Y6494119D01*
X5925972Y6498031D01*
X5928207Y6501333D01*
X5931458Y6503517D01*
X5935370Y6504279D01*
X5973673Y6504279D01*
X5977890Y6503365D01*
X5981395Y6500723D01*
X5983427Y6496913D01*
X5983681Y6492544D01*
X5981598Y6487718D01*
X5975451Y6475323D01*
X5971032Y6462217D01*
X5968339Y6448602D01*
X5967425Y6434785D01*
X5968339Y6420967D01*
X5971032Y6407404D01*
X5975451Y6394297D01*
X5981598Y6381851D01*
X5989320Y6370320D01*
X5998413Y6359906D01*
X6008827Y6350812D01*
X6020358Y6343091D01*
X6032804Y6336944D01*
X6045911Y6332524D01*
X6059474Y6329832D01*
X6073292Y6328918D01*
X6087110Y6329832D01*
X6100724Y6332524D01*
X6113830Y6336944D01*
X6126226Y6343091D01*
X6137757Y6350812D01*
X6148171Y6359906D01*
X6157315Y6370320D01*
X6164986Y6381851D01*
X6171133Y6394297D01*
X6175603Y6407404D01*
X6178296Y6420967D01*
X6179210Y6434785D01*
X6178296Y6448602D01*
X6175603Y6462217D01*
X6171133Y6475323D01*
X6164986Y6487718D01*
X6162903Y6492544D01*
X6163157Y6496913D01*
X6165240Y6500723D01*
X6168694Y6503365D01*
X6172962Y6504279D01*
X6227673Y6504279D01*
X6231890Y6503365D01*
X6235395Y6500723D01*
X6237427Y6496913D01*
X6237681Y6492544D01*
X6235598Y6487718D01*
X6229451Y6475323D01*
X6225032Y6462217D01*
X6222339Y6448602D01*
X6221425Y6434785D01*
X6222339Y6420967D01*
X6225032Y6407404D01*
X6229451Y6394297D01*
X6235598Y6381851D01*
X6243320Y6370320D01*
X6252413Y6359906D01*
X6262827Y6350812D01*
X6274358Y6343091D01*
X6286754Y6336944D01*
X6299911Y6332524D01*
X6313474Y6329832D01*
X6327292Y6328918D01*
X6341110Y6329832D01*
X6354724Y6332524D01*
X6367830Y6336944D01*
X6380226Y6343091D01*
X6391757Y6350812D01*
X6402171Y6359906D01*
X6411315Y6370320D01*
X6418986Y6381851D01*
X6425133Y6394297D01*
X6429603Y6407404D01*
X6432296Y6420967D01*
X6433210Y6434785D01*
X6432296Y6448602D01*
X6429603Y6462217D01*
X6425133Y6475323D01*
X6418986Y6487718D01*
X6416903Y6492544D01*
X6417157Y6496913D01*
X6419240Y6500723D01*
X6422694Y6503365D01*
X6426962Y6504279D01*
X7239863Y6504279D01*
X7243724Y6503517D01*
X7247026Y6501333D01*
X7281164Y6467195D01*
X7283246Y6464198D01*
X7284110Y6460693D01*
X7284770Y6450279D01*
X7287514Y6436461D01*
X7292035Y6423152D01*
X7298283Y6410553D01*
X7306106Y6398818D01*
X7315352Y6388252D01*
X7325918Y6379006D01*
X7337653Y6371183D01*
X7350252Y6364935D01*
X7363561Y6360414D01*
X7377379Y6357670D01*
X7391400Y6356756D01*
X7405420Y6357670D01*
X7419238Y6360414D01*
X7432548Y6364935D01*
X7445197Y6371183D01*
X7456881Y6379006D01*
X7467447Y6388252D01*
X7476744Y6398818D01*
X7484516Y6410553D01*
X7490764Y6423152D01*
X7495286Y6436461D01*
X7498029Y6450279D01*
X7498943Y6464300D01*
X7498029Y6478320D01*
X7495286Y6492138D01*
X7490764Y6505448D01*
X7484516Y6518046D01*
X7476744Y6529781D01*
X7467447Y6540347D01*
X7456881Y6549593D01*
X7445197Y6557416D01*
X7432548Y6563664D01*
X7419238Y6568186D01*
X7405420Y6570929D01*
X7395006Y6571589D01*
X7391501Y6572503D01*
X7388504Y6574536D01*
X7327290Y6635699D01*
X7320432Y6641388D01*
X7318400Y6642811D01*
X7310780Y6647383D01*
X7308596Y6648500D01*
X7300417Y6651904D01*
X7298080Y6652666D01*
X7289444Y6654800D01*
X7287006Y6655206D01*
X7278166Y6656070D01*
X1898091Y6656070D01*
X1889252Y6655206D01*
X1886813Y6654800D01*
X1878177Y6652666D01*
X1875840Y6651904D01*
X1867611Y6648500D01*
X1865426Y6647383D01*
X1857806Y6642811D01*
X1855825Y6641388D01*
X1848967Y6635699D01*
X1756460Y6543294D01*
X1753463Y6541211D01*
X1749958Y6540347D01*
X1741474Y6539788D01*
X1727911Y6537096D01*
X1714804Y6532626D01*
X1702358Y6526479D01*
X1690827Y6518808D01*
X1680413Y6509664D01*
X1671320Y6499250D01*
X1663598Y6487718D01*
X1657502Y6475323D01*
X1653032Y6462217D01*
X1650339Y6448602D01*
X1649425Y6434785D01*
X1650339Y6420967D01*
X1653032Y6407404D01*
X1657502Y6394297D01*
X1663598Y6381851D01*
X1671320Y6370320D01*
X1680413Y6359906D01*
X1690827Y6350812D01*
X1702358Y6343091D01*
X1714804Y6336944D01*
X1727911Y6332524D01*
X1741474Y6329832D01*
X1755292Y6328918D01*
X1769110Y6329832D01*
X1782724Y6332524D01*
X1795830Y6336944D01*
X1808225Y6343091D01*
X1819757Y6350812D01*
X1830171Y6359906D01*
X1839315Y6370320D01*
X1846986Y6381851D01*
X1853133Y6394297D01*
X1857603Y6407404D01*
X1860296Y6420967D01*
X1860854Y6429400D01*
X1861718Y6432905D01*
X1863801Y6435902D01*
X1886051Y6458153D01*
X1889353Y6460388D01*
X1893265Y6461150D01*
X1897125Y6460388D01*
X1900428Y6458153D01*
X1902612Y6454902D01*
X1903425Y6450990D01*
X1903425Y6355384D01*
X1904136Y6349034D01*
X1906016Y6343599D01*
X1909114Y6338671D01*
X1913178Y6334607D01*
X1918106Y6331508D01*
X1923542Y6329578D01*
G37*
G36*
X1501292Y6328918D02*
G01*
X1515110Y6329832D01*
X1528724Y6332524D01*
X1541830Y6336944D01*
X1554276Y6343091D01*
X1565757Y6350812D01*
X1576171Y6359906D01*
X1585315Y6370320D01*
X1592986Y6381851D01*
X1599133Y6394297D01*
X1603603Y6407404D01*
X1606296Y6420967D01*
X1607210Y6434785D01*
X1606296Y6448602D01*
X1603603Y6462217D01*
X1599133Y6475323D01*
X1592986Y6487718D01*
X1585315Y6499250D01*
X1576171Y6509664D01*
X1565757Y6518808D01*
X1554276Y6526479D01*
X1541830Y6532626D01*
X1528724Y6537096D01*
X1515110Y6539788D01*
X1501292Y6540703D01*
X1487474Y6539788D01*
X1473911Y6537096D01*
X1460804Y6532626D01*
X1448358Y6526479D01*
X1436827Y6518808D01*
X1426413Y6509664D01*
X1417320Y6499250D01*
X1409598Y6487718D01*
X1403502Y6475323D01*
X1399032Y6462217D01*
X1396339Y6448602D01*
X1395425Y6434785D01*
X1396339Y6420967D01*
X1399032Y6407404D01*
X1403502Y6394297D01*
X1409598Y6381851D01*
X1417320Y6370320D01*
X1426413Y6359906D01*
X1436827Y6350812D01*
X1448358Y6343091D01*
X1460804Y6336944D01*
X1473911Y6332524D01*
X1487474Y6329832D01*
G37*
G36*
X9931400Y6356756D02*
G01*
X9945420Y6357670D01*
X9959238Y6360414D01*
X9972548Y6364935D01*
X9985146Y6371183D01*
X9996881Y6379006D01*
X10007447Y6388252D01*
X10016693Y6398818D01*
X10024516Y6410553D01*
X10030764Y6423152D01*
X10035286Y6436461D01*
X10038029Y6450279D01*
X10038943Y6464300D01*
X10038029Y6478320D01*
X10035286Y6492138D01*
X10030764Y6505448D01*
X10024516Y6518046D01*
X10016693Y6529781D01*
X10007447Y6540347D01*
X9996881Y6549593D01*
X9985146Y6557416D01*
X9972548Y6563664D01*
X9959238Y6568186D01*
X9945420Y6570929D01*
X9931400Y6571843D01*
X9917379Y6570929D01*
X9903561Y6568186D01*
X9890252Y6563664D01*
X9877653Y6557416D01*
X9865918Y6549593D01*
X9855352Y6540347D01*
X9846106Y6529781D01*
X9838283Y6518046D01*
X9832035Y6505448D01*
X9827514Y6492138D01*
X9824770Y6478320D01*
X9823856Y6464300D01*
X9824770Y6450279D01*
X9827514Y6436461D01*
X9832035Y6423152D01*
X9838283Y6410553D01*
X9846106Y6398818D01*
X9855352Y6388252D01*
X9865918Y6379006D01*
X9877653Y6371183D01*
X9890252Y6364935D01*
X9903561Y6360414D01*
X9917379Y6357670D01*
G37*

%LPD*%
D10*
X7391402Y4432302D02*
G01*
X7050407Y4773297D01*
X4157804Y4773297D01*
X4041320Y4656813D01*
D11*
X7391402Y6464302D02*
G01*
X7275502Y6580202D01*
X1900735Y6580202D01*
X1755320Y6434787D01*
X7391405Y6210300D02*
G01*
X6883400Y6210300D01*
X6807200Y6286500D01*
X5819292Y6434785D02*
G01*
X5819292Y6258407D01*
X5981700Y6096000D01*
X4838700Y3009900D02*
G01*
X4838700Y3530600D01*
X4635500Y3733800D01*
X1993900Y3695700D02*
G01*
X1993900Y3429000D01*
X2184400Y3238500D01*
D12*
G01*
X4838700Y3009900D03*
G01*
X4457700Y3009900D03*
D13*
G01*
X6327292Y4656810D03*
G01*
X6073292Y4656810D03*
D14*
G01*
X5819292Y4656810D03*
D13*
G01*
X5565292Y4656810D03*
G01*
X5311292Y4656810D03*
G01*
X5057292Y4656810D03*
G01*
X4803292Y4656810D03*
D14*
G01*
X4549317Y4656810D03*
D13*
G01*
X4295317Y4656810D03*
G01*
X4041317Y4656810D03*
G01*
X1501317Y4656810D03*
G01*
X1755317Y4656810D03*
D14*
G01*
X2009317Y4656810D03*
D13*
G01*
X2263317Y4656810D03*
G01*
X2517317Y4656810D03*
G01*
X2771317Y4656810D03*
G01*
X3025317Y4656810D03*
D14*
G01*
X3279317Y4656810D03*
D13*
G01*
X3533317Y4656810D03*
G01*
X3787317Y4656810D03*
G01*
X3787317Y6434785D03*
G01*
X3533317Y6434785D03*
D14*
G01*
X3279317Y6434785D03*
D13*
G01*
X3025317Y6434785D03*
G01*
X2771317Y6434785D03*
G01*
X2517317Y6434785D03*
G01*
X2263317Y6434785D03*
D14*
G01*
X2009317Y6434785D03*
D13*
G01*
X1755317Y6434785D03*
G01*
X1501317Y6434785D03*
G01*
X4041317Y6434785D03*
G01*
X4295317Y6434785D03*
D14*
G01*
X4549317Y6434785D03*
D13*
G01*
X4803292Y6434785D03*
G01*
X5057292Y6434785D03*
G01*
X5311292Y6434785D03*
G01*
X5565292Y6434785D03*
D14*
G01*
X5819292Y6434785D03*
D13*
G01*
X6073292Y6434785D03*
G01*
X6327292Y6434785D03*
D15*
G01*
X7391405Y6464300D03*
G01*
X7391405Y6210300D03*
G01*
X7391405Y5956300D03*
G01*
X7391405Y5702300D03*
G01*
X7391405Y5448300D03*
G01*
X7391405Y5194300D03*
G01*
X7391405Y4940300D03*
G01*
X7391405Y4686300D03*
G01*
X7391405Y4432300D03*
G01*
X9931405Y6464300D03*
G01*
X9931405Y6210300D03*
G01*
X9931405Y5956300D03*
G01*
X9931405Y5702300D03*
G01*
X9931405Y5448300D03*
D17*
G01*
X2755900Y3695700D03*
G01*
X2501900Y3695700D03*
G01*
X2247900Y3695700D03*
G01*
X1993900Y3695700D03*
G01*
X1739900Y3695700D03*
G01*
X1485900Y3695700D03*
D18*
G01*
X2184400Y3238500D03*
G01*
X4635500Y3733800D03*
G01*
X5981700Y6096000D03*
G01*
X6807200Y6286500D03*
M02*
