G04 Layer: BottomLayer*
G04 EasyEDA v6.5.54, 2026-02-28 13:51:01*
G04 7712b455386f42aea1306104f3d7de7a,3c0a2ecc023845ba9696b03a0d16ddfb,10*
G04 Gerber Generator version 0.2*
G04 Scale: 100 percent, Rotated: No, Reflected: No *
G04 Dimensions in millimeters *
G04 leading zeros omitted , absolute positions ,4 integer and 5 decimal *
%FSLAX45Y45*%
%MOMM*%

%ADD10C,0.3000*%
%ADD11C,1.0000*%
%ADD12C,2.5000*%
%ADD13C,1.6000*%
%ADD14R,1.6000X1.6000*%
%ADD15C,1.6330*%
%ADD16C,1.5240*%
%ADD17C,0.0126*%
%ADD18C,0.6200*%

%LPD*%
D10*
X1485902Y3695702D02*
G01*
X2406881Y4616681D01*
X2406881Y4703828D01*
X3392426Y5689373D01*
X4565881Y5689373D01*
X5311294Y6434787D01*
D11*
X2755902Y3599614D02*
G01*
X2755902Y3695702D01*
X1755320Y6434787D02*
G01*
X1338455Y6017922D01*
X1338455Y3628798D01*
X1472846Y3494407D01*
X2650695Y3494407D01*
X2755902Y3599614D01*
X2755902Y3599614D02*
G01*
X3867990Y3599614D01*
X4457702Y3009902D01*
D10*
X2501902Y3695702D02*
G01*
X3032940Y4226740D01*
X3528595Y4226740D01*
X3914269Y4612413D01*
X3914269Y4696462D01*
X5511700Y6293893D01*
X5932401Y6293893D01*
X6073294Y6434787D01*
X6327294Y6434787D02*
G01*
X6233670Y6434787D01*
X5684497Y5885614D01*
X5356710Y5885614D01*
X4168320Y4697224D01*
X4168320Y4618509D01*
X3492273Y3942463D01*
X2851939Y3942463D01*
X2611528Y3702052D01*
X2611528Y3645588D01*
X2544853Y3578913D01*
X2364691Y3578913D01*
X2247902Y3695702D01*
X1739902Y3695702D02*
G01*
X2443609Y4399409D01*
X3447417Y4399409D01*
X3660320Y4612312D01*
X3660320Y4696614D01*
X4653079Y5689373D01*
X4819881Y5689373D01*
X5565294Y6434787D01*
X7391402Y5702302D02*
G01*
X5340809Y5702302D01*
X4295320Y4656813D01*
X7391402Y5194302D02*
G01*
X7513373Y5072331D01*
X7513373Y4884549D01*
X7457086Y4828263D01*
X5482744Y4828263D01*
X5311294Y4656813D01*
X7391402Y5448302D02*
G01*
X5594784Y5448302D01*
X4803294Y4656813D01*
X7391402Y4940302D02*
G01*
X5340784Y4940302D01*
X5057294Y4656813D01*
X7391402Y4686302D02*
G01*
X7298336Y4779368D01*
X5687849Y4779368D01*
X5565294Y4656813D01*
D12*
G01*
X4838700Y3009900D03*
G01*
X4457700Y3009900D03*
D13*
G01*
X6327292Y4656810D03*
G01*
X6073292Y4656810D03*
D14*
G01*
X5819292Y4656810D03*
D13*
G01*
X5565292Y4656810D03*
G01*
X5311292Y4656810D03*
G01*
X5057292Y4656810D03*
G01*
X4803292Y4656810D03*
D14*
G01*
X4549317Y4656810D03*
D13*
G01*
X4295317Y4656810D03*
G01*
X4041317Y4656810D03*
G01*
X1501317Y4656810D03*
G01*
X1755317Y4656810D03*
D14*
G01*
X2009317Y4656810D03*
D13*
G01*
X2263317Y4656810D03*
G01*
X2517317Y4656810D03*
G01*
X2771317Y4656810D03*
G01*
X3025317Y4656810D03*
D14*
G01*
X3279317Y4656810D03*
D13*
G01*
X3533317Y4656810D03*
G01*
X3787317Y4656810D03*
G01*
X3787317Y6434785D03*
G01*
X3533317Y6434785D03*
D14*
G01*
X3279317Y6434785D03*
D13*
G01*
X3025317Y6434785D03*
G01*
X2771317Y6434785D03*
G01*
X2517317Y6434785D03*
G01*
X2263317Y6434785D03*
D14*
G01*
X2009317Y6434785D03*
D13*
G01*
X1755317Y6434785D03*
G01*
X1501317Y6434785D03*
G01*
X4041317Y6434785D03*
G01*
X4295317Y6434785D03*
D14*
G01*
X4549317Y6434785D03*
D13*
G01*
X4803292Y6434785D03*
G01*
X5057292Y6434785D03*
G01*
X5311292Y6434785D03*
G01*
X5565292Y6434785D03*
D14*
G01*
X5819292Y6434785D03*
D13*
G01*
X6073292Y6434785D03*
G01*
X6327292Y6434785D03*
D15*
G01*
X7391405Y6464300D03*
G01*
X7391405Y6210300D03*
G01*
X7391405Y5956300D03*
G01*
X7391405Y5702300D03*
G01*
X7391405Y5448300D03*
G01*
X7391405Y5194300D03*
G01*
X7391405Y4940300D03*
G01*
X7391405Y4686300D03*
G01*
X7391405Y4432300D03*
G01*
X9931405Y6464300D03*
G01*
X9931405Y6210300D03*
G01*
X9931405Y5956300D03*
G01*
X9931405Y5702300D03*
G01*
X9931405Y5448300D03*
D16*
G01*
X2755900Y3695700D03*
G01*
X2501900Y3695700D03*
G01*
X2247900Y3695700D03*
G01*
X1993900Y3695700D03*
G01*
X1739900Y3695700D03*
G01*
X1485900Y3695700D03*
D18*
G01*
X2184400Y3238500D03*
G01*
X4635500Y3733800D03*
G01*
X5981700Y6096000D03*
G01*
X6807200Y6286500D03*
M02*
