G04 Layer: TopSilkscreenLayer*
G04 EasyEDA v6.5.54, 2026-02-28 13:51:01*
G04 7712b455386f42aea1306104f3d7de7a,3c0a2ecc023845ba9696b03a0d16ddfb,10*
G04 Gerber Generator version 0.2*
G04 Scale: 100 percent, Rotated: No, Reflected: No *
G04 Dimensions in millimeters *
G04 leading zeros omitted , absolute positions ,4 integer and 5 decimal *
%FSLAX45Y45*%
%MOMM*%

%ADD10C,1.0000*%
%ADD11C,0.1524*%
%ADD12C,0.1330*%
%ADD13C,0.2540*%
%ADD14C,0.0153*%

%LPD*%
D10*
X6154165Y3781805D02*
G01*
X6117843Y3763771D01*
X6081522Y3727195D01*
X6063488Y3690873D01*
X6045200Y3636263D01*
X6045200Y3545586D01*
X6063488Y3490976D01*
X6081522Y3454654D01*
X6117843Y3418078D01*
X6154165Y3400044D01*
X6227063Y3400044D01*
X6263386Y3418078D01*
X6299708Y3454654D01*
X6317995Y3490976D01*
X6336029Y3545586D01*
X6336029Y3636263D01*
X6317995Y3690873D01*
X6299708Y3727195D01*
X6263386Y3763771D01*
X6227063Y3781805D01*
X6154165Y3781805D01*
X6456172Y3654552D02*
G01*
X6456172Y3400044D01*
X6456172Y3545586D02*
G01*
X6474206Y3599942D01*
X6510527Y3636263D01*
X6547104Y3654552D01*
X6601459Y3654552D01*
X6721602Y3781805D02*
G01*
X6739636Y3763771D01*
X6757924Y3781805D01*
X6739636Y3800094D01*
X6721602Y3781805D01*
X6739636Y3654552D02*
G01*
X6739636Y3400044D01*
X6968743Y3654552D02*
G01*
X6932422Y3636263D01*
X6896100Y3599942D01*
X6877811Y3545586D01*
X6877811Y3509010D01*
X6896100Y3454654D01*
X6932422Y3418078D01*
X6968743Y3400044D01*
X7023354Y3400044D01*
X7059675Y3418078D01*
X7095997Y3454654D01*
X7114286Y3509010D01*
X7114286Y3545586D01*
X7095997Y3599942D01*
X7059675Y3636263D01*
X7023354Y3654552D01*
X6968743Y3654552D01*
X7234174Y3654552D02*
G01*
X7234174Y3400044D01*
X7234174Y3581907D02*
G01*
X7288784Y3636263D01*
X7325106Y3654552D01*
X7379715Y3654552D01*
X7416038Y3636263D01*
X7434325Y3581907D01*
X7434325Y3400044D01*
X8106918Y3690873D02*
G01*
X8088884Y3727195D01*
X8052561Y3763771D01*
X8015986Y3781805D01*
X7943341Y3781805D01*
X7907020Y3763771D01*
X7870697Y3727195D01*
X7852409Y3690873D01*
X7834375Y3636263D01*
X7834375Y3545586D01*
X7852409Y3490976D01*
X7870697Y3454654D01*
X7907020Y3418078D01*
X7943341Y3400044D01*
X8015986Y3400044D01*
X8052561Y3418078D01*
X8088884Y3454654D01*
X8106918Y3490976D01*
X8106918Y3545586D01*
X8015986Y3545586D02*
G01*
X8106918Y3545586D01*
X8227059Y3654552D02*
G01*
X8227059Y3400044D01*
X8227059Y3545586D02*
G01*
X8245093Y3599942D01*
X8281670Y3636263D01*
X8317991Y3654552D01*
X8372347Y3654552D01*
X8583422Y3654552D02*
G01*
X8547100Y3636263D01*
X8510524Y3599942D01*
X8492490Y3545586D01*
X8492490Y3509010D01*
X8510524Y3454654D01*
X8547100Y3418078D01*
X8583422Y3400044D01*
X8638031Y3400044D01*
X8674354Y3418078D01*
X8710675Y3454654D01*
X8728709Y3509010D01*
X8728709Y3545586D01*
X8710675Y3599942D01*
X8674354Y3636263D01*
X8638031Y3654552D01*
X8583422Y3654552D01*
X8848852Y3654552D02*
G01*
X8848852Y3472687D01*
X8866886Y3418078D01*
X8903461Y3400044D01*
X8957818Y3400044D01*
X8994393Y3418078D01*
X9048750Y3472687D01*
X9048750Y3654552D02*
G01*
X9048750Y3400044D01*
X9168891Y3654552D02*
G01*
X9168891Y3400044D01*
X9168891Y3581907D02*
G01*
X9223502Y3636263D01*
X9259824Y3654552D01*
X9314179Y3654552D01*
X9350756Y3636263D01*
X9368790Y3581907D01*
X9368790Y3400044D01*
X9707118Y3781805D02*
G01*
X9707118Y3400044D01*
X9707118Y3599942D02*
G01*
X9670541Y3636263D01*
X9634220Y3654552D01*
X9579863Y3654552D01*
X9543288Y3636263D01*
X9506965Y3599942D01*
X9488931Y3545586D01*
X9488931Y3509010D01*
X9506965Y3454654D01*
X9543288Y3418078D01*
X9579863Y3400044D01*
X9634220Y3400044D01*
X9670541Y3418078D01*
X9707118Y3454654D01*
X6998208Y3117595D02*
G01*
X6961886Y3154171D01*
X6907275Y3172205D01*
X6834631Y3172205D01*
X6780022Y3154171D01*
X6743700Y3117595D01*
X6743700Y3081273D01*
X6761988Y3044952D01*
X6780022Y3026663D01*
X6816343Y3008629D01*
X6925563Y2972307D01*
X6961886Y2954020D01*
X6980174Y2935986D01*
X6998208Y2899410D01*
X6998208Y2845054D01*
X6961886Y2808478D01*
X6907275Y2790444D01*
X6834631Y2790444D01*
X6780022Y2808478D01*
X6743700Y2845054D01*
X7172706Y3172205D02*
G01*
X7172706Y2863087D01*
X7190993Y2808478D01*
X7227315Y2790444D01*
X7263638Y2790444D01*
X7118350Y3044952D02*
G01*
X7245604Y3044952D01*
X7601965Y3044952D02*
G01*
X7601965Y2790444D01*
X7601965Y2990342D02*
G01*
X7565390Y3026663D01*
X7529068Y3044952D01*
X7474711Y3044952D01*
X7438136Y3026663D01*
X7401813Y2990342D01*
X7383779Y2935986D01*
X7383779Y2899410D01*
X7401813Y2845054D01*
X7438136Y2808478D01*
X7474711Y2790444D01*
X7529068Y2790444D01*
X7565390Y2808478D01*
X7601965Y2845054D01*
X7776463Y3172205D02*
G01*
X7776463Y2863087D01*
X7794497Y2808478D01*
X7831074Y2790444D01*
X7867395Y2790444D01*
X7721854Y3044952D02*
G01*
X7849108Y3044952D01*
X7987284Y3172205D02*
G01*
X8005572Y3154171D01*
X8023606Y3172205D01*
X8005572Y3190494D01*
X7987284Y3172205D01*
X8005572Y3044952D02*
G01*
X8005572Y2790444D01*
X8234679Y3044952D02*
G01*
X8198358Y3026663D01*
X8161781Y2990342D01*
X8143747Y2935986D01*
X8143747Y2899410D01*
X8161781Y2845054D01*
X8198358Y2808478D01*
X8234679Y2790444D01*
X8289036Y2790444D01*
X8325611Y2808478D01*
X8361934Y2845054D01*
X8379968Y2899410D01*
X8379968Y2935986D01*
X8361934Y2990342D01*
X8325611Y3026663D01*
X8289036Y3044952D01*
X8234679Y3044952D01*
X8500109Y3044952D02*
G01*
X8500109Y2790444D01*
X8500109Y2972307D02*
G01*
X8554720Y3026663D01*
X8591041Y3044952D01*
X8645397Y3044952D01*
X8681974Y3026663D01*
X8700008Y2972307D01*
X8700008Y2790444D01*
D11*
X4292600Y2515615D02*
G01*
X4334256Y2406650D01*
X4375658Y2515615D02*
G01*
X4334256Y2406650D01*
X4487925Y2489707D02*
G01*
X4482845Y2500121D01*
X4472431Y2510536D01*
X4462018Y2515615D01*
X4441190Y2515615D01*
X4430775Y2510536D01*
X4420361Y2500121D01*
X4415281Y2489707D01*
X4409947Y2473960D01*
X4409947Y2448052D01*
X4415281Y2432557D01*
X4420361Y2422144D01*
X4430775Y2411729D01*
X4441190Y2406650D01*
X4462018Y2406650D01*
X4472431Y2411729D01*
X4482845Y2422144D01*
X4487925Y2432557D01*
X4600193Y2489707D02*
G01*
X4594859Y2500121D01*
X4584700Y2510536D01*
X4574286Y2515615D01*
X4553458Y2515615D01*
X4543043Y2510536D01*
X4532629Y2500121D01*
X4527550Y2489707D01*
X4522215Y2473960D01*
X4522215Y2448052D01*
X4527550Y2432557D01*
X4532629Y2422144D01*
X4543043Y2411729D01*
X4553458Y2406650D01*
X4574286Y2406650D01*
X4584700Y2411729D01*
X4594859Y2422144D01*
X4600193Y2432557D01*
X4789677Y2489707D02*
G01*
X4784343Y2500121D01*
X4773929Y2510536D01*
X4763770Y2515615D01*
X4742941Y2515615D01*
X4732527Y2510536D01*
X4722113Y2500121D01*
X4716779Y2489707D01*
X4711700Y2473960D01*
X4711700Y2448052D01*
X4716779Y2432557D01*
X4722113Y2422144D01*
X4732527Y2411729D01*
X4742941Y2406650D01*
X4763770Y2406650D01*
X4773929Y2411729D01*
X4784343Y2422144D01*
X4789677Y2432557D01*
X4789677Y2448052D01*
X4763770Y2448052D02*
G01*
X4789677Y2448052D01*
X4823968Y2515615D02*
G01*
X4823968Y2406650D01*
X4823968Y2515615D02*
G01*
X4896611Y2406650D01*
X4896611Y2515615D02*
G01*
X4896611Y2406650D01*
X4930902Y2515615D02*
G01*
X4930902Y2406650D01*
X4930902Y2515615D02*
G01*
X4967224Y2515615D01*
X4982972Y2510536D01*
X4993386Y2500121D01*
X4998465Y2489707D01*
X5003800Y2473960D01*
X5003800Y2448052D01*
X4998465Y2432557D01*
X4993386Y2422144D01*
X4982972Y2411729D01*
X4967224Y2406650D01*
X4930902Y2406650D01*
X4330700Y3518915D02*
G01*
X4330700Y3409950D01*
X4330700Y3518915D02*
G01*
X4377436Y3518915D01*
X4392929Y3513836D01*
X4398263Y3508502D01*
X4403343Y3498087D01*
X4403343Y3482594D01*
X4398263Y3472179D01*
X4392929Y3467100D01*
X4377436Y3461765D01*
X4330700Y3461765D01*
X4437634Y3518915D02*
G01*
X4463795Y3409950D01*
X4489704Y3518915D02*
G01*
X4463795Y3409950D01*
X4489704Y3518915D02*
G01*
X4515611Y3409950D01*
X4541520Y3518915D02*
G01*
X4515611Y3409950D01*
X4575809Y3518915D02*
G01*
X4575809Y3409950D01*
X4575809Y3518915D02*
G01*
X4622800Y3518915D01*
X4638293Y3513836D01*
X4643374Y3508502D01*
X4648708Y3498087D01*
X4648708Y3487673D01*
X4643374Y3477260D01*
X4638293Y3472179D01*
X4622800Y3467100D01*
X4575809Y3467100D01*
X4612386Y3467100D02*
G01*
X4648708Y3409950D01*
X1091184Y5537200D02*
G01*
X1169162Y5537200D01*
X1184655Y5542279D01*
X1195070Y5552694D01*
X1200150Y5568442D01*
X1200150Y5578855D01*
X1195070Y5594350D01*
X1184655Y5604763D01*
X1169162Y5609844D01*
X1091184Y5609844D01*
X1112012Y5644134D02*
G01*
X1106678Y5654547D01*
X1091184Y5670295D01*
X1200150Y5670295D01*
X10199121Y5448300D02*
G01*
X10121143Y5448300D01*
X10105649Y5443220D01*
X10095235Y5432805D01*
X10090155Y5417057D01*
X10090155Y5406644D01*
X10095235Y5391150D01*
X10105649Y5380736D01*
X10121143Y5375655D01*
X10199121Y5375655D01*
X10173213Y5336031D02*
G01*
X10178293Y5336031D01*
X10188707Y5330952D01*
X10194041Y5325618D01*
X10199121Y5315204D01*
X10199121Y5294629D01*
X10194041Y5284215D01*
X10188707Y5278881D01*
X10178293Y5273802D01*
X10167879Y5273802D01*
X10157465Y5278881D01*
X10141971Y5289295D01*
X10090155Y5341365D01*
X10090155Y5268468D01*
D12*
X7592131Y6554320D02*
G01*
X7506279Y6521554D01*
X7592131Y6488788D02*
G01*
X7506279Y6521554D01*
X7592131Y6461864D02*
G01*
X7506279Y6461864D01*
X7592131Y6434940D02*
G01*
X7506279Y6434940D01*
X7592131Y6434940D02*
G01*
X7506279Y6377536D01*
X7592131Y6377536D02*
G01*
X7506279Y6377536D01*
X7261745Y6262811D02*
G01*
X7269873Y6267129D01*
X7278255Y6275257D01*
X7282319Y6283385D01*
X7282319Y6299641D01*
X7278255Y6308023D01*
X7269873Y6316151D01*
X7261745Y6320215D01*
X7249553Y6324279D01*
X7228979Y6324279D01*
X7216787Y6320215D01*
X7208659Y6316151D01*
X7200531Y6308023D01*
X7196213Y6299641D01*
X7196213Y6283385D01*
X7200531Y6275257D01*
X7208659Y6267129D01*
X7216787Y6262811D01*
X7228979Y6262811D01*
X7228979Y6283385D02*
G01*
X7228979Y6262811D01*
X7282319Y6235887D02*
G01*
X7196213Y6235887D01*
X7282319Y6235887D02*
G01*
X7196213Y6178737D01*
X7282319Y6178737D02*
G01*
X7196213Y6178737D01*
X7282319Y6151559D02*
G01*
X7196213Y6151559D01*
X7282319Y6151559D02*
G01*
X7282319Y6123111D01*
X7278255Y6110665D01*
X7269873Y6102537D01*
X7261745Y6098473D01*
X7249553Y6094409D01*
X7228979Y6094409D01*
X7216787Y6098473D01*
X7208659Y6102537D01*
X7200531Y6110665D01*
X7196213Y6123111D01*
X7196213Y6151559D01*
X7592319Y6034344D02*
G01*
X7506213Y6034344D01*
X7592319Y6034344D02*
G01*
X7592319Y5981004D01*
X7551425Y6034344D02*
G01*
X7551425Y6001578D01*
X7506213Y6034344D02*
G01*
X7506213Y5981004D01*
X7592319Y5954080D02*
G01*
X7506213Y5954080D01*
X7592319Y5954080D02*
G01*
X7506213Y5896930D01*
X7592319Y5896930D02*
G01*
X7506213Y5896930D01*
X7261745Y5713034D02*
G01*
X7269873Y5717098D01*
X7278255Y5725226D01*
X7282319Y5733354D01*
X7282319Y5749864D01*
X7278255Y5757992D01*
X7269873Y5766120D01*
X7261745Y5770184D01*
X7249553Y5774248D01*
X7228979Y5774248D01*
X7216787Y5770184D01*
X7208659Y5766120D01*
X7200531Y5757992D01*
X7196213Y5749864D01*
X7196213Y5733354D01*
X7200531Y5725226D01*
X7208659Y5717098D01*
X7216787Y5713034D01*
X7228979Y5713034D01*
X7228979Y5733354D02*
G01*
X7228979Y5713034D01*
X7282319Y5661472D02*
G01*
X7278255Y5673664D01*
X7265809Y5681792D01*
X7245489Y5685856D01*
X7233043Y5685856D01*
X7212723Y5681792D01*
X7200531Y5673664D01*
X7196213Y5661472D01*
X7196213Y5653090D01*
X7200531Y5640898D01*
X7212723Y5632770D01*
X7233043Y5628706D01*
X7245489Y5628706D01*
X7265809Y5632770D01*
X7278255Y5640898D01*
X7282319Y5653090D01*
X7282319Y5661472D01*
X7579873Y5506907D02*
G01*
X7588255Y5515289D01*
X7592319Y5527481D01*
X7592319Y5543737D01*
X7588255Y5556183D01*
X7579873Y5564311D01*
X7571745Y5564311D01*
X7563617Y5560247D01*
X7559553Y5556183D01*
X7555489Y5548055D01*
X7547107Y5523417D01*
X7543043Y5515289D01*
X7538979Y5511225D01*
X7530851Y5506907D01*
X7518659Y5506907D01*
X7510531Y5515289D01*
X7506213Y5527481D01*
X7506213Y5543737D01*
X7510531Y5556183D01*
X7518659Y5564311D01*
X7571745Y5418769D02*
G01*
X7579873Y5422833D01*
X7588255Y5430961D01*
X7592319Y5439089D01*
X7592319Y5455599D01*
X7588255Y5463727D01*
X7579873Y5471855D01*
X7571745Y5475919D01*
X7559553Y5479983D01*
X7538979Y5479983D01*
X7526787Y5475919D01*
X7518659Y5471855D01*
X7510531Y5463727D01*
X7506213Y5455599D01*
X7506213Y5439089D01*
X7510531Y5430961D01*
X7518659Y5422833D01*
X7526787Y5418769D01*
X7592319Y5391591D02*
G01*
X7506213Y5391591D01*
X7592319Y5334441D02*
G01*
X7534915Y5391591D01*
X7555489Y5371271D02*
G01*
X7506213Y5334441D01*
X7282319Y5314375D02*
G01*
X7196213Y5314375D01*
X7282319Y5314375D02*
G01*
X7196213Y5281609D01*
X7282319Y5248843D02*
G01*
X7196213Y5281609D01*
X7282319Y5248843D02*
G01*
X7196213Y5248843D01*
X7282319Y5221919D02*
G01*
X7196213Y5221919D01*
X7269873Y5137591D02*
G01*
X7278255Y5145719D01*
X7282319Y5157911D01*
X7282319Y5174421D01*
X7278255Y5186613D01*
X7269873Y5194741D01*
X7261745Y5194741D01*
X7253617Y5190677D01*
X7249553Y5186613D01*
X7245489Y5178485D01*
X7237107Y5153847D01*
X7233043Y5145719D01*
X7228979Y5141655D01*
X7220851Y5137591D01*
X7208659Y5137591D01*
X7200531Y5145719D01*
X7196213Y5157911D01*
X7196213Y5174421D01*
X7200531Y5186613D01*
X7208659Y5194741D01*
X7282319Y5086029D02*
G01*
X7278255Y5094157D01*
X7269873Y5102285D01*
X7261745Y5106603D01*
X7249553Y5110667D01*
X7228979Y5110667D01*
X7216787Y5106603D01*
X7208659Y5102285D01*
X7200531Y5094157D01*
X7196213Y5086029D01*
X7196213Y5069773D01*
X7200531Y5061391D01*
X7208659Y5053263D01*
X7216787Y5049199D01*
X7228979Y5045135D01*
X7249553Y5045135D01*
X7261745Y5049199D01*
X7269873Y5053263D01*
X7278255Y5061391D01*
X7282319Y5069773D01*
X7282319Y5086029D01*
X7592319Y5074279D02*
G01*
X7506213Y5074279D01*
X7592319Y5074279D02*
G01*
X7506213Y5041513D01*
X7592319Y5008747D02*
G01*
X7506213Y5041513D01*
X7592319Y5008747D02*
G01*
X7506213Y5008747D01*
X7592319Y4957185D02*
G01*
X7588255Y4965567D01*
X7579873Y4973695D01*
X7571745Y4977759D01*
X7559553Y4981823D01*
X7538979Y4981823D01*
X7526787Y4977759D01*
X7518659Y4973695D01*
X7510531Y4965567D01*
X7506213Y4957185D01*
X7506213Y4940929D01*
X7510531Y4932801D01*
X7518659Y4924673D01*
X7526787Y4920609D01*
X7538979Y4916291D01*
X7559553Y4916291D01*
X7571745Y4920609D01*
X7579873Y4924673D01*
X7588255Y4932801D01*
X7592319Y4940929D01*
X7592319Y4957185D01*
X7579873Y4832217D02*
G01*
X7588255Y4840345D01*
X7592319Y4852537D01*
X7592319Y4869047D01*
X7588255Y4881239D01*
X7579873Y4889367D01*
X7571745Y4889367D01*
X7563617Y4885303D01*
X7559553Y4881239D01*
X7555489Y4873111D01*
X7547107Y4848473D01*
X7543043Y4840345D01*
X7538979Y4836281D01*
X7530851Y4832217D01*
X7518659Y4832217D01*
X7510531Y4840345D01*
X7506213Y4852537D01*
X7506213Y4869047D01*
X7510531Y4881239D01*
X7518659Y4889367D01*
X7592319Y4805039D02*
G01*
X7506213Y4805039D01*
X7261745Y4692876D02*
G01*
X7269873Y4696940D01*
X7278255Y4705322D01*
X7282319Y4713450D01*
X7282319Y4729706D01*
X7278255Y4737834D01*
X7269873Y4746216D01*
X7261745Y4750280D01*
X7249553Y4754344D01*
X7228979Y4754344D01*
X7216787Y4750280D01*
X7208659Y4746216D01*
X7200531Y4737834D01*
X7196213Y4729706D01*
X7196213Y4713450D01*
X7200531Y4705322D01*
X7208659Y4696940D01*
X7216787Y4692876D01*
X7269873Y4608548D02*
G01*
X7278255Y4616930D01*
X7282319Y4629122D01*
X7282319Y4645378D01*
X7278255Y4657824D01*
X7269873Y4665952D01*
X7261745Y4665952D01*
X7253617Y4661888D01*
X7249553Y4657824D01*
X7245489Y4649696D01*
X7237107Y4625058D01*
X7233043Y4616930D01*
X7228979Y4612866D01*
X7220851Y4608548D01*
X7208659Y4608548D01*
X7200531Y4616930D01*
X7196213Y4629122D01*
X7196213Y4645378D01*
X7200531Y4657824D01*
X7208659Y4665952D01*
X7592319Y4544247D02*
G01*
X7506213Y4544247D01*
X7592319Y4544247D02*
G01*
X7592319Y4507417D01*
X7588255Y4495225D01*
X7583937Y4491161D01*
X7575809Y4487097D01*
X7567681Y4487097D01*
X7559553Y4491161D01*
X7555489Y4495225D01*
X7551425Y4507417D01*
X7551425Y4544247D01*
X7551425Y4515545D02*
G01*
X7506213Y4487097D01*
X7579873Y4402769D02*
G01*
X7588255Y4410897D01*
X7592319Y4423089D01*
X7592319Y4439599D01*
X7588255Y4451791D01*
X7579873Y4459919D01*
X7571745Y4459919D01*
X7563617Y4455855D01*
X7559553Y4451791D01*
X7555489Y4443663D01*
X7547107Y4419025D01*
X7543043Y4410897D01*
X7538979Y4406833D01*
X7530851Y4402769D01*
X7518659Y4402769D01*
X7510531Y4410897D01*
X7506213Y4423089D01*
X7506213Y4439599D01*
X7510531Y4451791D01*
X7518659Y4459919D01*
X7592319Y4347143D02*
G01*
X7506213Y4347143D01*
X7592319Y4375845D02*
G01*
X7592319Y4318441D01*
X9801865Y6473002D02*
G01*
X9809993Y6477066D01*
X9818121Y6485194D01*
X9822185Y6493322D01*
X9822185Y6509832D01*
X9818121Y6517960D01*
X9809993Y6526088D01*
X9801865Y6530152D01*
X9789419Y6534216D01*
X9769099Y6534216D01*
X9756653Y6530152D01*
X9748525Y6526088D01*
X9740397Y6517960D01*
X9736333Y6509832D01*
X9736333Y6493322D01*
X9740397Y6485194D01*
X9748525Y6477066D01*
X9756653Y6473002D01*
X9769099Y6473002D01*
X9769099Y6493322D02*
G01*
X9769099Y6473002D01*
X9805929Y6445824D02*
G01*
X9809993Y6437696D01*
X9822185Y6425504D01*
X9736333Y6425504D01*
X9801865Y6222839D02*
G01*
X9809993Y6226903D01*
X9818121Y6235285D01*
X9822185Y6243413D01*
X9822185Y6259669D01*
X9818121Y6268051D01*
X9809993Y6276179D01*
X9801865Y6280243D01*
X9789419Y6284307D01*
X9769099Y6284307D01*
X9756653Y6280243D01*
X9748525Y6276179D01*
X9740397Y6268051D01*
X9736333Y6259669D01*
X9736333Y6243413D01*
X9740397Y6235285D01*
X9748525Y6226903D01*
X9756653Y6222839D01*
X9769099Y6222839D01*
X9769099Y6243413D02*
G01*
X9769099Y6222839D01*
X9801865Y6191851D02*
G01*
X9805929Y6191851D01*
X9814057Y6187787D01*
X9818121Y6183723D01*
X9822185Y6175595D01*
X9822185Y6159085D01*
X9818121Y6150957D01*
X9814057Y6146893D01*
X9805929Y6142829D01*
X9797547Y6142829D01*
X9789419Y6146893D01*
X9777227Y6155021D01*
X9736333Y6195915D01*
X9736333Y6138765D01*
X9801865Y5972903D02*
G01*
X9809993Y5976967D01*
X9818121Y5985095D01*
X9822185Y5993477D01*
X9822185Y6009733D01*
X9818121Y6017861D01*
X9809993Y6026243D01*
X9801865Y6030307D01*
X9789419Y6034371D01*
X9769099Y6034371D01*
X9756653Y6030307D01*
X9748525Y6026243D01*
X9740397Y6017861D01*
X9736333Y6009733D01*
X9736333Y5993477D01*
X9740397Y5985095D01*
X9748525Y5976967D01*
X9756653Y5972903D01*
X9769099Y5972903D01*
X9769099Y5993477D02*
G01*
X9769099Y5972903D01*
X9822185Y5937851D02*
G01*
X9822185Y5892639D01*
X9789419Y5917277D01*
X9789419Y5905085D01*
X9785355Y5896957D01*
X9781291Y5892639D01*
X9769099Y5888575D01*
X9760971Y5888575D01*
X9748525Y5892639D01*
X9740397Y5901021D01*
X9736333Y5913213D01*
X9736333Y5925405D01*
X9740397Y5937851D01*
X9744461Y5941915D01*
X9752589Y5945979D01*
X9801865Y5713061D02*
G01*
X9809993Y5717125D01*
X9818121Y5725253D01*
X9822185Y5733381D01*
X9822185Y5749637D01*
X9818121Y5758019D01*
X9809993Y5766147D01*
X9801865Y5770211D01*
X9789419Y5774275D01*
X9769099Y5774275D01*
X9756653Y5770211D01*
X9748525Y5766147D01*
X9740397Y5758019D01*
X9736333Y5749637D01*
X9736333Y5733381D01*
X9740397Y5725253D01*
X9748525Y5717125D01*
X9756653Y5713061D01*
X9769099Y5713061D01*
X9769099Y5733381D02*
G01*
X9769099Y5713061D01*
X9822185Y5644989D02*
G01*
X9765035Y5685883D01*
X9765035Y5624669D01*
X9822185Y5644989D02*
G01*
X9736333Y5644989D01*
X9801865Y5462965D02*
G01*
X9809993Y5467029D01*
X9818121Y5475157D01*
X9822185Y5483285D01*
X9822185Y5499795D01*
X9818121Y5507923D01*
X9809993Y5516051D01*
X9801865Y5520115D01*
X9789419Y5524179D01*
X9769099Y5524179D01*
X9756653Y5520115D01*
X9748525Y5516051D01*
X9740397Y5507923D01*
X9736333Y5499795D01*
X9736333Y5483285D01*
X9740397Y5475157D01*
X9748525Y5467029D01*
X9756653Y5462965D01*
X9769099Y5462965D01*
X9769099Y5483285D02*
G01*
X9769099Y5462965D01*
X9822185Y5386765D02*
G01*
X9822185Y5427659D01*
X9785355Y5431723D01*
X9789419Y5427659D01*
X9793483Y5415467D01*
X9793483Y5403275D01*
X9789419Y5390829D01*
X9781291Y5382701D01*
X9769099Y5378637D01*
X9760971Y5378637D01*
X9748525Y5382701D01*
X9740397Y5390829D01*
X9736333Y5403275D01*
X9736333Y5415467D01*
X9740397Y5427659D01*
X9744461Y5431723D01*
X9752589Y5436041D01*
X8996281Y6105039D02*
G01*
X8840325Y6164221D01*
X8996281Y6105039D02*
G01*
X8840325Y6045603D01*
X8892395Y6142123D02*
G01*
X8892395Y6067701D01*
X8996281Y5996581D02*
G01*
X8840325Y5996581D01*
X8996281Y5996581D02*
G01*
X8996281Y5944511D01*
X8988661Y5922413D01*
X8973929Y5907427D01*
X8959197Y5900061D01*
X8936845Y5892695D01*
X8899761Y5892695D01*
X8877409Y5900061D01*
X8862677Y5907427D01*
X8847691Y5922413D01*
X8840325Y5944511D01*
X8840325Y5996581D01*
X8996281Y5784237D02*
G01*
X8840325Y5843673D01*
X8996281Y5784237D02*
G01*
X8840325Y5724801D01*
X8892395Y5821321D02*
G01*
X8892395Y5747153D01*
X8996281Y5675779D02*
G01*
X8840325Y5675779D01*
X8996281Y5675779D02*
G01*
X8996281Y5579513D01*
X8921859Y5675779D02*
G01*
X8921859Y5616597D01*
X8996281Y5530491D02*
G01*
X8840325Y5530491D01*
X8996281Y5530491D02*
G01*
X8996281Y5463689D01*
X8988661Y5441337D01*
X8981295Y5433971D01*
X8966563Y5426605D01*
X8951577Y5426605D01*
X8936845Y5433971D01*
X8929479Y5441337D01*
X8921859Y5463689D01*
X8921859Y5530491D01*
X8921859Y5478421D02*
G01*
X8840325Y5426605D01*
X8996281Y5377583D02*
G01*
X8884775Y5377583D01*
X8862677Y5369963D01*
X8847691Y5355231D01*
X8840325Y5332879D01*
X8840325Y5318147D01*
X8847691Y5295795D01*
X8862677Y5281063D01*
X8884775Y5273697D01*
X8996281Y5273697D01*
X8996281Y5224675D02*
G01*
X8840325Y5224675D01*
X8996281Y5123583D02*
G01*
X8840325Y5123583D01*
X8996281Y5175653D02*
G01*
X8996281Y5071767D01*
X8731359Y6164221D02*
G01*
X8575403Y6164221D01*
X8731359Y6164221D02*
G01*
X8731359Y6097419D01*
X8723739Y6075321D01*
X8716373Y6067701D01*
X8701641Y6060335D01*
X8686655Y6060335D01*
X8671923Y6067701D01*
X8664557Y6075321D01*
X8656937Y6097419D01*
X8656937Y6164221D01*
X8656937Y6112405D02*
G01*
X8575403Y6060335D01*
X8731359Y6011313D02*
G01*
X8575403Y6011313D01*
X8731359Y6011313D02*
G01*
X8731359Y5914793D01*
X8656937Y6011313D02*
G01*
X8656937Y5952131D01*
X8731359Y5866025D02*
G01*
X8575403Y5866025D01*
X8731359Y5866025D02*
G01*
X8575403Y5806589D01*
X8731359Y5747153D02*
G01*
X8575403Y5806589D01*
X8731359Y5747153D02*
G01*
X8575403Y5747153D01*
X8679289Y5601611D02*
G01*
X8656937Y5608977D01*
X8642205Y5623963D01*
X8634839Y5646315D01*
X8634839Y5653681D01*
X8642205Y5675779D01*
X8656937Y5690765D01*
X8679289Y5698131D01*
X8686655Y5698131D01*
X8709007Y5690765D01*
X8723739Y5675779D01*
X8731359Y5653681D01*
X8731359Y5646315D01*
X8723739Y5623963D01*
X8709007Y5608977D01*
X8679289Y5601611D01*
X8642205Y5601611D01*
X8605121Y5608977D01*
X8582769Y5623963D01*
X8575403Y5646315D01*
X8575403Y5661047D01*
X8582769Y5683399D01*
X8597755Y5690765D01*
X8731359Y5463689D02*
G01*
X8731359Y5537857D01*
X8664557Y5545223D01*
X8671923Y5537857D01*
X8679289Y5515505D01*
X8679289Y5493407D01*
X8671923Y5471055D01*
X8656937Y5456069D01*
X8634839Y5448703D01*
X8619853Y5448703D01*
X8597755Y5456069D01*
X8582769Y5471055D01*
X8575403Y5493407D01*
X8575403Y5515505D01*
X8582769Y5537857D01*
X8590135Y5545223D01*
X8605121Y5552589D01*
X8731359Y5399681D02*
G01*
X8575403Y5362597D01*
X8731359Y5325513D02*
G01*
X8575403Y5362597D01*
X8731359Y5325513D02*
G01*
X8575403Y5288429D01*
X8731359Y5251345D02*
G01*
X8575403Y5288429D01*
X8466437Y6164221D02*
G01*
X8310481Y6164221D01*
X8310481Y6164221D02*
G01*
X8310481Y6075321D01*
X8414367Y5989215D02*
G01*
X8407001Y6003947D01*
X8392269Y6018933D01*
X8369917Y6026299D01*
X8354931Y6026299D01*
X8332833Y6018933D01*
X8317847Y6003947D01*
X8310481Y5989215D01*
X8310481Y5966863D01*
X8317847Y5952131D01*
X8332833Y5937145D01*
X8354931Y5929779D01*
X8369917Y5929779D01*
X8392269Y5937145D01*
X8407001Y5952131D01*
X8414367Y5966863D01*
X8414367Y5989215D01*
X8466437Y5880757D02*
G01*
X8310481Y5880757D01*
X8466437Y5880757D02*
G01*
X8466437Y5813955D01*
X8459071Y5791603D01*
X8451451Y5784237D01*
X8436719Y5776871D01*
X8421733Y5776871D01*
X8407001Y5784237D01*
X8399635Y5791603D01*
X8392269Y5813955D01*
X8392269Y5880757D01*
X8392269Y5828687D02*
G01*
X8310481Y5776871D01*
X8414367Y5638695D02*
G01*
X8310481Y5638695D01*
X8392269Y5638695D02*
G01*
X8407001Y5653681D01*
X8414367Y5668413D01*
X8414367Y5690765D01*
X8407001Y5705497D01*
X8392269Y5720483D01*
X8369917Y5727849D01*
X8354931Y5727849D01*
X8332833Y5720483D01*
X8317847Y5705497D01*
X8310481Y5690765D01*
X8310481Y5668413D01*
X8317847Y5653681D01*
X8332833Y5638695D01*
X8414367Y5378853D02*
G01*
X8392269Y5386473D01*
X8377283Y5401205D01*
X8369917Y5423557D01*
X8369917Y5430923D01*
X8377283Y5453275D01*
X8392269Y5468007D01*
X8414367Y5475373D01*
X8421733Y5475373D01*
X8444085Y5468007D01*
X8459071Y5453275D01*
X8466437Y5430923D01*
X8466437Y5423557D01*
X8459071Y5401205D01*
X8444085Y5386473D01*
X8414367Y5378853D01*
X8377283Y5378853D01*
X8340199Y5386473D01*
X8317847Y5401205D01*
X8310481Y5423557D01*
X8310481Y5438289D01*
X8317847Y5460641D01*
X8332833Y5468007D01*
X8466437Y5285381D02*
G01*
X8459071Y5307733D01*
X8436719Y5322465D01*
X8399635Y5330085D01*
X8377283Y5330085D01*
X8340199Y5322465D01*
X8317847Y5307733D01*
X8310481Y5285381D01*
X8310481Y5270649D01*
X8317847Y5248297D01*
X8340199Y5233565D01*
X8377283Y5225945D01*
X8399635Y5225945D01*
X8436719Y5233565D01*
X8459071Y5248297D01*
X8466437Y5270649D01*
X8466437Y5285381D01*
X8466437Y5132473D02*
G01*
X8459071Y5154825D01*
X8436719Y5169557D01*
X8399635Y5177177D01*
X8377283Y5177177D01*
X8340199Y5169557D01*
X8317847Y5154825D01*
X8310481Y5132473D01*
X8310481Y5117741D01*
X8317847Y5095389D01*
X8340199Y5080657D01*
X8377283Y5073291D01*
X8399635Y5073291D01*
X8436719Y5080657D01*
X8459071Y5095389D01*
X8466437Y5117741D01*
X8466437Y5132473D01*
X8466437Y5024269D02*
G01*
X8310481Y5024269D01*
X8466437Y5024269D02*
G01*
X8310481Y4964833D01*
X8466437Y4905397D02*
G01*
X8310481Y4964833D01*
X8466437Y4905397D02*
G01*
X8310481Y4905397D01*
X8466437Y4856375D02*
G01*
X8310481Y4856375D01*
X8466437Y4752489D02*
G01*
X8310481Y4752489D01*
X8392269Y4856375D02*
G01*
X8392269Y4752489D01*
X8414367Y4621933D02*
G01*
X8310481Y4703467D01*
X8414367Y4703467D02*
G01*
X8414367Y4621933D01*
X8310481Y4703467D02*
G01*
X8310481Y4621933D01*
D11*
X3023615Y3111500D02*
G01*
X2945638Y3111500D01*
X2930143Y3106420D01*
X2919729Y3096005D01*
X2914650Y3080257D01*
X2914650Y3069844D01*
X2919729Y3054350D01*
X2930143Y3043936D01*
X2945638Y3038855D01*
X3023615Y3038855D01*
X3023615Y2994152D02*
G01*
X3023615Y2937002D01*
X2981959Y2967989D01*
X2981959Y2952495D01*
X2976879Y2942081D01*
X2971800Y2937002D01*
X2956052Y2931668D01*
X2945638Y2931668D01*
X2930143Y2937002D01*
X2919729Y2947415D01*
X2914650Y2962910D01*
X2914650Y2978404D01*
X2919729Y2994152D01*
X2924809Y2999231D01*
X2935224Y3004565D01*
D13*
X4227697Y2609900D02*
G01*
X5068699Y2609900D01*
X4227697Y3349896D02*
G01*
X5068702Y3349899D01*
X5068702Y3349899D02*
G01*
X5068702Y2609900D01*
X4227697Y3349896D02*
G01*
X4227697Y2609900D01*
X4227697Y2709900D02*
G01*
X5068702Y2709900D01*
X4227697Y2804459D02*
G01*
X5068702Y2804459D01*
X4305505Y2609900D02*
G01*
X4305769Y2609900D01*
X4405769Y2709900D01*
X4508037Y2709900D02*
G01*
X4508969Y2709900D01*
X4608969Y2609900D01*
X4688509Y2609900D02*
G01*
X4691448Y2609900D01*
X4791448Y2709900D01*
X4904409Y2709900D02*
G01*
X4904409Y2703479D01*
X4997988Y2609900D01*
X4227697Y3262061D02*
G01*
X5068702Y3262061D01*
X4227697Y3187674D02*
G01*
X5068702Y3187674D01*
X4227697Y3305604D02*
G01*
X5068702Y3305604D01*
X1364310Y4495800D02*
G01*
X1364310Y6595795D01*
X6464300Y6595795D02*
G01*
X1364310Y6595795D01*
X6464300Y4495800D02*
G01*
X6464300Y6595795D01*
X6464300Y4495800D02*
G01*
X1364310Y4495800D01*
X1234312Y5145811D02*
G01*
X1234312Y5945809D01*
X1834311Y5945809D01*
X1834311Y5145811D01*
X1234312Y5145811D01*
X7391405Y4178305D02*
G01*
X9804400Y4178305D01*
X10058400Y4432305D02*
G01*
X10058400Y6464300D01*
X7391405Y6718300D02*
G01*
X9804400Y6718300D01*
X7137405Y6464300D02*
G01*
X7137405Y4432305D01*
D12*
X9091401Y6274307D02*
G01*
X9091401Y4549317D01*
X8201411Y4549317D01*
X8201411Y6274307D01*
X9091401Y6274307D01*
D13*
X1355852Y2395728D02*
G01*
X2855899Y2395728D01*
X2795777Y3815587D02*
G01*
X2755900Y3815587D01*
X2755900Y3815587D01*
X1355852Y3815587D01*
X1355852Y2395728D01*
X2875788Y2395728D01*
X2875788Y3815842D01*
X2855975Y3815842D01*
X2795899Y3815699D02*
G01*
X2855975Y3815699D01*
G75*
G01*
X10058400Y6464300D02*
G03*
X9804400Y6718300I-254000J0D01*
G75*
G01*
X7391405Y6718300D02*
G03*
X7137405Y6464300I0J-254000D01*
G75*
G01*
X7137405Y4432305D02*
G03*
X7391405Y4178305I254000J0D01*
G75*
G01*
X9804400Y4178305D02*
G03*
X10058400Y4432305I0J254000D01*
M02*
