M48
METRIC,LZ,000.000
;FILE_FORMAT=3:3
;TYPE=PLATED
;Layer: PTH_Through_Via
;EasyEDA v6.5.54, 2026-03-01 00:31:17
;5ffec7154e454e17ae970ef37a63e625,3c0a2ecc023845ba9696b03a0d16ddfb,10
;Gerber Generator version 0.2
;Holesize 1 = 0.306 mm
T01C0.306
;Holesize 2 = 0.310 mm
T02C0.310
%
G05
G90
T01
X029641Y018094
X025527Y022208
X023205Y001433
X037397Y022306
X037267Y007788
X014760Y026862
X033012Y006100
X040766Y002027
X034678Y007243
X034028Y009458
T02
X015240Y-004064
X012192Y-021463
X011557Y-025019
X022860Y-019812
X028575Y-020066
X039624Y-020574
X045974Y-021209
X055753Y-014478
X035179Y050292
X017653Y052678
X027686Y053848
M30
