M48
METRIC,LZ,000.000
;FILE_FORMAT=3:3
;TYPE=PLATED
;Layer: PTH_Through
;EasyEDA v6.5.54, 2026-03-01 00:31:17
;5ffec7154e454e17ae970ef37a63e625,3c0a2ecc023845ba9696b03a0d16ddfb,10
;Gerber Generator version 0.2
;Holesize 1 = 0.306 mm
T01C0.306
;Holesize 2 = 0.310 mm
T02C0.310
;Holesize 3 = 0.901 mm
T03C0.901
;Holesize 4 = 0.915 mm
T04C0.915
;Holesize 5 = 1.000 mm
T05C1.000
;Holesize 6 = 1.301 mm
T06C1.301
;Holesize 7 = 1.501 mm
T07C1.501
%
G05
G90
T01
X029641Y018094
X025527Y022208
X023205Y001433
X037397Y022306
X037267Y007788
X014760Y026862
X033012Y006100
X040766Y002027
X034678Y007243
X034028Y009458
T02
X015240Y-004064
X012192Y-021463
X011557Y-025019
X022860Y-019812
X028575Y-020066
X039624Y-020574
X045974Y-021209
X055753Y-014478
X035179Y050292
X017653Y052678
X027686Y053848
T03
X038100Y054229G85X038100Y054229
X038100Y051689G85X038100Y051689
X038100Y049149G85X038100Y049149
X038100Y046609G85X038100Y046609
X038100Y044069G85X038100Y044069
X038100Y041529G85X038100Y041529
X038100Y038989G85X038100Y038989
X038100Y036449G85X038100Y036449
T04
X020955Y-009017
X023495Y-009017
X026035Y-009017
X028575Y-009017
X031115Y-009017
X033655Y-009017
X036195Y-009017
X038735Y-009017
X041275Y-009017
X026035Y003683
X028575Y003683
X031115Y003683
X033655Y003683
X036195Y003683
X015240Y-023114
X015240Y-025654
X015240Y-028194
X023368Y-023114
X023368Y-025654
X023368Y-028194
X031750Y-023368
X031750Y-025908
X031750Y-028448
X040386Y-023368
X040386Y-025908
X040386Y-028448
X038989Y026035
X038989Y023495
X038989Y020955
X038989Y018415
X038989Y015875
T05
X013040Y009498
X013040Y012038
X013040Y014578
X013040Y017118
X013040Y019658
X013040Y022198
X013040Y024738
X013040Y027278
X013040Y029818
X013040Y032358
X013040Y057758
X013040Y055218
X013040Y052678
X013040Y050138
X013040Y047598
X013040Y045058
X013040Y042518
X013040Y039978
X013040Y037438
X013040Y034898
X030820Y034898
X030820Y037438
X030820Y039978
X030820Y042518
X030820Y045058
X030820Y047598
X030820Y050138
X030820Y052678
X030820Y055218
X030820Y057758
X030820Y032358
X030820Y029818
X030820Y027278
X030820Y024738
X030820Y022198
X030820Y019658
X030820Y017118
X030820Y014578
X030820Y012038
X030820Y009498
X038989Y028575
T06
X049402Y-013335
X049402Y-009525
X049402Y-005715
X049402Y-017145
X049530Y003429
X049530Y007239
X049530Y011049
X049530Y-000381
X013335Y-001270
X013335Y-005080
X013335Y-008890
X013335Y002540
T07
X013335Y-018161
X013335Y-014351
X050292Y-022733
X050292Y-026543
M30
