G04 Layer: TopSilkscreenLayer*
G04 EasyEDA v6.5.54, 2026-03-01 00:31:17*
G04 5ffec7154e454e17ae970ef37a63e625,3c0a2ecc023845ba9696b03a0d16ddfb,10*
G04 Gerber Generator version 0.2*
G04 Scale: 100 percent, Rotated: No, Reflected: No *
G04 Dimensions in millimeters *
G04 leading zeros omitted , absolute positions ,4 integer and 5 decimal *
%FSLAX45Y45*%
%MOMM*%

%ADD10C,1.0000*%
%ADD11C,0.1524*%
%ADD12C,0.2032*%
%ADD13C,0.1158*%
%ADD14C,0.1219*%
%ADD15C,0.2540*%
%ADD16C,0.0140*%

%LPD*%
D10*
X1963165Y6753605D02*
G01*
X1926844Y6735571D01*
X1890521Y6698995D01*
X1872487Y6662673D01*
X1854200Y6608063D01*
X1854200Y6517386D01*
X1872487Y6462776D01*
X1890521Y6426454D01*
X1926844Y6389878D01*
X1963165Y6371844D01*
X2036063Y6371844D01*
X2072386Y6389878D01*
X2108708Y6426454D01*
X2126995Y6462776D01*
X2145029Y6517386D01*
X2145029Y6608063D01*
X2126995Y6662673D01*
X2108708Y6698995D01*
X2072386Y6735571D01*
X2036063Y6753605D01*
X1963165Y6753605D01*
X2265172Y6753605D02*
G01*
X2265172Y6371844D01*
X2265172Y6753605D02*
G01*
X2428747Y6753605D01*
X2483358Y6735571D01*
X2501391Y6717284D01*
X2519679Y6680962D01*
X2519679Y6644639D01*
X2501391Y6608063D01*
X2483358Y6590029D01*
X2428747Y6571742D01*
X2265172Y6571742D01*
X2392425Y6571742D02*
G01*
X2519679Y6371844D01*
X2639568Y6753605D02*
G01*
X2639568Y6371844D01*
X2868675Y6753605D02*
G01*
X2832354Y6735571D01*
X2796031Y6698995D01*
X2777743Y6662673D01*
X2759709Y6608063D01*
X2759709Y6517386D01*
X2777743Y6462776D01*
X2796031Y6426454D01*
X2832354Y6389878D01*
X2868675Y6371844D01*
X2941574Y6371844D01*
X2977895Y6389878D01*
X3014218Y6426454D01*
X3032506Y6462776D01*
X3050540Y6517386D01*
X3050540Y6608063D01*
X3032506Y6662673D01*
X3014218Y6698995D01*
X2977895Y6735571D01*
X2941574Y6753605D01*
X2868675Y6753605D01*
X3170681Y6753605D02*
G01*
X3170681Y6371844D01*
X3170681Y6753605D02*
G01*
X3425190Y6371844D01*
X3425190Y6753605D02*
G01*
X3425190Y6371844D01*
X3824986Y6753605D02*
G01*
X3970527Y6371844D01*
X4116070Y6753605D02*
G01*
X3970527Y6371844D01*
X4254245Y6662673D02*
G01*
X4254245Y6680962D01*
X4272279Y6717284D01*
X4290568Y6735571D01*
X4326890Y6753605D01*
X4399534Y6753605D01*
X4436109Y6735571D01*
X4454143Y6717284D01*
X4472431Y6680962D01*
X4472431Y6644639D01*
X4454143Y6608063D01*
X4417822Y6553708D01*
X4235958Y6371844D01*
X4490465Y6371844D01*
D11*
X5409691Y-1395221D02*
G01*
X5399277Y-1400555D01*
X5388863Y-1410970D01*
X5383784Y-1421129D01*
X5383784Y-1441957D01*
X5388863Y-1452371D01*
X5399277Y-1462786D01*
X5409691Y-1468120D01*
X5425440Y-1473200D01*
X5451347Y-1473200D01*
X5466841Y-1468120D01*
X5477256Y-1462786D01*
X5487670Y-1452371D01*
X5492750Y-1441957D01*
X5492750Y-1421129D01*
X5487670Y-1410970D01*
X5477256Y-1400555D01*
X5466841Y-1395221D01*
X5451347Y-1395221D01*
X5451347Y-1421129D02*
G01*
X5451347Y-1395221D01*
X5383784Y-1360931D02*
G01*
X5492750Y-1360931D01*
X5383784Y-1360931D02*
G01*
X5492750Y-1288287D01*
X5383784Y-1288287D02*
G01*
X5492750Y-1288287D01*
X5383784Y-1253997D02*
G01*
X5492750Y-1253997D01*
X5383784Y-1253997D02*
G01*
X5383784Y-1217676D01*
X5388863Y-1201928D01*
X5399277Y-1191513D01*
X5409691Y-1186434D01*
X5425440Y-1181100D01*
X5451347Y-1181100D01*
X5466841Y-1186434D01*
X5477256Y-1191513D01*
X5487670Y-1201928D01*
X5492750Y-1217676D01*
X5492750Y-1253997D01*
X5396991Y-976121D02*
G01*
X5386577Y-981455D01*
X5376163Y-991870D01*
X5371084Y-1002029D01*
X5371084Y-1022857D01*
X5376163Y-1033271D01*
X5386577Y-1043686D01*
X5396991Y-1049020D01*
X5412740Y-1054100D01*
X5438647Y-1054100D01*
X5454141Y-1049020D01*
X5464556Y-1043686D01*
X5474970Y-1033271D01*
X5480050Y-1022857D01*
X5480050Y-1002029D01*
X5474970Y-991870D01*
X5464556Y-981455D01*
X5454141Y-976121D01*
X5438647Y-976121D01*
X5438647Y-1002029D02*
G01*
X5438647Y-976121D01*
X5371084Y-910589D02*
G01*
X5376163Y-926337D01*
X5391911Y-936752D01*
X5417820Y-941831D01*
X5433313Y-941831D01*
X5459475Y-936752D01*
X5474970Y-926337D01*
X5480050Y-910589D01*
X5480050Y-900429D01*
X5474970Y-884681D01*
X5459475Y-874268D01*
X5433313Y-869187D01*
X5417820Y-869187D01*
X5391911Y-874268D01*
X5376163Y-884681D01*
X5371084Y-900429D01*
X5371084Y-910589D01*
X5371084Y-736600D02*
G01*
X5480050Y-736600D01*
X5371084Y-736600D02*
G01*
X5371084Y-689863D01*
X5376163Y-674370D01*
X5381497Y-669036D01*
X5391911Y-663955D01*
X5402325Y-663955D01*
X5412740Y-669036D01*
X5417820Y-674370D01*
X5422900Y-689863D01*
X5422900Y-736600D01*
X5422900Y-700278D02*
G01*
X5480050Y-663955D01*
X5386577Y-556768D02*
G01*
X5376163Y-567181D01*
X5371084Y-582929D01*
X5371084Y-603504D01*
X5376163Y-619252D01*
X5386577Y-629665D01*
X5396991Y-629665D01*
X5407406Y-624331D01*
X5412740Y-619252D01*
X5417820Y-608837D01*
X5428234Y-577595D01*
X5433313Y-567181D01*
X5438647Y-562102D01*
X5449061Y-556768D01*
X5464556Y-556768D01*
X5474970Y-567181D01*
X5480050Y-582929D01*
X5480050Y-603504D01*
X5474970Y-619252D01*
X5464556Y-629665D01*
X5371084Y-486155D02*
G01*
X5480050Y-486155D01*
X5371084Y-522478D02*
G01*
X5371084Y-449834D01*
X5383784Y-228600D02*
G01*
X5492750Y-228600D01*
X5383784Y-228600D02*
G01*
X5492750Y-186944D01*
X5383784Y-145542D02*
G01*
X5492750Y-186944D01*
X5383784Y-145542D02*
G01*
X5492750Y-145542D01*
X5383784Y-80010D02*
G01*
X5388863Y-90423D01*
X5399277Y-100837D01*
X5409691Y-105918D01*
X5425440Y-111252D01*
X5451347Y-111252D01*
X5466841Y-105918D01*
X5477256Y-100837D01*
X5487670Y-90423D01*
X5492750Y-80010D01*
X5492750Y-59181D01*
X5487670Y-48768D01*
X5477256Y-38354D01*
X5466841Y-33273D01*
X5451347Y-27939D01*
X5425440Y-27939D01*
X5409691Y-33273D01*
X5399277Y-38354D01*
X5388863Y-48768D01*
X5383784Y-59181D01*
X5383784Y-80010D01*
X5399277Y78994D02*
G01*
X5388863Y68579D01*
X5383784Y53086D01*
X5383784Y32257D01*
X5388863Y16510D01*
X5399277Y6350D01*
X5409691Y6350D01*
X5420106Y11429D01*
X5425440Y16510D01*
X5430520Y26923D01*
X5440934Y58165D01*
X5446013Y68579D01*
X5451347Y73660D01*
X5461761Y78994D01*
X5477256Y78994D01*
X5487670Y68579D01*
X5492750Y53086D01*
X5492750Y32257D01*
X5487670Y16510D01*
X5477256Y6350D01*
X5383784Y113284D02*
G01*
X5492750Y113284D01*
X5485384Y-2882900D02*
G01*
X5594350Y-2841244D01*
X5485384Y-2799842D02*
G01*
X5594350Y-2841244D01*
X5511291Y-2687573D02*
G01*
X5500877Y-2692654D01*
X5490463Y-2703068D01*
X5485384Y-2713481D01*
X5485384Y-2734310D01*
X5490463Y-2744723D01*
X5500877Y-2755137D01*
X5511291Y-2760218D01*
X5527040Y-2765552D01*
X5552947Y-2765552D01*
X5568441Y-2760218D01*
X5578856Y-2755137D01*
X5589270Y-2744723D01*
X5594350Y-2734310D01*
X5594350Y-2713481D01*
X5589270Y-2703068D01*
X5578856Y-2692654D01*
X5568441Y-2687573D01*
X5511291Y-2575305D02*
G01*
X5500877Y-2580639D01*
X5490463Y-2590800D01*
X5485384Y-2601213D01*
X5485384Y-2622042D01*
X5490463Y-2632455D01*
X5500877Y-2642870D01*
X5511291Y-2647950D01*
X5527040Y-2653284D01*
X5552947Y-2653284D01*
X5568441Y-2647950D01*
X5578856Y-2642870D01*
X5589270Y-2632455D01*
X5594350Y-2622042D01*
X5594350Y-2601213D01*
X5589270Y-2590800D01*
X5578856Y-2580639D01*
X5568441Y-2575305D01*
X5511291Y-2360421D02*
G01*
X5500877Y-2365755D01*
X5490463Y-2376170D01*
X5485384Y-2386329D01*
X5485384Y-2407157D01*
X5490463Y-2417571D01*
X5500877Y-2427986D01*
X5511291Y-2433320D01*
X5527040Y-2438400D01*
X5552947Y-2438400D01*
X5568441Y-2433320D01*
X5578856Y-2427986D01*
X5589270Y-2417571D01*
X5594350Y-2407157D01*
X5594350Y-2386329D01*
X5589270Y-2376170D01*
X5578856Y-2365755D01*
X5568441Y-2360421D01*
X5552947Y-2360421D01*
X5552947Y-2386329D02*
G01*
X5552947Y-2360421D01*
X5485384Y-2326131D02*
G01*
X5594350Y-2326131D01*
X5485384Y-2326131D02*
G01*
X5594350Y-2253487D01*
X5485384Y-2253487D02*
G01*
X5594350Y-2253487D01*
X5485384Y-2219197D02*
G01*
X5594350Y-2219197D01*
X5485384Y-2219197D02*
G01*
X5485384Y-2182876D01*
X5490463Y-2167128D01*
X5500877Y-2156713D01*
X5511291Y-2151634D01*
X5527040Y-2146300D01*
X5552947Y-2146300D01*
X5568441Y-2151634D01*
X5578856Y-2156713D01*
X5589270Y-2167128D01*
X5594350Y-2182876D01*
X5594350Y-2219197D01*
X877315Y-1408429D02*
G01*
X877315Y-1356613D01*
X830579Y-1351279D01*
X835660Y-1356613D01*
X840994Y-1372107D01*
X840994Y-1387855D01*
X835660Y-1403350D01*
X825500Y-1413763D01*
X809752Y-1418844D01*
X799337Y-1418844D01*
X783844Y-1413763D01*
X773429Y-1403350D01*
X768350Y-1387855D01*
X768350Y-1372107D01*
X773429Y-1356613D01*
X778510Y-1351279D01*
X788923Y-1346200D01*
X840994Y-1453134D02*
G01*
X768350Y-1484376D01*
X840994Y-1515618D02*
G01*
X768350Y-1484376D01*
X851407Y-1779778D02*
G01*
X861821Y-1774444D01*
X872236Y-1764029D01*
X877315Y-1753870D01*
X877315Y-1733042D01*
X872236Y-1722628D01*
X861821Y-1712213D01*
X851407Y-1706879D01*
X835660Y-1701800D01*
X809752Y-1701800D01*
X794257Y-1706879D01*
X783844Y-1712213D01*
X773429Y-1722628D01*
X768350Y-1733042D01*
X768350Y-1753870D01*
X773429Y-1764029D01*
X783844Y-1774444D01*
X794257Y-1779778D01*
X809752Y-1779778D01*
X809752Y-1753870D02*
G01*
X809752Y-1779778D01*
X877315Y-1814068D02*
G01*
X768350Y-1814068D01*
X877315Y-1814068D02*
G01*
X768350Y-1886712D01*
X877315Y-1886712D02*
G01*
X768350Y-1886712D01*
X877315Y-1921002D02*
G01*
X768350Y-1921002D01*
X877315Y-1921002D02*
G01*
X877315Y-1957323D01*
X872236Y-1973071D01*
X861821Y-1983486D01*
X851407Y-1988565D01*
X835660Y-1993900D01*
X809752Y-1993900D01*
X794257Y-1988565D01*
X783844Y-1983486D01*
X773429Y-1973071D01*
X768350Y-1957323D01*
X768350Y-1921002D01*
X876807Y-458978D02*
G01*
X887221Y-453644D01*
X897636Y-443229D01*
X902715Y-433070D01*
X902715Y-412242D01*
X897636Y-401828D01*
X887221Y-391413D01*
X876807Y-386079D01*
X861060Y-381000D01*
X835152Y-381000D01*
X819657Y-386079D01*
X809244Y-391413D01*
X798829Y-401828D01*
X793750Y-412242D01*
X793750Y-433070D01*
X798829Y-443229D01*
X809244Y-453644D01*
X819657Y-458978D01*
X835152Y-458978D01*
X835152Y-433070D02*
G01*
X835152Y-458978D01*
X902715Y-493268D02*
G01*
X793750Y-493268D01*
X902715Y-493268D02*
G01*
X793750Y-565912D01*
X902715Y-565912D02*
G01*
X793750Y-565912D01*
X902715Y-600202D02*
G01*
X793750Y-600202D01*
X902715Y-600202D02*
G01*
X902715Y-636523D01*
X897636Y-652271D01*
X887221Y-662686D01*
X876807Y-667765D01*
X861060Y-673100D01*
X835152Y-673100D01*
X819657Y-667765D01*
X809244Y-662686D01*
X798829Y-652271D01*
X793750Y-636523D01*
X793750Y-600202D01*
X902715Y-736600D02*
G01*
X793750Y-778255D01*
X902715Y-819657D02*
G01*
X793750Y-778255D01*
X876807Y-931926D02*
G01*
X887221Y-926845D01*
X897636Y-916431D01*
X902715Y-906018D01*
X902715Y-885189D01*
X897636Y-874776D01*
X887221Y-864362D01*
X876807Y-859281D01*
X861060Y-853947D01*
X835152Y-853947D01*
X819657Y-859281D01*
X809244Y-864362D01*
X798829Y-874776D01*
X793750Y-885189D01*
X793750Y-906018D01*
X798829Y-916431D01*
X809244Y-926845D01*
X819657Y-931926D01*
X876807Y-1044194D02*
G01*
X887221Y-1038860D01*
X897636Y-1028700D01*
X902715Y-1018286D01*
X902715Y-997457D01*
X897636Y-987044D01*
X887221Y-976629D01*
X876807Y-971550D01*
X861060Y-966215D01*
X835152Y-966215D01*
X819657Y-971550D01*
X809244Y-976629D01*
X798829Y-987044D01*
X793750Y-997457D01*
X793750Y-1018286D01*
X798829Y-1028700D01*
X809244Y-1038860D01*
X819657Y-1044194D01*
X890015Y-49021D02*
G01*
X781050Y-49021D01*
X890015Y-12700D02*
G01*
X890015Y-85344D01*
X890015Y-119634D02*
G01*
X781050Y-192531D01*
X890015Y-192531D02*
G01*
X781050Y-119634D01*
X877315Y330200D02*
G01*
X768350Y330200D01*
X877315Y330200D02*
G01*
X877315Y283463D01*
X872236Y267970D01*
X866902Y262636D01*
X856487Y257555D01*
X846073Y257555D01*
X835660Y262636D01*
X830579Y267970D01*
X825500Y283463D01*
X825500Y330200D01*
X825500Y293878D02*
G01*
X768350Y257555D01*
X877315Y223265D02*
G01*
X768350Y150368D01*
X877315Y150368D02*
G01*
X768350Y223265D01*
X1271778Y610107D02*
G01*
X1266444Y620521D01*
X1256029Y630936D01*
X1245870Y636015D01*
X1225042Y636015D01*
X1214628Y630936D01*
X1204213Y620521D01*
X1198879Y610107D01*
X1193800Y594360D01*
X1193800Y568452D01*
X1198879Y552957D01*
X1204213Y542544D01*
X1214628Y532129D01*
X1225042Y527050D01*
X1245870Y527050D01*
X1256029Y532129D01*
X1266444Y542544D01*
X1271778Y552957D01*
X1271778Y568452D01*
X1245870Y568452D02*
G01*
X1271778Y568452D01*
X1306068Y636015D02*
G01*
X1306068Y527050D01*
X1306068Y636015D02*
G01*
X1352804Y636015D01*
X1368297Y630936D01*
X1373631Y625602D01*
X1378712Y615187D01*
X1378712Y599694D01*
X1373631Y589279D01*
X1368297Y584200D01*
X1352804Y578865D01*
X1306068Y578865D01*
X1485900Y620521D02*
G01*
X1475486Y630936D01*
X1459737Y636015D01*
X1438910Y636015D01*
X1423415Y630936D01*
X1413002Y620521D01*
X1413002Y610107D01*
X1418336Y599694D01*
X1423415Y594360D01*
X1433829Y589279D01*
X1465071Y578865D01*
X1475486Y573786D01*
X1480565Y568452D01*
X1485900Y558037D01*
X1485900Y542544D01*
X1475486Y532129D01*
X1459737Y527050D01*
X1438910Y527050D01*
X1423415Y532129D01*
X1413002Y542544D01*
X4355084Y811021D02*
G01*
X4464050Y811021D01*
X4355084Y774700D02*
G01*
X4355084Y847344D01*
X4355084Y881634D02*
G01*
X4464050Y881634D01*
X4464050Y881634D02*
G01*
X4464050Y944118D01*
X4355084Y978407D02*
G01*
X4464050Y978407D01*
X4355084Y978407D02*
G01*
X4464050Y1019810D01*
X4355084Y1061465D02*
G01*
X4464050Y1019810D01*
X4355084Y1061465D02*
G01*
X4464050Y1061465D01*
X5383784Y177800D02*
G01*
X5492750Y177800D01*
X5383784Y177800D02*
G01*
X5492750Y219455D01*
X5383784Y260857D02*
G01*
X5492750Y219455D01*
X5383784Y260857D02*
G01*
X5492750Y260857D01*
X5383784Y295147D02*
G01*
X5492750Y295147D01*
X5399277Y402336D02*
G01*
X5388863Y391921D01*
X5383784Y376173D01*
X5383784Y355600D01*
X5388863Y339852D01*
X5399277Y329437D01*
X5409691Y329437D01*
X5420106Y334771D01*
X5425440Y339852D01*
X5430520Y350265D01*
X5440934Y381507D01*
X5446013Y391921D01*
X5451347Y397002D01*
X5461761Y402336D01*
X5477256Y402336D01*
X5487670Y391921D01*
X5492750Y376173D01*
X5492750Y355600D01*
X5487670Y339852D01*
X5477256Y329437D01*
X5383784Y467613D02*
G01*
X5388863Y457200D01*
X5399277Y447039D01*
X5409691Y441705D01*
X5425440Y436626D01*
X5451347Y436626D01*
X5466841Y441705D01*
X5477256Y447039D01*
X5487670Y457200D01*
X5492750Y467613D01*
X5492750Y488442D01*
X5487670Y498855D01*
X5477256Y509270D01*
X5466841Y514350D01*
X5451347Y519684D01*
X5425440Y519684D01*
X5409691Y514350D01*
X5399277Y509270D01*
X5388863Y498855D01*
X5383784Y488442D01*
X5383784Y467613D01*
X5409691Y674878D02*
G01*
X5399277Y669544D01*
X5388863Y659129D01*
X5383784Y648970D01*
X5383784Y628142D01*
X5388863Y617728D01*
X5399277Y607313D01*
X5409691Y601979D01*
X5425440Y596900D01*
X5451347Y596900D01*
X5466841Y601979D01*
X5477256Y607313D01*
X5487670Y617728D01*
X5492750Y628142D01*
X5492750Y648970D01*
X5487670Y659129D01*
X5477256Y669544D01*
X5466841Y674878D01*
X5399277Y781812D02*
G01*
X5388863Y771397D01*
X5383784Y755904D01*
X5383784Y735076D01*
X5388863Y719581D01*
X5399277Y709168D01*
X5409691Y709168D01*
X5420106Y714247D01*
X5425440Y719581D01*
X5430520Y729995D01*
X5440934Y760984D01*
X5446013Y771397D01*
X5451347Y776731D01*
X5461761Y781812D01*
X5477256Y781812D01*
X5487670Y771397D01*
X5492750Y755904D01*
X5492750Y735076D01*
X5487670Y719581D01*
X5477256Y709168D01*
X5399277Y974344D02*
G01*
X5388863Y963929D01*
X5383784Y948436D01*
X5383784Y927607D01*
X5388863Y912113D01*
X5399277Y901700D01*
X5409691Y901700D01*
X5420106Y906779D01*
X5425440Y912113D01*
X5430520Y922528D01*
X5440934Y953770D01*
X5446013Y963929D01*
X5451347Y969263D01*
X5461761Y974344D01*
X5477256Y974344D01*
X5487670Y963929D01*
X5492750Y948436D01*
X5492750Y927607D01*
X5487670Y912113D01*
X5477256Y901700D01*
X5409691Y1086612D02*
G01*
X5399277Y1081531D01*
X5388863Y1071118D01*
X5383784Y1060704D01*
X5383784Y1039876D01*
X5388863Y1029462D01*
X5399277Y1019047D01*
X5409691Y1013968D01*
X5425440Y1008634D01*
X5451347Y1008634D01*
X5466841Y1013968D01*
X5477256Y1019047D01*
X5487670Y1029462D01*
X5492750Y1039876D01*
X5492750Y1060704D01*
X5487670Y1071118D01*
X5477256Y1081531D01*
X5466841Y1086612D01*
X5383784Y1120902D02*
G01*
X5492750Y1120902D01*
X5383784Y1193800D02*
G01*
X5456427Y1120902D01*
X5430520Y1146810D02*
G01*
X5492750Y1193800D01*
X5383784Y-1866900D02*
G01*
X5461761Y-1866900D01*
X5477256Y-1861820D01*
X5487670Y-1851405D01*
X5492750Y-1835657D01*
X5492750Y-1825244D01*
X5487670Y-1809750D01*
X5477256Y-1799336D01*
X5461761Y-1794255D01*
X5383784Y-1794255D01*
X5383784Y-1687068D02*
G01*
X5492750Y-1739137D01*
X5383784Y-1759965D02*
G01*
X5383784Y-1687068D01*
D12*
X2209800Y-163321D02*
G01*
X2209800Y-357123D01*
X2209800Y-357123D02*
G01*
X2320543Y-357123D01*
X2510790Y-191007D02*
G01*
X2492502Y-172465D01*
X2464815Y-163321D01*
X2427731Y-163321D01*
X2400045Y-172465D01*
X2381504Y-191007D01*
X2381504Y-209550D01*
X2390902Y-227837D01*
X2400045Y-237236D01*
X2418588Y-246379D01*
X2473959Y-264921D01*
X2492502Y-274065D01*
X2501645Y-283210D01*
X2510790Y-301752D01*
X2510790Y-329437D01*
X2492502Y-347979D01*
X2464815Y-357123D01*
X2427731Y-357123D01*
X2400045Y-347979D01*
X2381504Y-329437D01*
X2571750Y-163321D02*
G01*
X2571750Y-357123D01*
X2571750Y-163321D02*
G01*
X2645663Y-357123D01*
X2719577Y-163321D02*
G01*
X2645663Y-357123D01*
X2719577Y-163321D02*
G01*
X2719577Y-357123D01*
X2891536Y-191007D02*
G01*
X2882138Y-172465D01*
X2854452Y-163321D01*
X2835909Y-163321D01*
X2808224Y-172465D01*
X2789936Y-200152D01*
X2780538Y-246379D01*
X2780538Y-292607D01*
X2789936Y-329437D01*
X2808224Y-347979D01*
X2835909Y-357123D01*
X2845308Y-357123D01*
X2872993Y-347979D01*
X2891536Y-329437D01*
X2900679Y-301752D01*
X2900679Y-292607D01*
X2891536Y-264921D01*
X2872993Y-246379D01*
X2845308Y-237236D01*
X2835909Y-237236D01*
X2808224Y-246379D01*
X2789936Y-264921D01*
X2780538Y-292607D01*
X2961640Y-163321D02*
G01*
X2961640Y-357123D01*
X2961640Y-163321D02*
G01*
X3026409Y-163321D01*
X3054095Y-172465D01*
X3072384Y-191007D01*
X3081781Y-209550D01*
X3090925Y-237236D01*
X3090925Y-283210D01*
X3081781Y-311150D01*
X3072384Y-329437D01*
X3054095Y-347979D01*
X3026409Y-357123D01*
X2961640Y-357123D01*
X3281172Y-191007D02*
G01*
X3262629Y-172465D01*
X3234943Y-163321D01*
X3198113Y-163321D01*
X3170427Y-172465D01*
X3151886Y-191007D01*
X3151886Y-209550D01*
X3161029Y-227837D01*
X3170427Y-237236D01*
X3188970Y-246379D01*
X3244341Y-264921D01*
X3262629Y-274065D01*
X3272027Y-283210D01*
X3281172Y-301752D01*
X3281172Y-329437D01*
X3262629Y-347979D01*
X3234943Y-357123D01*
X3198113Y-357123D01*
X3170427Y-347979D01*
X3151886Y-329437D01*
X3397504Y-163321D02*
G01*
X3379215Y-172465D01*
X3360674Y-191007D01*
X3351529Y-209550D01*
X3342131Y-237236D01*
X3342131Y-283210D01*
X3351529Y-311150D01*
X3360674Y-329437D01*
X3379215Y-347979D01*
X3397504Y-357123D01*
X3434588Y-357123D01*
X3453129Y-347979D01*
X3471418Y-329437D01*
X3480815Y-311150D01*
X3489959Y-283210D01*
X3489959Y-237236D01*
X3480815Y-209550D01*
X3471418Y-191007D01*
X3453129Y-172465D01*
X3434588Y-163321D01*
X3397504Y-163321D01*
X3569461Y-163321D02*
G01*
X3671061Y-163321D01*
X3615690Y-237236D01*
X3643375Y-237236D01*
X3661663Y-246379D01*
X3671061Y-255523D01*
X3680206Y-283210D01*
X3680206Y-301752D01*
X3671061Y-329437D01*
X3652520Y-347979D01*
X3624834Y-357123D01*
X3597147Y-357123D01*
X3569461Y-347979D01*
X3560063Y-338836D01*
X3550920Y-320294D01*
X3750309Y-209550D02*
G01*
X3750309Y-200152D01*
X3759708Y-181610D01*
X3768852Y-172465D01*
X3787393Y-163321D01*
X3824224Y-163321D01*
X3842765Y-172465D01*
X3851909Y-181610D01*
X3861308Y-200152D01*
X3861308Y-218694D01*
X3851909Y-237236D01*
X3833622Y-264921D01*
X3741165Y-357123D01*
X3870452Y-357123D01*
D11*
X2131822Y-2638044D02*
G01*
X2142236Y-2627629D01*
X2147315Y-2612136D01*
X2147315Y-2591307D01*
X2142236Y-2575813D01*
X2131822Y-2565400D01*
X2121408Y-2565400D01*
X2110993Y-2570479D01*
X2105659Y-2575813D01*
X2100579Y-2586228D01*
X2090165Y-2617470D01*
X2085086Y-2627629D01*
X2079752Y-2632963D01*
X2069338Y-2638044D01*
X2053843Y-2638044D01*
X2043429Y-2627629D01*
X2038350Y-2612136D01*
X2038350Y-2591307D01*
X2043429Y-2575813D01*
X2053843Y-2565400D01*
X2126488Y-2672334D02*
G01*
X2131822Y-2682747D01*
X2147315Y-2698495D01*
X2038350Y-2698495D01*
D12*
X1769871Y-2283968D02*
G01*
X1765554Y-2274823D01*
X1756410Y-2265934D01*
X1747265Y-2261362D01*
X1728978Y-2261362D01*
X1720087Y-2265934D01*
X1710944Y-2274823D01*
X1706371Y-2283968D01*
X1701800Y-2297684D01*
X1701800Y-2320289D01*
X1706371Y-2334005D01*
X1710944Y-2343150D01*
X1720087Y-2352294D01*
X1728978Y-2356865D01*
X1747265Y-2356865D01*
X1756410Y-2352294D01*
X1765554Y-2343150D01*
X1769871Y-2334005D01*
X1769871Y-2320289D01*
X1747265Y-2320289D02*
G01*
X1769871Y-2320289D01*
X1800097Y-2261362D02*
G01*
X1800097Y-2356865D01*
X1800097Y-2261362D02*
G01*
X1863597Y-2356865D01*
X1863597Y-2261362D02*
G01*
X1863597Y-2356865D01*
X1893570Y-2261362D02*
G01*
X1893570Y-2356865D01*
X1893570Y-2261362D02*
G01*
X1925320Y-2261362D01*
X1939036Y-2265934D01*
X1948179Y-2274823D01*
X1952752Y-2283968D01*
X1957324Y-2297684D01*
X1957324Y-2320289D01*
X1952752Y-2334005D01*
X1948179Y-2343150D01*
X1939036Y-2352294D01*
X1925320Y-2356865D01*
X1893570Y-2356865D01*
X1701800Y-2515362D02*
G01*
X1738121Y-2610865D01*
X1774444Y-2515362D02*
G01*
X1738121Y-2610865D01*
X1872742Y-2537968D02*
G01*
X1868170Y-2528823D01*
X1859026Y-2519934D01*
X1849881Y-2515362D01*
X1831847Y-2515362D01*
X1822704Y-2519934D01*
X1813560Y-2528823D01*
X1808987Y-2537968D01*
X1804415Y-2551684D01*
X1804415Y-2574289D01*
X1808987Y-2588005D01*
X1813560Y-2597150D01*
X1822704Y-2606294D01*
X1831847Y-2610865D01*
X1849881Y-2610865D01*
X1859026Y-2606294D01*
X1868170Y-2597150D01*
X1872742Y-2588005D01*
X1970786Y-2537968D02*
G01*
X1966468Y-2528823D01*
X1957324Y-2519934D01*
X1948179Y-2515362D01*
X1929892Y-2515362D01*
X1921002Y-2519934D01*
X1911857Y-2528823D01*
X1907286Y-2537968D01*
X1902713Y-2551684D01*
X1902713Y-2574289D01*
X1907286Y-2588005D01*
X1911857Y-2597150D01*
X1921002Y-2606294D01*
X1929892Y-2610865D01*
X1948179Y-2610865D01*
X1957324Y-2606294D01*
X1966468Y-2597150D01*
X1970786Y-2588005D01*
X1701800Y-2769362D02*
G01*
X1701800Y-2864865D01*
X1701800Y-2769362D02*
G01*
X1742694Y-2769362D01*
X1756410Y-2773934D01*
X1760981Y-2778505D01*
X1765554Y-2787395D01*
X1765554Y-2801112D01*
X1760981Y-2810255D01*
X1756410Y-2814828D01*
X1742694Y-2819400D01*
X1701800Y-2819400D01*
X1795526Y-2769362D02*
G01*
X1818131Y-2864865D01*
X1840992Y-2769362D02*
G01*
X1818131Y-2864865D01*
X1840992Y-2769362D02*
G01*
X1863597Y-2864865D01*
X1886457Y-2769362D02*
G01*
X1863597Y-2864865D01*
X1916429Y-2769362D02*
G01*
X1916429Y-2864865D01*
X1916429Y-2769362D02*
G01*
X1952752Y-2864865D01*
X1989074Y-2769362D02*
G01*
X1952752Y-2864865D01*
X1989074Y-2769362D02*
G01*
X1989074Y-2864865D01*
D11*
X2944622Y-2638044D02*
G01*
X2955036Y-2627629D01*
X2960115Y-2612136D01*
X2960115Y-2591307D01*
X2955036Y-2575813D01*
X2944622Y-2565400D01*
X2934208Y-2565400D01*
X2923793Y-2570479D01*
X2918459Y-2575813D01*
X2913379Y-2586228D01*
X2902965Y-2617470D01*
X2897886Y-2627629D01*
X2892552Y-2632963D01*
X2882138Y-2638044D01*
X2866643Y-2638044D01*
X2856229Y-2627629D01*
X2851150Y-2612136D01*
X2851150Y-2591307D01*
X2856229Y-2575813D01*
X2866643Y-2565400D01*
X2934208Y-2677668D02*
G01*
X2939288Y-2677668D01*
X2949702Y-2682747D01*
X2955036Y-2688081D01*
X2960115Y-2698495D01*
X2960115Y-2719070D01*
X2955036Y-2729484D01*
X2949702Y-2734818D01*
X2939288Y-2739897D01*
X2928874Y-2739897D01*
X2918459Y-2734818D01*
X2902965Y-2724404D01*
X2851150Y-2672334D01*
X2851150Y-2745231D01*
D12*
X2582672Y-2283968D02*
G01*
X2578354Y-2274823D01*
X2569209Y-2265934D01*
X2560065Y-2261362D01*
X2541777Y-2261362D01*
X2532888Y-2265934D01*
X2523743Y-2274823D01*
X2519172Y-2283968D01*
X2514600Y-2297684D01*
X2514600Y-2320289D01*
X2519172Y-2334005D01*
X2523743Y-2343150D01*
X2532888Y-2352294D01*
X2541777Y-2356865D01*
X2560065Y-2356865D01*
X2569209Y-2352294D01*
X2578354Y-2343150D01*
X2582672Y-2334005D01*
X2582672Y-2320289D01*
X2560065Y-2320289D02*
G01*
X2582672Y-2320289D01*
X2612897Y-2261362D02*
G01*
X2612897Y-2356865D01*
X2612897Y-2261362D02*
G01*
X2676397Y-2356865D01*
X2676397Y-2261362D02*
G01*
X2676397Y-2356865D01*
X2706370Y-2261362D02*
G01*
X2706370Y-2356865D01*
X2706370Y-2261362D02*
G01*
X2738120Y-2261362D01*
X2751836Y-2265934D01*
X2760979Y-2274823D01*
X2765552Y-2283968D01*
X2770124Y-2297684D01*
X2770124Y-2320289D01*
X2765552Y-2334005D01*
X2760979Y-2343150D01*
X2751836Y-2352294D01*
X2738120Y-2356865D01*
X2706370Y-2356865D01*
X2514600Y-2515362D02*
G01*
X2550922Y-2610865D01*
X2587243Y-2515362D02*
G01*
X2550922Y-2610865D01*
X2685541Y-2537968D02*
G01*
X2680970Y-2528823D01*
X2671825Y-2519934D01*
X2662681Y-2515362D01*
X2644647Y-2515362D01*
X2635504Y-2519934D01*
X2626359Y-2528823D01*
X2621788Y-2537968D01*
X2617215Y-2551684D01*
X2617215Y-2574289D01*
X2621788Y-2588005D01*
X2626359Y-2597150D01*
X2635504Y-2606294D01*
X2644647Y-2610865D01*
X2662681Y-2610865D01*
X2671825Y-2606294D01*
X2680970Y-2597150D01*
X2685541Y-2588005D01*
X2783586Y-2537968D02*
G01*
X2779268Y-2528823D01*
X2770124Y-2519934D01*
X2760979Y-2515362D01*
X2742691Y-2515362D01*
X2733802Y-2519934D01*
X2724658Y-2528823D01*
X2720086Y-2537968D01*
X2715513Y-2551684D01*
X2715513Y-2574289D01*
X2720086Y-2588005D01*
X2724658Y-2597150D01*
X2733802Y-2606294D01*
X2742691Y-2610865D01*
X2760979Y-2610865D01*
X2770124Y-2606294D01*
X2779268Y-2597150D01*
X2783586Y-2588005D01*
X2514600Y-2769362D02*
G01*
X2514600Y-2864865D01*
X2514600Y-2769362D02*
G01*
X2555493Y-2769362D01*
X2569209Y-2773934D01*
X2573781Y-2778505D01*
X2578354Y-2787395D01*
X2578354Y-2801112D01*
X2573781Y-2810255D01*
X2569209Y-2814828D01*
X2555493Y-2819400D01*
X2514600Y-2819400D01*
X2608325Y-2769362D02*
G01*
X2630931Y-2864865D01*
X2653791Y-2769362D02*
G01*
X2630931Y-2864865D01*
X2653791Y-2769362D02*
G01*
X2676397Y-2864865D01*
X2699258Y-2769362D02*
G01*
X2676397Y-2864865D01*
X2729229Y-2769362D02*
G01*
X2729229Y-2864865D01*
X2729229Y-2769362D02*
G01*
X2765552Y-2864865D01*
X2801874Y-2769362D02*
G01*
X2765552Y-2864865D01*
X2801874Y-2769362D02*
G01*
X2801874Y-2864865D01*
D11*
X3782822Y-2663444D02*
G01*
X3793236Y-2653029D01*
X3798315Y-2637536D01*
X3798315Y-2616707D01*
X3793236Y-2601213D01*
X3782822Y-2590800D01*
X3772408Y-2590800D01*
X3761993Y-2595879D01*
X3756659Y-2601213D01*
X3751579Y-2611628D01*
X3741165Y-2642870D01*
X3736086Y-2653029D01*
X3730752Y-2658363D01*
X3720338Y-2663444D01*
X3704843Y-2663444D01*
X3694429Y-2653029D01*
X3689350Y-2637536D01*
X3689350Y-2616707D01*
X3694429Y-2601213D01*
X3704843Y-2590800D01*
X3798315Y-2708147D02*
G01*
X3798315Y-2765297D01*
X3756659Y-2734310D01*
X3756659Y-2749804D01*
X3751579Y-2760218D01*
X3746500Y-2765297D01*
X3730752Y-2770631D01*
X3720338Y-2770631D01*
X3704843Y-2765297D01*
X3694429Y-2754884D01*
X3689350Y-2739389D01*
X3689350Y-2723895D01*
X3694429Y-2708147D01*
X3699509Y-2703068D01*
X3709924Y-2697734D01*
D12*
X3420872Y-2309368D02*
G01*
X3416554Y-2300223D01*
X3407409Y-2291334D01*
X3398265Y-2286762D01*
X3379977Y-2286762D01*
X3371088Y-2291334D01*
X3361943Y-2300223D01*
X3357372Y-2309368D01*
X3352800Y-2323084D01*
X3352800Y-2345689D01*
X3357372Y-2359405D01*
X3361943Y-2368550D01*
X3371088Y-2377694D01*
X3379977Y-2382265D01*
X3398265Y-2382265D01*
X3407409Y-2377694D01*
X3416554Y-2368550D01*
X3420872Y-2359405D01*
X3420872Y-2345689D01*
X3398265Y-2345689D02*
G01*
X3420872Y-2345689D01*
X3451097Y-2286762D02*
G01*
X3451097Y-2382265D01*
X3451097Y-2286762D02*
G01*
X3514597Y-2382265D01*
X3514597Y-2286762D02*
G01*
X3514597Y-2382265D01*
X3544570Y-2286762D02*
G01*
X3544570Y-2382265D01*
X3544570Y-2286762D02*
G01*
X3576320Y-2286762D01*
X3590036Y-2291334D01*
X3599179Y-2300223D01*
X3603752Y-2309368D01*
X3608324Y-2323084D01*
X3608324Y-2345689D01*
X3603752Y-2359405D01*
X3599179Y-2368550D01*
X3590036Y-2377694D01*
X3576320Y-2382265D01*
X3544570Y-2382265D01*
X3352800Y-2540762D02*
G01*
X3389122Y-2636265D01*
X3425443Y-2540762D02*
G01*
X3389122Y-2636265D01*
X3523741Y-2563368D02*
G01*
X3519170Y-2554223D01*
X3510025Y-2545334D01*
X3500881Y-2540762D01*
X3482847Y-2540762D01*
X3473704Y-2545334D01*
X3464559Y-2554223D01*
X3459988Y-2563368D01*
X3455415Y-2577084D01*
X3455415Y-2599689D01*
X3459988Y-2613405D01*
X3464559Y-2622550D01*
X3473704Y-2631694D01*
X3482847Y-2636265D01*
X3500881Y-2636265D01*
X3510025Y-2631694D01*
X3519170Y-2622550D01*
X3523741Y-2613405D01*
X3621786Y-2563368D02*
G01*
X3617468Y-2554223D01*
X3608324Y-2545334D01*
X3599179Y-2540762D01*
X3580891Y-2540762D01*
X3572002Y-2545334D01*
X3562858Y-2554223D01*
X3558286Y-2563368D01*
X3553713Y-2577084D01*
X3553713Y-2599689D01*
X3558286Y-2613405D01*
X3562858Y-2622550D01*
X3572002Y-2631694D01*
X3580891Y-2636265D01*
X3599179Y-2636265D01*
X3608324Y-2631694D01*
X3617468Y-2622550D01*
X3621786Y-2613405D01*
X3352800Y-2794762D02*
G01*
X3352800Y-2890265D01*
X3352800Y-2794762D02*
G01*
X3393693Y-2794762D01*
X3407409Y-2799334D01*
X3411981Y-2803905D01*
X3416554Y-2812795D01*
X3416554Y-2826512D01*
X3411981Y-2835655D01*
X3407409Y-2840228D01*
X3393693Y-2844800D01*
X3352800Y-2844800D01*
X3446525Y-2794762D02*
G01*
X3469131Y-2890265D01*
X3491991Y-2794762D02*
G01*
X3469131Y-2890265D01*
X3491991Y-2794762D02*
G01*
X3514597Y-2890265D01*
X3537458Y-2794762D02*
G01*
X3514597Y-2890265D01*
X3567429Y-2794762D02*
G01*
X3567429Y-2890265D01*
X3567429Y-2794762D02*
G01*
X3603752Y-2890265D01*
X3640074Y-2794762D02*
G01*
X3603752Y-2890265D01*
X3640074Y-2794762D02*
G01*
X3640074Y-2890265D01*
D11*
X4646422Y-2523744D02*
G01*
X4656836Y-2513329D01*
X4661915Y-2497836D01*
X4661915Y-2477007D01*
X4656836Y-2461513D01*
X4646422Y-2451100D01*
X4636008Y-2451100D01*
X4625593Y-2456179D01*
X4620259Y-2461513D01*
X4615179Y-2471928D01*
X4604765Y-2503170D01*
X4599686Y-2513329D01*
X4594352Y-2518663D01*
X4583938Y-2523744D01*
X4568443Y-2523744D01*
X4558029Y-2513329D01*
X4552950Y-2497836D01*
X4552950Y-2477007D01*
X4558029Y-2461513D01*
X4568443Y-2451100D01*
X4661915Y-2610104D02*
G01*
X4589272Y-2558034D01*
X4589272Y-2636012D01*
X4661915Y-2610104D02*
G01*
X4552950Y-2610104D01*
D12*
X4284472Y-2309368D02*
G01*
X4280154Y-2300223D01*
X4271009Y-2291334D01*
X4261865Y-2286762D01*
X4243577Y-2286762D01*
X4234688Y-2291334D01*
X4225543Y-2300223D01*
X4220972Y-2309368D01*
X4216400Y-2323084D01*
X4216400Y-2345689D01*
X4220972Y-2359405D01*
X4225543Y-2368550D01*
X4234688Y-2377694D01*
X4243577Y-2382265D01*
X4261865Y-2382265D01*
X4271009Y-2377694D01*
X4280154Y-2368550D01*
X4284472Y-2359405D01*
X4284472Y-2345689D01*
X4261865Y-2345689D02*
G01*
X4284472Y-2345689D01*
X4314697Y-2286762D02*
G01*
X4314697Y-2382265D01*
X4314697Y-2286762D02*
G01*
X4378197Y-2382265D01*
X4378197Y-2286762D02*
G01*
X4378197Y-2382265D01*
X4408170Y-2286762D02*
G01*
X4408170Y-2382265D01*
X4408170Y-2286762D02*
G01*
X4439920Y-2286762D01*
X4453636Y-2291334D01*
X4462779Y-2300223D01*
X4467352Y-2309368D01*
X4471924Y-2323084D01*
X4471924Y-2345689D01*
X4467352Y-2359405D01*
X4462779Y-2368550D01*
X4453636Y-2377694D01*
X4439920Y-2382265D01*
X4408170Y-2382265D01*
X4216400Y-2540762D02*
G01*
X4252722Y-2636265D01*
X4289043Y-2540762D02*
G01*
X4252722Y-2636265D01*
X4387341Y-2563368D02*
G01*
X4382770Y-2554223D01*
X4373625Y-2545334D01*
X4364481Y-2540762D01*
X4346447Y-2540762D01*
X4337304Y-2545334D01*
X4328159Y-2554223D01*
X4323588Y-2563368D01*
X4319015Y-2577084D01*
X4319015Y-2599689D01*
X4323588Y-2613405D01*
X4328159Y-2622550D01*
X4337304Y-2631694D01*
X4346447Y-2636265D01*
X4364481Y-2636265D01*
X4373625Y-2631694D01*
X4382770Y-2622550D01*
X4387341Y-2613405D01*
X4485386Y-2563368D02*
G01*
X4481068Y-2554223D01*
X4471924Y-2545334D01*
X4462779Y-2540762D01*
X4444491Y-2540762D01*
X4435602Y-2545334D01*
X4426458Y-2554223D01*
X4421886Y-2563368D01*
X4417313Y-2577084D01*
X4417313Y-2599689D01*
X4421886Y-2613405D01*
X4426458Y-2622550D01*
X4435602Y-2631694D01*
X4444491Y-2636265D01*
X4462779Y-2636265D01*
X4471924Y-2631694D01*
X4481068Y-2622550D01*
X4485386Y-2613405D01*
X4216400Y-2794762D02*
G01*
X4216400Y-2890265D01*
X4216400Y-2794762D02*
G01*
X4257293Y-2794762D01*
X4271009Y-2799334D01*
X4275581Y-2803905D01*
X4280154Y-2812795D01*
X4280154Y-2826512D01*
X4275581Y-2835655D01*
X4271009Y-2840228D01*
X4257293Y-2844800D01*
X4216400Y-2844800D01*
X4310125Y-2794762D02*
G01*
X4332731Y-2890265D01*
X4355591Y-2794762D02*
G01*
X4332731Y-2890265D01*
X4355591Y-2794762D02*
G01*
X4378197Y-2890265D01*
X4401058Y-2794762D02*
G01*
X4378197Y-2890265D01*
X4431029Y-2794762D02*
G01*
X4431029Y-2890265D01*
X4431029Y-2794762D02*
G01*
X4467352Y-2890265D01*
X4503674Y-2794762D02*
G01*
X4467352Y-2890265D01*
X4503674Y-2794762D02*
G01*
X4503674Y-2890265D01*
D11*
X2184400Y6185915D02*
G01*
X2184400Y6107937D01*
X2189479Y6092444D01*
X2199893Y6082029D01*
X2215641Y6076950D01*
X2226056Y6076950D01*
X2241550Y6082029D01*
X2251963Y6092444D01*
X2257043Y6107937D01*
X2257043Y6185915D01*
X2291334Y6165087D02*
G01*
X2301747Y6170421D01*
X2317495Y6185915D01*
X2317495Y6076950D01*
X5487415Y4559300D02*
G01*
X5409438Y4559300D01*
X5393943Y4554220D01*
X5383529Y4543805D01*
X5378450Y4528057D01*
X5378450Y4517644D01*
X5383529Y4502150D01*
X5393943Y4491736D01*
X5409438Y4486655D01*
X5487415Y4486655D01*
X5461508Y4447031D02*
G01*
X5466588Y4447031D01*
X5477002Y4441952D01*
X5482336Y4436618D01*
X5487415Y4426204D01*
X5487415Y4405629D01*
X5482336Y4395215D01*
X5477002Y4389881D01*
X5466588Y4384802D01*
X5456174Y4384802D01*
X5445759Y4389881D01*
X5430265Y4400295D01*
X5378450Y4452365D01*
X5378450Y4379468D01*
X5106672Y4851397D02*
G01*
X4985260Y4851397D01*
X5106672Y4851397D02*
G01*
X5106672Y4799327D01*
X5100830Y4782055D01*
X5094988Y4776467D01*
X5083558Y4770625D01*
X5071874Y4770625D01*
X5060444Y4776467D01*
X5054602Y4782055D01*
X5048760Y4799327D01*
X5048760Y4851397D02*
G01*
X5048760Y4799327D01*
X5043172Y4782055D01*
X5037330Y4776467D01*
X5025646Y4770625D01*
X5008374Y4770625D01*
X4996944Y4776467D01*
X4991102Y4782055D01*
X4985260Y4799327D01*
X4985260Y4851397D01*
X5106672Y4732525D02*
G01*
X4985260Y4732525D01*
X5106672Y4732525D02*
G01*
X4985260Y4686297D01*
X5106672Y4640069D02*
G01*
X4985260Y4686297D01*
X5106672Y4640069D02*
G01*
X4985260Y4640069D01*
X5106672Y4601969D02*
G01*
X4985260Y4601969D01*
X5106672Y4601969D02*
G01*
X5106672Y4550153D01*
X5100830Y4532627D01*
X5094988Y4527039D01*
X5083558Y4521197D01*
X5066032Y4521197D01*
X5054602Y4527039D01*
X5048760Y4532627D01*
X5043172Y4550153D01*
X5043172Y4601969D01*
X5106672Y4471667D02*
G01*
X5106672Y4408167D01*
X5060444Y4442711D01*
X5060444Y4425439D01*
X5054602Y4413755D01*
X5048760Y4408167D01*
X5031488Y4402325D01*
X5020058Y4402325D01*
X5002532Y4408167D01*
X4991102Y4419597D01*
X4985260Y4436869D01*
X4985260Y4454141D01*
X4991102Y4471667D01*
X4996944Y4477255D01*
X5008374Y4483097D01*
X5066032Y4289041D02*
G01*
X5048760Y4294883D01*
X5037330Y4306567D01*
X5031488Y4323839D01*
X5031488Y4329427D01*
X5037330Y4346953D01*
X5048760Y4358383D01*
X5066032Y4364225D01*
X5071874Y4364225D01*
X5089146Y4358383D01*
X5100830Y4346953D01*
X5106672Y4329427D01*
X5106672Y4323839D01*
X5100830Y4306567D01*
X5089146Y4294883D01*
X5066032Y4289041D01*
X5037330Y4289041D01*
X5008374Y4294883D01*
X4991102Y4306567D01*
X4985260Y4323839D01*
X4985260Y4335269D01*
X4991102Y4352541D01*
X5002532Y4358383D01*
X5106672Y4216397D02*
G01*
X5100830Y4233669D01*
X5083558Y4245353D01*
X5054602Y4250941D01*
X5037330Y4250941D01*
X5008374Y4245353D01*
X4991102Y4233669D01*
X4985260Y4216397D01*
X4985260Y4204967D01*
X4991102Y4187441D01*
X5008374Y4176011D01*
X5037330Y4170169D01*
X5054602Y4170169D01*
X5083558Y4176011D01*
X5100830Y4187441D01*
X5106672Y4204967D01*
X5106672Y4216397D01*
D13*
X4762500Y5041897D02*
G01*
X4670552Y5041897D01*
X4762500Y5041897D02*
G01*
X4762500Y5002527D01*
X4758181Y4989319D01*
X4753863Y4984747D01*
X4744974Y4980429D01*
X4731765Y4980429D01*
X4723129Y4984747D01*
X4718811Y4989319D01*
X4714240Y5002527D01*
X4714240Y5041897D01*
X4731765Y4951473D02*
G01*
X4670552Y4951473D01*
X4705604Y4951473D02*
G01*
X4718811Y4947155D01*
X4727447Y4938265D01*
X4731765Y4929629D01*
X4731765Y4916421D01*
X4705604Y4887465D02*
G01*
X4705604Y4834887D01*
X4714240Y4834887D01*
X4723129Y4839205D01*
X4727447Y4843523D01*
X4731765Y4852413D01*
X4731765Y4865621D01*
X4727447Y4874257D01*
X4718811Y4883147D01*
X4705604Y4887465D01*
X4696713Y4887465D01*
X4683506Y4883147D01*
X4674870Y4874257D01*
X4670552Y4865621D01*
X4670552Y4852413D01*
X4674870Y4843523D01*
X4683506Y4834887D01*
X4718811Y4757671D02*
G01*
X4727447Y4761989D01*
X4731765Y4775197D01*
X4731765Y4788405D01*
X4727447Y4801359D01*
X4718811Y4805931D01*
X4709922Y4801359D01*
X4705604Y4792723D01*
X4701031Y4770879D01*
X4696713Y4761989D01*
X4688077Y4757671D01*
X4683506Y4757671D01*
X4674870Y4761989D01*
X4670552Y4775197D01*
X4670552Y4788405D01*
X4674870Y4801359D01*
X4683506Y4805931D01*
X4718811Y4680455D02*
G01*
X4727447Y4684773D01*
X4731765Y4697981D01*
X4731765Y4711189D01*
X4727447Y4724143D01*
X4718811Y4728715D01*
X4709922Y4724143D01*
X4705604Y4715507D01*
X4701031Y4693663D01*
X4696713Y4684773D01*
X4688077Y4680455D01*
X4683506Y4680455D01*
X4674870Y4684773D01*
X4670552Y4697981D01*
X4670552Y4711189D01*
X4674870Y4724143D01*
X4683506Y4728715D01*
X4762500Y4651499D02*
G01*
X4657343Y4590031D01*
X4762500Y4526023D02*
G01*
X4670552Y4561075D01*
X4762500Y4526023D02*
G01*
X4670552Y4490971D01*
X4701031Y4547867D02*
G01*
X4701031Y4503925D01*
X4762500Y4462015D02*
G01*
X4670552Y4462015D01*
X4762500Y4419851D02*
G01*
X4688077Y4419851D01*
X4674870Y4415279D01*
X4670552Y4406643D01*
X4670552Y4397753D01*
X4731765Y4433059D02*
G01*
X4731765Y4402325D01*
X4762500Y4368797D02*
G01*
X4657343Y4307583D01*
X4762500Y4247893D02*
G01*
X4670552Y4247893D01*
X4762500Y4278627D02*
G01*
X4762500Y4217159D01*
X4705604Y4188203D02*
G01*
X4705604Y4135371D01*
X4714240Y4135371D01*
X4723129Y4139943D01*
X4727447Y4144261D01*
X4731765Y4153151D01*
X4731765Y4166105D01*
X4727447Y4174995D01*
X4718811Y4183631D01*
X4705604Y4188203D01*
X4696713Y4188203D01*
X4683506Y4183631D01*
X4674870Y4174995D01*
X4670552Y4166105D01*
X4670552Y4153151D01*
X4674870Y4144261D01*
X4683506Y4135371D01*
X4731765Y4106415D02*
G01*
X4670552Y4106415D01*
X4714240Y4106415D02*
G01*
X4727447Y4093461D01*
X4731765Y4084571D01*
X4731765Y4071363D01*
X4727447Y4062727D01*
X4714240Y4058155D01*
X4670552Y4058155D01*
X4714240Y4058155D02*
G01*
X4727447Y4045201D01*
X4731765Y4036311D01*
X4731765Y4023103D01*
X4727447Y4014467D01*
X4714240Y4009895D01*
X4670552Y4009895D01*
X4731765Y3980939D02*
G01*
X4639818Y3980939D01*
X4718811Y3980939D02*
G01*
X4727447Y3972303D01*
X4731765Y3963413D01*
X4731765Y3950459D01*
X4727447Y3941569D01*
X4718811Y3932679D01*
X4705604Y3928361D01*
X4696713Y3928361D01*
X4683506Y3932679D01*
X4674870Y3941569D01*
X4670552Y3950459D01*
X4670552Y3963413D01*
X4674870Y3972303D01*
X4683506Y3980939D01*
D14*
X4038600Y5499100D02*
G01*
X3941572Y5462270D01*
X4038600Y5425186D02*
G01*
X3941572Y5462270D01*
X4038600Y5394705D02*
G01*
X3941572Y5394705D01*
X4038600Y5364226D02*
G01*
X3941572Y5364226D01*
X4038600Y5364226D02*
G01*
X3941572Y5299710D01*
X4038600Y5299710D02*
G01*
X3941572Y5299710D01*
X3700272Y5307076D02*
G01*
X3700272Y5256276D01*
X3663441Y5283962D01*
X3663441Y5269992D01*
X3658870Y5260847D01*
X3654043Y5256276D01*
X3640327Y5251450D01*
X3630929Y5251450D01*
X3617213Y5256276D01*
X3608070Y5265420D01*
X3603243Y5279389D01*
X3603243Y5293105D01*
X3608070Y5307076D01*
X3612641Y5311647D01*
X3621786Y5316220D01*
X3700272Y5220970D02*
G01*
X3603243Y5184139D01*
X3700272Y5147310D02*
G01*
X3603243Y5184139D01*
X3668013Y5093715D02*
G01*
X3663441Y5102860D01*
X3654043Y5112004D01*
X3640327Y5116829D01*
X3630929Y5116829D01*
X3617213Y5112004D01*
X3608070Y5102860D01*
X3603243Y5093715D01*
X3603243Y5079745D01*
X3608070Y5070602D01*
X3617213Y5061204D01*
X3630929Y5056631D01*
X3640327Y5056631D01*
X3654043Y5061204D01*
X3663441Y5070602D01*
X3668013Y5079745D01*
X3668013Y5093715D01*
X4007358Y4967478D02*
G01*
X4016756Y4972050D01*
X4025900Y4981447D01*
X4030472Y4990592D01*
X4030472Y5009134D01*
X4025900Y5018278D01*
X4016756Y5027676D01*
X4007358Y5032247D01*
X3993641Y5036820D01*
X3970527Y5036820D01*
X3956558Y5032247D01*
X3947413Y5027676D01*
X3938270Y5018278D01*
X3933443Y5009134D01*
X3933443Y4990592D01*
X3938270Y4981447D01*
X3947413Y4972050D01*
X3956558Y4967478D01*
X3970527Y4967478D01*
X3970527Y4990592D02*
G01*
X3970527Y4967478D01*
X4030472Y4936997D02*
G01*
X3933443Y4936997D01*
X4030472Y4936997D02*
G01*
X3933443Y4872481D01*
X4030472Y4872481D02*
G01*
X3933443Y4872481D01*
X4030472Y4842002D02*
G01*
X3933443Y4842002D01*
X4030472Y4842002D02*
G01*
X4030472Y4809489D01*
X4025900Y4795773D01*
X4016756Y4786629D01*
X4007358Y4781804D01*
X3993641Y4777231D01*
X3970527Y4777231D01*
X3956558Y4781804D01*
X3947413Y4786629D01*
X3938270Y4795773D01*
X3933443Y4809489D01*
X3933443Y4842002D01*
X3686556Y4730750D02*
G01*
X3695700Y4740147D01*
X3700272Y4753863D01*
X3700272Y4772405D01*
X3695700Y4786376D01*
X3686556Y4795520D01*
X3677158Y4795520D01*
X3668013Y4790947D01*
X3663441Y4786376D01*
X3658870Y4776978D01*
X3649472Y4749292D01*
X3644900Y4740147D01*
X3640327Y4735576D01*
X3630929Y4730750D01*
X3617213Y4730750D01*
X3608070Y4740147D01*
X3603243Y4753863D01*
X3603243Y4772405D01*
X3608070Y4786376D01*
X3617213Y4795520D01*
X3677158Y4631181D02*
G01*
X3686556Y4635754D01*
X3695700Y4644897D01*
X3700272Y4654295D01*
X3700272Y4672584D01*
X3695700Y4681981D01*
X3686556Y4691126D01*
X3677158Y4695697D01*
X3663441Y4700270D01*
X3640327Y4700270D01*
X3626358Y4695697D01*
X3617213Y4691126D01*
X3608070Y4681981D01*
X3603243Y4672584D01*
X3603243Y4654295D01*
X3608070Y4644897D01*
X3617213Y4635754D01*
X3626358Y4631181D01*
X3700272Y4600702D02*
G01*
X3603243Y4600702D01*
X3700272Y4535931D02*
G01*
X3635756Y4600702D01*
X3658870Y4577587D02*
G01*
X3603243Y4535931D01*
X4016756Y4464050D02*
G01*
X4025900Y4473447D01*
X4030472Y4487163D01*
X4030472Y4505705D01*
X4025900Y4519676D01*
X4016756Y4528820D01*
X4007358Y4528820D01*
X3998213Y4524247D01*
X3993641Y4519676D01*
X3989070Y4510278D01*
X3979672Y4482592D01*
X3975100Y4473447D01*
X3970527Y4468876D01*
X3961129Y4464050D01*
X3947413Y4464050D01*
X3938270Y4473447D01*
X3933443Y4487163D01*
X3933443Y4505705D01*
X3938270Y4519676D01*
X3947413Y4528820D01*
X4030472Y4433570D02*
G01*
X3933443Y4433570D01*
X4030472Y4433570D02*
G01*
X4030472Y4401312D01*
X4025900Y4387595D01*
X4016756Y4378197D01*
X4007358Y4373626D01*
X3993641Y4369054D01*
X3970527Y4369054D01*
X3956558Y4373626D01*
X3947413Y4378197D01*
X3938270Y4387595D01*
X3933443Y4401312D01*
X3933443Y4433570D01*
X4030472Y4310887D02*
G01*
X4025900Y4320031D01*
X4016756Y4329429D01*
X4007358Y4334002D01*
X3993641Y4338573D01*
X3970527Y4338573D01*
X3956558Y4334002D01*
X3947413Y4329429D01*
X3938270Y4320031D01*
X3933443Y4310887D01*
X3933443Y4292345D01*
X3938270Y4283202D01*
X3947413Y4273804D01*
X3956558Y4269231D01*
X3970527Y4264660D01*
X3993641Y4264660D01*
X4007358Y4269231D01*
X4016756Y4273804D01*
X4025900Y4283202D01*
X4030472Y4292345D01*
X4030472Y4310887D01*
X3682745Y4202429D02*
G01*
X3691890Y4211828D01*
X3696715Y4225544D01*
X3696715Y4244086D01*
X3691890Y4258055D01*
X3682745Y4267200D01*
X3673602Y4267200D01*
X3664204Y4262628D01*
X3659631Y4258055D01*
X3655059Y4248657D01*
X3645915Y4220971D01*
X3641090Y4211828D01*
X3636518Y4207255D01*
X3627374Y4202429D01*
X3613404Y4202429D01*
X3604259Y4211828D01*
X3599688Y4225544D01*
X3599688Y4244086D01*
X3604259Y4258055D01*
X3613404Y4267200D01*
X3696715Y4171950D02*
G01*
X3599688Y4171950D01*
X3696715Y4171950D02*
G01*
X3696715Y4139692D01*
X3691890Y4125976D01*
X3682745Y4116578D01*
X3673602Y4112005D01*
X3659631Y4107434D01*
X3636518Y4107434D01*
X3622802Y4112005D01*
X3613404Y4116578D01*
X3604259Y4125976D01*
X3599688Y4139692D01*
X3599688Y4171950D01*
X3696715Y4039870D02*
G01*
X3599688Y4076954D01*
X3696715Y4039870D02*
G01*
X3599688Y4003039D01*
X3631945Y4062984D02*
G01*
X3631945Y4017010D01*
X4007358Y3910837D02*
G01*
X4016756Y3915410D01*
X4025900Y3924807D01*
X4030472Y3933952D01*
X4030472Y3952494D01*
X4025900Y3961637D01*
X4016756Y3971036D01*
X4007358Y3975607D01*
X3993641Y3980179D01*
X3970527Y3980179D01*
X3956558Y3975607D01*
X3947413Y3971036D01*
X3938270Y3961637D01*
X3933443Y3952494D01*
X3933443Y3933952D01*
X3938270Y3924807D01*
X3947413Y3915410D01*
X3956558Y3910837D01*
X4016756Y3815842D02*
G01*
X4025900Y3824986D01*
X4030472Y3838955D01*
X4030472Y3857244D01*
X4025900Y3871213D01*
X4016756Y3880357D01*
X4007358Y3880357D01*
X3998213Y3875786D01*
X3993641Y3871213D01*
X3989070Y3862070D01*
X3979672Y3834129D01*
X3975100Y3824986D01*
X3970527Y3820413D01*
X3961129Y3815842D01*
X3947413Y3815842D01*
X3938270Y3824986D01*
X3933443Y3838955D01*
X3933443Y3857244D01*
X3938270Y3871213D01*
X3947413Y3880357D01*
X4030472Y3751579D02*
G01*
X3933443Y3751579D01*
X4030472Y3721100D02*
G01*
X3933443Y3721100D01*
X4030472Y3721100D02*
G01*
X3933443Y3656329D01*
X4030472Y3656329D02*
G01*
X3933443Y3656329D01*
X4030472Y3593592D02*
G01*
X3933443Y3593592D01*
X4030472Y3625850D02*
G01*
X4030472Y3561334D01*
D11*
X4483100Y3125215D02*
G01*
X4483100Y3047237D01*
X4488179Y3031744D01*
X4498593Y3021329D01*
X4514341Y3016250D01*
X4524756Y3016250D01*
X4540250Y3021329D01*
X4550663Y3031744D01*
X4555743Y3047237D01*
X4555743Y3125215D01*
X4600447Y3125215D02*
G01*
X4657597Y3125215D01*
X4626609Y3083560D01*
X4642104Y3083560D01*
X4652518Y3078479D01*
X4657597Y3073400D01*
X4662931Y3057652D01*
X4662931Y3047237D01*
X4657597Y3031744D01*
X4647184Y3021329D01*
X4631690Y3016250D01*
X4616195Y3016250D01*
X4600447Y3021329D01*
X4595368Y3026410D01*
X4590034Y3036823D01*
G36*
X5143449Y-444500D02*
G01*
X5141772Y-444601D01*
X5138572Y-445465D01*
X5137048Y-446176D01*
X5134457Y-448208D01*
X5107940Y-474878D01*
X5106314Y-477723D01*
X5105755Y-479298D01*
X5105349Y-482600D01*
X5105450Y-662076D01*
X5105755Y-663702D01*
X5107025Y-666750D01*
X5109057Y-669391D01*
X5135676Y-695858D01*
X5137048Y-696823D01*
X5140147Y-698042D01*
X5141772Y-698398D01*
X5283149Y-698500D01*
X5286400Y-698042D01*
X5289499Y-696823D01*
X5292090Y-694791D01*
X5294122Y-692150D01*
X5295392Y-689102D01*
X5295849Y-685800D01*
X5295392Y-682498D01*
X5294122Y-679450D01*
X5292090Y-676808D01*
X5289499Y-674776D01*
X5286400Y-673557D01*
X5283149Y-673100D01*
X5148681Y-673100D01*
X5130749Y-655116D01*
X5130749Y-487883D01*
X5148681Y-469900D01*
X5284774Y-469798D01*
X5287975Y-468934D01*
X5289499Y-468223D01*
X5292090Y-466191D01*
X5294122Y-463550D01*
X5295392Y-460501D01*
X5295849Y-457200D01*
X5295392Y-453898D01*
X5294122Y-450850D01*
X5292090Y-448208D01*
X5289499Y-446176D01*
X5286400Y-444957D01*
X5283149Y-444500D01*
G37*
G36*
X5156149Y-546100D02*
G01*
X5154472Y-546201D01*
X5151272Y-547065D01*
X5149748Y-547776D01*
X5147157Y-549808D01*
X5145125Y-552450D01*
X5144363Y-553923D01*
X5143550Y-557123D01*
X5143398Y-558800D01*
X5143855Y-562102D01*
X5144363Y-563676D01*
X5146040Y-566521D01*
X5185257Y-605891D01*
X5187848Y-607923D01*
X5190947Y-609193D01*
X5194198Y-609600D01*
X5197500Y-609193D01*
X5200599Y-607923D01*
X5203190Y-605891D01*
X5205222Y-603250D01*
X5205984Y-601776D01*
X5206796Y-598576D01*
X5206949Y-596900D01*
X5206492Y-593598D01*
X5205984Y-592023D01*
X5204307Y-589178D01*
X5186781Y-571500D01*
X5297474Y-571398D01*
X5300675Y-570534D01*
X5302199Y-569823D01*
X5304790Y-567791D01*
X5306822Y-565150D01*
X5308092Y-562102D01*
X5308549Y-558800D01*
X5308092Y-555498D01*
X5306822Y-552450D01*
X5304790Y-549808D01*
X5302199Y-547776D01*
X5299100Y-546557D01*
X5295849Y-546100D01*
G37*
G36*
X5194198Y-508000D02*
G01*
X5190947Y-508406D01*
X5187848Y-509676D01*
X5185257Y-511708D01*
X5146040Y-551078D01*
X5144363Y-553923D01*
X5143550Y-557123D01*
X5143398Y-558800D01*
X5143855Y-562102D01*
X5144363Y-563676D01*
X5146040Y-566521D01*
X5148376Y-568858D01*
X5149748Y-569823D01*
X5152847Y-571093D01*
X5156149Y-571500D01*
X5159400Y-571093D01*
X5162499Y-569823D01*
X5165090Y-567791D01*
X5204307Y-528421D01*
X5205984Y-525576D01*
X5206796Y-522376D01*
X5206949Y-520700D01*
X5206492Y-517398D01*
X5205984Y-515823D01*
X5204307Y-512978D01*
X5201970Y-510641D01*
X5200599Y-509676D01*
X5197500Y-508406D01*
G37*
G36*
X5194198Y-889000D02*
G01*
X5190947Y-889406D01*
X5187848Y-890676D01*
X5185257Y-892708D01*
X5146040Y-932078D01*
X5144363Y-934923D01*
X5143550Y-938123D01*
X5143398Y-939800D01*
X5143855Y-943102D01*
X5144363Y-944676D01*
X5146040Y-947521D01*
X5148376Y-949858D01*
X5149748Y-950823D01*
X5152847Y-952093D01*
X5156149Y-952500D01*
X5159400Y-952093D01*
X5162499Y-950823D01*
X5165090Y-948791D01*
X5204307Y-909421D01*
X5205984Y-906576D01*
X5206796Y-903376D01*
X5206949Y-901700D01*
X5206492Y-898398D01*
X5205984Y-896823D01*
X5204307Y-893978D01*
X5201970Y-891641D01*
X5200599Y-890676D01*
X5197500Y-889406D01*
G37*
G36*
X5156149Y-927100D02*
G01*
X5154472Y-927201D01*
X5151272Y-928065D01*
X5149748Y-928776D01*
X5147157Y-930808D01*
X5145125Y-933450D01*
X5144363Y-934923D01*
X5143550Y-938123D01*
X5143398Y-939800D01*
X5143855Y-943102D01*
X5144363Y-944676D01*
X5146040Y-947521D01*
X5185257Y-986891D01*
X5187848Y-988923D01*
X5190947Y-990193D01*
X5194198Y-990600D01*
X5197500Y-990193D01*
X5200599Y-988923D01*
X5203190Y-986891D01*
X5205222Y-984250D01*
X5205984Y-982776D01*
X5206796Y-979576D01*
X5206949Y-977900D01*
X5206492Y-974598D01*
X5205984Y-973023D01*
X5204307Y-970178D01*
X5186781Y-952500D01*
X5297474Y-952398D01*
X5300675Y-951534D01*
X5302199Y-950823D01*
X5304790Y-948791D01*
X5306822Y-946150D01*
X5308092Y-943102D01*
X5308549Y-939800D01*
X5308092Y-936498D01*
X5306822Y-933450D01*
X5304790Y-930808D01*
X5302199Y-928776D01*
X5299100Y-927557D01*
X5295849Y-927100D01*
G37*
G36*
X5143449Y-825500D02*
G01*
X5141772Y-825601D01*
X5138572Y-826465D01*
X5137048Y-827176D01*
X5134457Y-829208D01*
X5107940Y-855878D01*
X5106314Y-858723D01*
X5105755Y-860298D01*
X5105349Y-863600D01*
X5105450Y-1043076D01*
X5105755Y-1044702D01*
X5107025Y-1047750D01*
X5109057Y-1050391D01*
X5135676Y-1076858D01*
X5137048Y-1077823D01*
X5140147Y-1079042D01*
X5141772Y-1079398D01*
X5283149Y-1079500D01*
X5286400Y-1079042D01*
X5289499Y-1077823D01*
X5292090Y-1075791D01*
X5294122Y-1073150D01*
X5295392Y-1070102D01*
X5295849Y-1066800D01*
X5295392Y-1063498D01*
X5294122Y-1060450D01*
X5292090Y-1057808D01*
X5289499Y-1055776D01*
X5286400Y-1054557D01*
X5283149Y-1054100D01*
X5148681Y-1054100D01*
X5130749Y-1036116D01*
X5130749Y-868883D01*
X5148681Y-850900D01*
X5284774Y-850798D01*
X5287975Y-849934D01*
X5289499Y-849223D01*
X5292090Y-847191D01*
X5294122Y-844550D01*
X5295392Y-841502D01*
X5295849Y-838200D01*
X5295392Y-834898D01*
X5294122Y-831850D01*
X5292090Y-829208D01*
X5289499Y-827176D01*
X5286400Y-825957D01*
X5283149Y-825500D01*
G37*
G36*
X5194198Y-1270000D02*
G01*
X5190947Y-1270406D01*
X5187848Y-1271676D01*
X5185257Y-1273708D01*
X5146040Y-1313078D01*
X5144363Y-1315923D01*
X5143550Y-1319123D01*
X5143398Y-1320800D01*
X5143855Y-1324102D01*
X5144363Y-1325676D01*
X5146040Y-1328521D01*
X5148376Y-1330858D01*
X5149748Y-1331823D01*
X5152847Y-1333093D01*
X5156149Y-1333500D01*
X5159400Y-1333093D01*
X5162499Y-1331823D01*
X5165090Y-1329791D01*
X5204307Y-1290421D01*
X5205984Y-1287576D01*
X5206796Y-1284376D01*
X5206949Y-1282700D01*
X5206492Y-1279398D01*
X5205984Y-1277823D01*
X5204307Y-1274978D01*
X5201970Y-1272641D01*
X5200599Y-1271676D01*
X5197500Y-1270406D01*
G37*
G36*
X5156149Y-1308100D02*
G01*
X5154472Y-1308201D01*
X5151272Y-1309065D01*
X5149748Y-1309776D01*
X5147157Y-1311808D01*
X5145125Y-1314450D01*
X5144363Y-1315923D01*
X5143550Y-1319123D01*
X5143398Y-1320800D01*
X5143855Y-1324102D01*
X5144363Y-1325676D01*
X5146040Y-1328521D01*
X5185257Y-1367891D01*
X5187848Y-1369923D01*
X5190947Y-1371193D01*
X5194198Y-1371600D01*
X5197500Y-1371193D01*
X5200599Y-1369923D01*
X5203190Y-1367891D01*
X5205222Y-1365250D01*
X5205984Y-1363776D01*
X5206796Y-1360576D01*
X5206949Y-1358900D01*
X5206492Y-1355598D01*
X5205984Y-1354023D01*
X5204307Y-1351178D01*
X5186781Y-1333500D01*
X5297474Y-1333398D01*
X5300675Y-1332534D01*
X5302199Y-1331823D01*
X5304790Y-1329791D01*
X5306822Y-1327150D01*
X5308092Y-1324102D01*
X5308549Y-1320800D01*
X5308092Y-1317498D01*
X5306822Y-1314450D01*
X5304790Y-1311808D01*
X5302199Y-1309776D01*
X5299100Y-1308557D01*
X5295849Y-1308100D01*
G37*
G36*
X5143449Y-1206500D02*
G01*
X5141772Y-1206601D01*
X5138572Y-1207465D01*
X5137048Y-1208176D01*
X5134457Y-1210208D01*
X5107940Y-1236878D01*
X5106314Y-1239723D01*
X5105755Y-1241298D01*
X5105349Y-1244600D01*
X5105450Y-1424076D01*
X5105755Y-1425702D01*
X5107025Y-1428750D01*
X5109057Y-1431391D01*
X5135676Y-1457858D01*
X5137048Y-1458823D01*
X5140147Y-1460042D01*
X5141772Y-1460398D01*
X5283149Y-1460500D01*
X5286400Y-1460042D01*
X5289499Y-1458823D01*
X5292090Y-1456791D01*
X5294122Y-1454150D01*
X5295392Y-1451102D01*
X5295849Y-1447800D01*
X5295392Y-1444498D01*
X5294122Y-1441450D01*
X5292090Y-1438808D01*
X5289499Y-1436776D01*
X5286400Y-1435557D01*
X5283149Y-1435100D01*
X5148681Y-1435100D01*
X5130749Y-1417116D01*
X5130749Y-1249883D01*
X5148681Y-1231900D01*
X5284774Y-1231798D01*
X5287975Y-1230934D01*
X5289499Y-1230223D01*
X5292090Y-1228191D01*
X5294122Y-1225550D01*
X5295392Y-1222502D01*
X5295849Y-1219200D01*
X5295392Y-1215898D01*
X5294122Y-1212850D01*
X5292090Y-1210208D01*
X5289499Y-1208176D01*
X5286400Y-1206957D01*
X5283149Y-1206500D01*
G37*
G36*
X5194198Y-1651000D02*
G01*
X5190947Y-1651406D01*
X5187848Y-1652676D01*
X5185257Y-1654708D01*
X5146040Y-1694078D01*
X5144363Y-1696923D01*
X5143550Y-1700123D01*
X5143398Y-1701800D01*
X5143855Y-1705102D01*
X5144363Y-1706676D01*
X5146040Y-1709521D01*
X5148376Y-1711858D01*
X5149748Y-1712823D01*
X5152847Y-1714093D01*
X5156149Y-1714500D01*
X5159400Y-1714093D01*
X5162499Y-1712823D01*
X5165090Y-1710791D01*
X5204307Y-1671421D01*
X5205984Y-1668576D01*
X5206796Y-1665376D01*
X5206949Y-1663700D01*
X5206492Y-1660398D01*
X5205984Y-1658823D01*
X5204307Y-1655978D01*
X5201970Y-1653641D01*
X5200599Y-1652676D01*
X5197500Y-1651406D01*
G37*
G36*
X5156149Y-1689100D02*
G01*
X5154472Y-1689201D01*
X5151272Y-1690065D01*
X5149748Y-1690776D01*
X5147157Y-1692808D01*
X5145125Y-1695450D01*
X5144363Y-1696923D01*
X5143550Y-1700123D01*
X5143398Y-1701800D01*
X5143855Y-1705102D01*
X5144363Y-1706676D01*
X5146040Y-1709521D01*
X5185257Y-1748891D01*
X5187848Y-1750923D01*
X5190947Y-1752193D01*
X5194198Y-1752600D01*
X5197500Y-1752193D01*
X5200599Y-1750923D01*
X5203190Y-1748891D01*
X5205222Y-1746250D01*
X5205984Y-1744776D01*
X5206796Y-1741576D01*
X5206949Y-1739900D01*
X5206492Y-1736598D01*
X5205984Y-1735023D01*
X5204307Y-1732178D01*
X5186781Y-1714500D01*
X5297474Y-1714398D01*
X5300675Y-1713534D01*
X5302199Y-1712823D01*
X5304790Y-1710791D01*
X5306822Y-1708150D01*
X5308092Y-1705102D01*
X5308549Y-1701800D01*
X5308092Y-1698498D01*
X5306822Y-1695450D01*
X5304790Y-1692808D01*
X5302199Y-1690776D01*
X5299100Y-1689557D01*
X5295849Y-1689100D01*
G37*
G36*
X5143449Y-1587500D02*
G01*
X5141772Y-1587601D01*
X5138572Y-1588465D01*
X5137048Y-1589176D01*
X5134457Y-1591208D01*
X5107940Y-1617878D01*
X5106314Y-1620723D01*
X5105755Y-1622298D01*
X5105349Y-1625600D01*
X5105450Y-1805076D01*
X5105755Y-1806702D01*
X5107025Y-1809750D01*
X5109057Y-1812391D01*
X5135676Y-1838858D01*
X5137048Y-1839823D01*
X5140147Y-1841042D01*
X5141772Y-1841398D01*
X5283149Y-1841500D01*
X5286400Y-1841042D01*
X5289499Y-1839823D01*
X5292090Y-1837791D01*
X5294122Y-1835150D01*
X5295392Y-1832102D01*
X5295849Y-1828800D01*
X5295392Y-1825498D01*
X5294122Y-1822450D01*
X5292090Y-1819808D01*
X5289499Y-1817776D01*
X5286400Y-1816557D01*
X5283149Y-1816100D01*
X5148681Y-1816100D01*
X5130749Y-1798116D01*
X5130749Y-1630883D01*
X5148681Y-1612900D01*
X5284774Y-1612798D01*
X5287975Y-1611934D01*
X5289499Y-1611223D01*
X5292090Y-1609191D01*
X5294122Y-1606550D01*
X5295392Y-1603502D01*
X5295849Y-1600200D01*
X5295392Y-1596898D01*
X5294122Y-1593850D01*
X5292090Y-1591208D01*
X5289499Y-1589176D01*
X5286400Y-1587957D01*
X5283149Y-1587500D01*
G37*
G36*
X5156200Y1231900D02*
G01*
X5154523Y1231798D01*
X5151323Y1230934D01*
X5149850Y1230223D01*
X5147208Y1228191D01*
X5121808Y1202791D01*
X5119776Y1200150D01*
X5118557Y1197102D01*
X5118201Y1195476D01*
X5118201Y1014323D01*
X5119065Y1011123D01*
X5119776Y1009650D01*
X5121808Y1007008D01*
X5147208Y981608D01*
X5149850Y979576D01*
X5152898Y978357D01*
X5154523Y978001D01*
X5297576Y978001D01*
X5300776Y978865D01*
X5302250Y979576D01*
X5304891Y981608D01*
X5306923Y984250D01*
X5308142Y987298D01*
X5308498Y988923D01*
X5308498Y992276D01*
X5307634Y995476D01*
X5306923Y996950D01*
X5304891Y999591D01*
X5302250Y1001623D01*
X5299202Y1002842D01*
X5297576Y1003198D01*
X5161483Y1003300D01*
X5143500Y1021283D01*
X5143500Y1188516D01*
X5161483Y1206500D01*
X5297576Y1206601D01*
X5300776Y1207465D01*
X5302250Y1208176D01*
X5304891Y1210208D01*
X5306923Y1212850D01*
X5308142Y1215898D01*
X5308498Y1217523D01*
X5308498Y1220876D01*
X5307634Y1224076D01*
X5306923Y1225550D01*
X5304891Y1228191D01*
X5302250Y1230223D01*
X5299202Y1231442D01*
X5297576Y1231798D01*
G37*
G36*
X5168900Y1130300D02*
G01*
X5167223Y1130198D01*
X5164023Y1129334D01*
X5162550Y1128623D01*
X5159908Y1126591D01*
X5157876Y1123950D01*
X5156606Y1120902D01*
X5156200Y1117600D01*
X5156606Y1114298D01*
X5157876Y1111250D01*
X5159908Y1108608D01*
X5198008Y1070508D01*
X5200650Y1068476D01*
X5203698Y1067206D01*
X5207000Y1066800D01*
X5210302Y1067206D01*
X5213350Y1068476D01*
X5215991Y1070508D01*
X5218023Y1073150D01*
X5219293Y1076198D01*
X5219700Y1079500D01*
X5219293Y1082802D01*
X5218023Y1085850D01*
X5215991Y1088491D01*
X5199583Y1104900D01*
X5310276Y1105001D01*
X5313476Y1105865D01*
X5314950Y1106576D01*
X5317591Y1108608D01*
X5319623Y1111250D01*
X5320842Y1114298D01*
X5321198Y1115923D01*
X5321198Y1119276D01*
X5320334Y1122476D01*
X5319623Y1123950D01*
X5317591Y1126591D01*
X5314950Y1128623D01*
X5311902Y1129842D01*
X5310276Y1130198D01*
G37*
G36*
X5207000Y1168400D02*
G01*
X5203698Y1167993D01*
X5200650Y1166723D01*
X5198008Y1164691D01*
X5159908Y1126591D01*
X5157876Y1123950D01*
X5156606Y1120902D01*
X5156200Y1117600D01*
X5156606Y1114298D01*
X5157876Y1111250D01*
X5159908Y1108608D01*
X5162550Y1106576D01*
X5165598Y1105306D01*
X5168900Y1104900D01*
X5172202Y1105306D01*
X5175250Y1106576D01*
X5177891Y1108608D01*
X5215991Y1146708D01*
X5218023Y1149350D01*
X5219293Y1152398D01*
X5219700Y1155700D01*
X5219293Y1159002D01*
X5218023Y1162050D01*
X5215991Y1164691D01*
X5213350Y1166723D01*
X5210302Y1167993D01*
G37*
G36*
X5207000Y787400D02*
G01*
X5203698Y786993D01*
X5200650Y785723D01*
X5198008Y783691D01*
X5159908Y745591D01*
X5157876Y742950D01*
X5156606Y739902D01*
X5156200Y736600D01*
X5156606Y733298D01*
X5157876Y730250D01*
X5159908Y727608D01*
X5162550Y725576D01*
X5165598Y724306D01*
X5168900Y723900D01*
X5172202Y724306D01*
X5175250Y725576D01*
X5177891Y727608D01*
X5215991Y765708D01*
X5218023Y768350D01*
X5219293Y771398D01*
X5219700Y774700D01*
X5219293Y778002D01*
X5218023Y781050D01*
X5215991Y783691D01*
X5213350Y785723D01*
X5210302Y786993D01*
G37*
G36*
X5168900Y749300D02*
G01*
X5167223Y749198D01*
X5164023Y748334D01*
X5162550Y747623D01*
X5159908Y745591D01*
X5157876Y742950D01*
X5156606Y739902D01*
X5156200Y736600D01*
X5156606Y733298D01*
X5157876Y730250D01*
X5159908Y727608D01*
X5198008Y689508D01*
X5200650Y687476D01*
X5203698Y686206D01*
X5207000Y685800D01*
X5210302Y686206D01*
X5213350Y687476D01*
X5215991Y689508D01*
X5218023Y692150D01*
X5219293Y695198D01*
X5219700Y698500D01*
X5219293Y701802D01*
X5218023Y704850D01*
X5215991Y707491D01*
X5199583Y723900D01*
X5310276Y724001D01*
X5313476Y724865D01*
X5314950Y725576D01*
X5317591Y727608D01*
X5319623Y730250D01*
X5320842Y733298D01*
X5321198Y734923D01*
X5321198Y738276D01*
X5320334Y741476D01*
X5319623Y742950D01*
X5317591Y745591D01*
X5314950Y747623D01*
X5311902Y748842D01*
X5310276Y749198D01*
G37*
G36*
X5156200Y850900D02*
G01*
X5154523Y850798D01*
X5151323Y849934D01*
X5149850Y849223D01*
X5147208Y847191D01*
X5121808Y821791D01*
X5119776Y819150D01*
X5118557Y816102D01*
X5118201Y814476D01*
X5118201Y633323D01*
X5119065Y630123D01*
X5119776Y628650D01*
X5121808Y626008D01*
X5147208Y600608D01*
X5149850Y598576D01*
X5152898Y597357D01*
X5154523Y597001D01*
X5297576Y597001D01*
X5300776Y597865D01*
X5302250Y598576D01*
X5304891Y600608D01*
X5306923Y603250D01*
X5308142Y606298D01*
X5308498Y607923D01*
X5308498Y611276D01*
X5307634Y614476D01*
X5306923Y615950D01*
X5304891Y618591D01*
X5302250Y620623D01*
X5299202Y621842D01*
X5297576Y622198D01*
X5161483Y622300D01*
X5143500Y640283D01*
X5143500Y807516D01*
X5161483Y825500D01*
X5297576Y825601D01*
X5300776Y826465D01*
X5302250Y827176D01*
X5304891Y829208D01*
X5306923Y831850D01*
X5308142Y834898D01*
X5308498Y836523D01*
X5308498Y839876D01*
X5307634Y843076D01*
X5306923Y844550D01*
X5304891Y847191D01*
X5302250Y849223D01*
X5299202Y850442D01*
X5297576Y850798D01*
G37*
G36*
X5207000Y406400D02*
G01*
X5203698Y405993D01*
X5200650Y404723D01*
X5198008Y402691D01*
X5159908Y364591D01*
X5157876Y361950D01*
X5156606Y358902D01*
X5156200Y355600D01*
X5156606Y352298D01*
X5157876Y349250D01*
X5159908Y346608D01*
X5162550Y344576D01*
X5165598Y343306D01*
X5168900Y342900D01*
X5172202Y343306D01*
X5175250Y344576D01*
X5177891Y346608D01*
X5215991Y384708D01*
X5218023Y387350D01*
X5219293Y390398D01*
X5219700Y393700D01*
X5219293Y397002D01*
X5218023Y400050D01*
X5215991Y402691D01*
X5213350Y404723D01*
X5210302Y405993D01*
G37*
G36*
X5168900Y368300D02*
G01*
X5167223Y368198D01*
X5164023Y367334D01*
X5162550Y366623D01*
X5159908Y364591D01*
X5157876Y361950D01*
X5156606Y358902D01*
X5156200Y355600D01*
X5156606Y352298D01*
X5157876Y349250D01*
X5159908Y346608D01*
X5198008Y308508D01*
X5200650Y306476D01*
X5203698Y305206D01*
X5207000Y304800D01*
X5210302Y305206D01*
X5213350Y306476D01*
X5215991Y308508D01*
X5218023Y311150D01*
X5219293Y314198D01*
X5219700Y317500D01*
X5219293Y320802D01*
X5218023Y323850D01*
X5215991Y326491D01*
X5199583Y342900D01*
X5310276Y343001D01*
X5313476Y343865D01*
X5314950Y344576D01*
X5317591Y346608D01*
X5319623Y349250D01*
X5320842Y352298D01*
X5321198Y353923D01*
X5321198Y357276D01*
X5320334Y360476D01*
X5319623Y361950D01*
X5317591Y364591D01*
X5314950Y366623D01*
X5311902Y367842D01*
X5310276Y368198D01*
G37*
G36*
X5156200Y469900D02*
G01*
X5154523Y469798D01*
X5151323Y468934D01*
X5149850Y468223D01*
X5147208Y466191D01*
X5121808Y440791D01*
X5119776Y438150D01*
X5118557Y435101D01*
X5118201Y433476D01*
X5118201Y252323D01*
X5119065Y249123D01*
X5119776Y247650D01*
X5121808Y245008D01*
X5147208Y219608D01*
X5149850Y217576D01*
X5152898Y216357D01*
X5154523Y216001D01*
X5297576Y216001D01*
X5300776Y216865D01*
X5302250Y217576D01*
X5304891Y219608D01*
X5306923Y222250D01*
X5308142Y225298D01*
X5308498Y226923D01*
X5308498Y230276D01*
X5307634Y233476D01*
X5306923Y234950D01*
X5304891Y237591D01*
X5302250Y239623D01*
X5299202Y240842D01*
X5297576Y241198D01*
X5161483Y241300D01*
X5143500Y259283D01*
X5143500Y426516D01*
X5161483Y444500D01*
X5297576Y444601D01*
X5300776Y445465D01*
X5302250Y446176D01*
X5304891Y448208D01*
X5306923Y450850D01*
X5308142Y453898D01*
X5308498Y455523D01*
X5308498Y458876D01*
X5307634Y462076D01*
X5306923Y463550D01*
X5304891Y466191D01*
X5302250Y468223D01*
X5299202Y469442D01*
X5297576Y469798D01*
G37*
G36*
X5207000Y25400D02*
G01*
X5203698Y24993D01*
X5200650Y23723D01*
X5198008Y21691D01*
X5159908Y-16408D01*
X5157876Y-19050D01*
X5156606Y-22098D01*
X5156200Y-25400D01*
X5156606Y-28702D01*
X5157876Y-31750D01*
X5159908Y-34391D01*
X5162550Y-36423D01*
X5165598Y-37693D01*
X5168900Y-38100D01*
X5172202Y-37693D01*
X5175250Y-36423D01*
X5177891Y-34391D01*
X5215991Y3708D01*
X5218023Y6350D01*
X5219293Y9398D01*
X5219700Y12700D01*
X5219293Y16002D01*
X5218023Y19050D01*
X5215991Y21691D01*
X5213350Y23723D01*
X5210302Y24993D01*
G37*
G36*
X5168900Y-12700D02*
G01*
X5167223Y-12801D01*
X5164023Y-13665D01*
X5162550Y-14376D01*
X5159908Y-16408D01*
X5157876Y-19050D01*
X5156606Y-22098D01*
X5156200Y-25400D01*
X5156606Y-28702D01*
X5157876Y-31750D01*
X5159908Y-34391D01*
X5198008Y-72491D01*
X5200650Y-74523D01*
X5203698Y-75793D01*
X5207000Y-76200D01*
X5210302Y-75793D01*
X5213350Y-74523D01*
X5215991Y-72491D01*
X5218023Y-69850D01*
X5219293Y-66802D01*
X5219700Y-63500D01*
X5219293Y-60198D01*
X5218023Y-57150D01*
X5215991Y-54508D01*
X5199583Y-38100D01*
X5310276Y-37998D01*
X5313476Y-37134D01*
X5314950Y-36423D01*
X5317591Y-34391D01*
X5319623Y-31750D01*
X5320842Y-28702D01*
X5321198Y-27076D01*
X5321198Y-23723D01*
X5320334Y-20523D01*
X5319623Y-19050D01*
X5317591Y-16408D01*
X5314950Y-14376D01*
X5311902Y-13157D01*
X5310276Y-12801D01*
G37*
G36*
X5156200Y88900D02*
G01*
X5154523Y88798D01*
X5151323Y87934D01*
X5149850Y87223D01*
X5147208Y85191D01*
X5121808Y59791D01*
X5119776Y57150D01*
X5118557Y54102D01*
X5118201Y52476D01*
X5118201Y-128676D01*
X5119065Y-131876D01*
X5119776Y-133350D01*
X5121808Y-135991D01*
X5147208Y-161391D01*
X5149850Y-163423D01*
X5152898Y-164642D01*
X5154523Y-164998D01*
X5297576Y-164998D01*
X5300776Y-164134D01*
X5302250Y-163423D01*
X5304891Y-161391D01*
X5306923Y-158750D01*
X5308142Y-155702D01*
X5308498Y-154076D01*
X5308498Y-150723D01*
X5307634Y-147523D01*
X5306923Y-146050D01*
X5304891Y-143408D01*
X5302250Y-141376D01*
X5299202Y-140157D01*
X5297576Y-139801D01*
X5161483Y-139700D01*
X5143500Y-121716D01*
X5143500Y45516D01*
X5161483Y63500D01*
X5297576Y63601D01*
X5300776Y64465D01*
X5302250Y65176D01*
X5304891Y67208D01*
X5306923Y69850D01*
X5308142Y72898D01*
X5308498Y74523D01*
X5308498Y77876D01*
X5307634Y81076D01*
X5306923Y82550D01*
X5304891Y85191D01*
X5302250Y87223D01*
X5299202Y88442D01*
X5297576Y88798D01*
G37*
G36*
X990600Y-762000D02*
G01*
X988923Y-762101D01*
X985723Y-762965D01*
X984250Y-763676D01*
X981608Y-765708D01*
X979576Y-768350D01*
X978357Y-771398D01*
X978001Y-773023D01*
X978001Y-776376D01*
X978865Y-779576D01*
X979576Y-781050D01*
X981608Y-783691D01*
X984250Y-785723D01*
X987298Y-786942D01*
X988923Y-787298D01*
X1125016Y-787400D01*
X1143000Y-805383D01*
X1143000Y-972616D01*
X1125016Y-990600D01*
X988923Y-990701D01*
X985723Y-991565D01*
X984250Y-992276D01*
X981608Y-994308D01*
X979576Y-996950D01*
X978357Y-999998D01*
X978001Y-1001623D01*
X978001Y-1004976D01*
X978865Y-1008176D01*
X979576Y-1009650D01*
X981608Y-1012291D01*
X984250Y-1014323D01*
X987298Y-1015542D01*
X988923Y-1015898D01*
X1131976Y-1015898D01*
X1135176Y-1015034D01*
X1136650Y-1014323D01*
X1139291Y-1012291D01*
X1164691Y-986891D01*
X1166723Y-984250D01*
X1167942Y-981202D01*
X1168298Y-979576D01*
X1168298Y-798423D01*
X1167434Y-795223D01*
X1166723Y-793750D01*
X1164691Y-791108D01*
X1139291Y-765708D01*
X1136650Y-763676D01*
X1133602Y-762457D01*
X1131976Y-762101D01*
G37*
G36*
X1079500Y-850900D02*
G01*
X1076198Y-851306D01*
X1073150Y-852576D01*
X1070508Y-854608D01*
X1068476Y-857250D01*
X1067206Y-860298D01*
X1066800Y-863600D01*
X1067206Y-866902D01*
X1068476Y-869950D01*
X1070508Y-872591D01*
X1086916Y-889000D01*
X976223Y-889101D01*
X973023Y-889965D01*
X971550Y-890676D01*
X968908Y-892708D01*
X966876Y-895350D01*
X965657Y-898398D01*
X965301Y-900023D01*
X965301Y-903376D01*
X966165Y-906576D01*
X966876Y-908050D01*
X968908Y-910691D01*
X971550Y-912723D01*
X974598Y-913942D01*
X976223Y-914298D01*
X1119276Y-914298D01*
X1122476Y-913434D01*
X1123950Y-912723D01*
X1126591Y-910691D01*
X1128623Y-908050D01*
X1129893Y-905002D01*
X1130300Y-901700D01*
X1129893Y-898398D01*
X1128623Y-895350D01*
X1126591Y-892708D01*
X1088491Y-854608D01*
X1085850Y-852576D01*
X1082802Y-851306D01*
G37*
G36*
X1117600Y-889000D02*
G01*
X1114298Y-889406D01*
X1111250Y-890676D01*
X1108608Y-892708D01*
X1070508Y-930808D01*
X1068476Y-933450D01*
X1067206Y-936498D01*
X1066800Y-939800D01*
X1067206Y-943102D01*
X1068476Y-946150D01*
X1070508Y-948791D01*
X1073150Y-950823D01*
X1076198Y-952093D01*
X1079500Y-952500D01*
X1082802Y-952093D01*
X1085850Y-950823D01*
X1088491Y-948791D01*
X1126591Y-910691D01*
X1128623Y-908050D01*
X1129893Y-905002D01*
X1130300Y-901700D01*
X1129893Y-898398D01*
X1128623Y-895350D01*
X1126591Y-892708D01*
X1123950Y-890676D01*
X1120902Y-889406D01*
G37*
G36*
X1117600Y-508000D02*
G01*
X1114298Y-508406D01*
X1111250Y-509676D01*
X1108608Y-511708D01*
X1070508Y-549808D01*
X1068476Y-552450D01*
X1067206Y-555498D01*
X1066800Y-558800D01*
X1067206Y-562102D01*
X1068476Y-565150D01*
X1070508Y-567791D01*
X1073150Y-569823D01*
X1076198Y-571093D01*
X1079500Y-571500D01*
X1082802Y-571093D01*
X1085850Y-569823D01*
X1088491Y-567791D01*
X1126591Y-529691D01*
X1128623Y-527050D01*
X1129893Y-524001D01*
X1130300Y-520700D01*
X1129893Y-517398D01*
X1128623Y-514350D01*
X1126591Y-511708D01*
X1123950Y-509676D01*
X1120902Y-508406D01*
G37*
G36*
X1079500Y-469900D02*
G01*
X1076198Y-470306D01*
X1073150Y-471576D01*
X1070508Y-473608D01*
X1068476Y-476250D01*
X1067206Y-479298D01*
X1066800Y-482600D01*
X1067206Y-485901D01*
X1068476Y-488950D01*
X1070508Y-491591D01*
X1086916Y-508000D01*
X976223Y-508101D01*
X973023Y-508965D01*
X971550Y-509676D01*
X968908Y-511708D01*
X966876Y-514350D01*
X965657Y-517398D01*
X965301Y-519023D01*
X965301Y-522376D01*
X966165Y-525576D01*
X966876Y-527050D01*
X968908Y-529691D01*
X971550Y-531723D01*
X974598Y-532942D01*
X976223Y-533298D01*
X1119276Y-533298D01*
X1122476Y-532434D01*
X1123950Y-531723D01*
X1126591Y-529691D01*
X1128623Y-527050D01*
X1129893Y-524001D01*
X1130300Y-520700D01*
X1129893Y-517398D01*
X1128623Y-514350D01*
X1126591Y-511708D01*
X1088491Y-473608D01*
X1085850Y-471576D01*
X1082802Y-470306D01*
G37*
G36*
X990600Y-381000D02*
G01*
X988923Y-381101D01*
X985723Y-381965D01*
X984250Y-382676D01*
X981608Y-384708D01*
X979576Y-387350D01*
X978357Y-390398D01*
X978001Y-392023D01*
X978001Y-395376D01*
X978865Y-398576D01*
X979576Y-400050D01*
X981608Y-402691D01*
X984250Y-404723D01*
X987298Y-405942D01*
X988923Y-406298D01*
X1125016Y-406400D01*
X1143000Y-424383D01*
X1143000Y-591616D01*
X1125016Y-609600D01*
X988923Y-609701D01*
X985723Y-610565D01*
X984250Y-611276D01*
X981608Y-613308D01*
X979576Y-615950D01*
X978357Y-618998D01*
X978001Y-620623D01*
X978001Y-623976D01*
X978865Y-627176D01*
X979576Y-628650D01*
X981608Y-631291D01*
X984250Y-633323D01*
X987298Y-634542D01*
X988923Y-634898D01*
X1131976Y-634898D01*
X1135176Y-634034D01*
X1136650Y-633323D01*
X1139291Y-631291D01*
X1164691Y-605891D01*
X1166723Y-603250D01*
X1167942Y-600202D01*
X1168298Y-598576D01*
X1168298Y-417423D01*
X1167434Y-414223D01*
X1166723Y-412750D01*
X1164691Y-410108D01*
X1139291Y-384708D01*
X1136650Y-382676D01*
X1133602Y-381457D01*
X1131976Y-381101D01*
G37*
G36*
X1117600Y-127000D02*
G01*
X1114298Y-127406D01*
X1111250Y-128676D01*
X1108608Y-130708D01*
X1070508Y-168808D01*
X1068476Y-171450D01*
X1067206Y-174498D01*
X1066800Y-177800D01*
X1067206Y-181102D01*
X1068476Y-184150D01*
X1070508Y-186791D01*
X1073150Y-188823D01*
X1076198Y-190093D01*
X1079500Y-190500D01*
X1082802Y-190093D01*
X1085850Y-188823D01*
X1088491Y-186791D01*
X1126591Y-148691D01*
X1128623Y-146050D01*
X1129893Y-143002D01*
X1130300Y-139700D01*
X1129893Y-136398D01*
X1128623Y-133350D01*
X1126591Y-130708D01*
X1123950Y-128676D01*
X1120902Y-127406D01*
G37*
G36*
X1079500Y-88900D02*
G01*
X1076198Y-89306D01*
X1073150Y-90576D01*
X1070508Y-92608D01*
X1068476Y-95250D01*
X1067206Y-98298D01*
X1066800Y-101600D01*
X1067206Y-104902D01*
X1068476Y-107950D01*
X1070508Y-110591D01*
X1086916Y-127000D01*
X976223Y-127101D01*
X973023Y-127965D01*
X971550Y-128676D01*
X968908Y-130708D01*
X966876Y-133350D01*
X965657Y-136398D01*
X965301Y-138023D01*
X965301Y-141376D01*
X966165Y-144576D01*
X966876Y-146050D01*
X968908Y-148691D01*
X971550Y-150723D01*
X974598Y-151942D01*
X976223Y-152298D01*
X1119276Y-152298D01*
X1122476Y-151434D01*
X1123950Y-150723D01*
X1126591Y-148691D01*
X1128623Y-146050D01*
X1129893Y-143002D01*
X1130300Y-139700D01*
X1129893Y-136398D01*
X1128623Y-133350D01*
X1126591Y-130708D01*
X1088491Y-92608D01*
X1085850Y-90576D01*
X1082802Y-89306D01*
G37*
G36*
X990600Y0D02*
G01*
X988923Y-101D01*
X985723Y-965D01*
X984250Y-1676D01*
X981608Y-3708D01*
X979576Y-6350D01*
X978357Y-9398D01*
X978001Y-11023D01*
X978001Y-14376D01*
X978865Y-17576D01*
X979576Y-19050D01*
X981608Y-21691D01*
X984250Y-23723D01*
X987298Y-24942D01*
X988923Y-25298D01*
X1125016Y-25400D01*
X1143000Y-43383D01*
X1143000Y-210616D01*
X1125016Y-228600D01*
X988923Y-228701D01*
X985723Y-229565D01*
X984250Y-230276D01*
X981608Y-232308D01*
X979576Y-234950D01*
X978357Y-237998D01*
X978001Y-239623D01*
X978001Y-242976D01*
X978865Y-246176D01*
X979576Y-247650D01*
X981608Y-250291D01*
X984250Y-252323D01*
X987298Y-253542D01*
X988923Y-253898D01*
X1131976Y-253898D01*
X1135176Y-253034D01*
X1136650Y-252323D01*
X1139291Y-250291D01*
X1164691Y-224891D01*
X1166723Y-222250D01*
X1167942Y-219202D01*
X1168298Y-217576D01*
X1168298Y-36423D01*
X1167434Y-33223D01*
X1166723Y-31750D01*
X1164691Y-29108D01*
X1139291Y-3708D01*
X1136650Y-1676D01*
X1133602Y-457D01*
X1131976Y-101D01*
G37*
G36*
X1117600Y254000D02*
G01*
X1114298Y253593D01*
X1111250Y252323D01*
X1108608Y250291D01*
X1070508Y212191D01*
X1068476Y209550D01*
X1067206Y206502D01*
X1066800Y203200D01*
X1067206Y199898D01*
X1068476Y196850D01*
X1070508Y194208D01*
X1073150Y192176D01*
X1076198Y190906D01*
X1079500Y190500D01*
X1082802Y190906D01*
X1085850Y192176D01*
X1088491Y194208D01*
X1126591Y232308D01*
X1128623Y234950D01*
X1129893Y237998D01*
X1130300Y241300D01*
X1129893Y244602D01*
X1128623Y247650D01*
X1126591Y250291D01*
X1123950Y252323D01*
X1120902Y253593D01*
G37*
G36*
X1079500Y292100D02*
G01*
X1076198Y291693D01*
X1073150Y290423D01*
X1070508Y288391D01*
X1068476Y285750D01*
X1067206Y282702D01*
X1066800Y279400D01*
X1067206Y276098D01*
X1068476Y273050D01*
X1070508Y270408D01*
X1086916Y254000D01*
X976223Y253898D01*
X973023Y253034D01*
X971550Y252323D01*
X968908Y250291D01*
X966876Y247650D01*
X965657Y244602D01*
X965301Y242976D01*
X965301Y239623D01*
X966165Y236423D01*
X966876Y234950D01*
X968908Y232308D01*
X971550Y230276D01*
X974598Y229057D01*
X976223Y228701D01*
X1119276Y228701D01*
X1122476Y229565D01*
X1123950Y230276D01*
X1126591Y232308D01*
X1128623Y234950D01*
X1129893Y237998D01*
X1130300Y241300D01*
X1129893Y244602D01*
X1128623Y247650D01*
X1126591Y250291D01*
X1088491Y288391D01*
X1085850Y290423D01*
X1082802Y291693D01*
G37*
G36*
X990600Y381000D02*
G01*
X988923Y380898D01*
X985723Y380034D01*
X984250Y379323D01*
X981608Y377291D01*
X979576Y374650D01*
X978357Y371602D01*
X978001Y369976D01*
X978001Y366623D01*
X978865Y363423D01*
X979576Y361950D01*
X981608Y359308D01*
X984250Y357276D01*
X987298Y356057D01*
X988923Y355701D01*
X1125016Y355600D01*
X1143000Y337616D01*
X1143000Y170383D01*
X1125016Y152400D01*
X988923Y152298D01*
X985723Y151434D01*
X984250Y150723D01*
X981608Y148691D01*
X979576Y146050D01*
X978357Y143002D01*
X978001Y141376D01*
X978001Y138023D01*
X978865Y134823D01*
X979576Y133350D01*
X981608Y130708D01*
X984250Y128676D01*
X987298Y127457D01*
X988923Y127101D01*
X1131976Y127101D01*
X1135176Y127965D01*
X1136650Y128676D01*
X1139291Y130708D01*
X1164691Y156108D01*
X1166723Y158750D01*
X1167942Y161798D01*
X1168298Y163423D01*
X1168298Y344576D01*
X1167434Y347776D01*
X1166723Y349250D01*
X1164691Y351891D01*
X1139291Y377291D01*
X1136650Y379323D01*
X1133602Y380542D01*
X1131976Y380898D01*
G37*
D15*
X5298224Y-385003D02*
G01*
X5298224Y-1909003D01*
X4561624Y-1909003D01*
X4561624Y-385003D01*
X5298224Y-385003D01*
X5222214Y-1909003D02*
G01*
X5222214Y-1959803D01*
X5133124Y-1959803D01*
X5133124Y-1909003D01*
X4721809Y-1909003D02*
G01*
X4721809Y-1959803D01*
X4637824Y-1959803D01*
X4637824Y-1909003D01*
X1841500Y-1155700D02*
G01*
X1841500Y635000D01*
X4394200Y635000D01*
X4394200Y-1155700D01*
X1841500Y-1155700D01*
X933500Y-1205097D02*
G01*
X933500Y-2046099D01*
X1673496Y-1205097D02*
G01*
X1673499Y-2046102D01*
X1673499Y-2046102D02*
G01*
X933500Y-2046102D01*
X1673496Y-1205097D02*
G01*
X933500Y-1205097D01*
X1033500Y-1205097D02*
G01*
X1033500Y-2046102D01*
X1128059Y-1205097D02*
G01*
X1128059Y-2046102D01*
X933500Y-1282905D02*
G01*
X933500Y-1283169D01*
X1033500Y-1383169D01*
X1033500Y-1485437D02*
G01*
X1033500Y-1486369D01*
X933500Y-1586369D01*
X933500Y-1665909D02*
G01*
X933500Y-1668848D01*
X1033500Y-1768848D01*
X1033500Y-1881809D02*
G01*
X1027079Y-1881809D01*
X933500Y-1975388D01*
X1585661Y-1205097D02*
G01*
X1585661Y-2046102D01*
X1511274Y-1205097D02*
G01*
X1511274Y-2046102D01*
X1629204Y-1205097D02*
G01*
X1629204Y-2046102D01*
X5429199Y-2884302D02*
G01*
X5429199Y-2043300D01*
X4689203Y-2884302D02*
G01*
X4689200Y-2043297D01*
X4689200Y-2043297D02*
G01*
X5429199Y-2043297D01*
X4689203Y-2884302D02*
G01*
X5429199Y-2884302D01*
X5329199Y-2884302D02*
G01*
X5329199Y-2043297D01*
X5234640Y-2884302D02*
G01*
X5234640Y-2043297D01*
X5429199Y-2806494D02*
G01*
X5429199Y-2806230D01*
X5329199Y-2706230D01*
X5329199Y-2603962D02*
G01*
X5329199Y-2603030D01*
X5429199Y-2503030D01*
X5429199Y-2423490D02*
G01*
X5429199Y-2420551D01*
X5329199Y-2320551D01*
X5329199Y-2207590D02*
G01*
X5335620Y-2207590D01*
X5429199Y-2114011D01*
X4777038Y-2884302D02*
G01*
X4777038Y-2043297D01*
X4851425Y-2884302D02*
G01*
X4851425Y-2043297D01*
X4733495Y-2884302D02*
G01*
X4733495Y-2043297D01*
X1651000Y-2184400D02*
G01*
X1651000Y-2946400D01*
X1397000Y-2946400D01*
X1397000Y-2184400D01*
X1651000Y-2184400D01*
X2463800Y-2184400D02*
G01*
X2463800Y-2946400D01*
X2209800Y-2946400D01*
X2209800Y-2184400D01*
X2463800Y-2184400D01*
X3302000Y-2209800D02*
G01*
X3302000Y-2971800D01*
X3048000Y-2971800D01*
X3048000Y-2209800D01*
X3302000Y-2209800D01*
X4165600Y-2209800D02*
G01*
X4165600Y-2971800D01*
X3911600Y-2971800D01*
X3911600Y-2209800D01*
X4165600Y-2209800D01*
X1143000Y5912789D02*
G01*
X3242995Y5912789D01*
X3242995Y812800D02*
G01*
X3242995Y5912789D01*
X1143000Y812800D02*
G01*
X3242995Y812800D01*
X1143000Y812800D02*
G01*
X1143000Y5912789D01*
X1793011Y6042787D02*
G01*
X2593009Y6042787D01*
X2593009Y5442788D01*
X1793011Y5442788D01*
X1793011Y6042787D01*
X5334990Y5826607D02*
G01*
X5334990Y3266617D01*
X3554984Y3266617D01*
X3554984Y5826607D01*
X5334990Y5826607D01*
X5198872Y1457452D02*
G01*
X5198872Y2957499D01*
X3779011Y2897378D02*
G01*
X3779011Y2857500D01*
X3779011Y2857500D01*
X3779011Y1457452D01*
X5198872Y1457452D01*
X5198872Y2977387D01*
X3778758Y2977387D01*
X3778758Y2957576D01*
X3778900Y2897499D02*
G01*
X3778900Y2957576D01*
X5311000Y1291396D02*
G01*
X5311000Y-232603D01*
X4574400Y-232603D01*
X4574400Y1291396D01*
X5311000Y1291396D01*
X5234990Y-232603D02*
G01*
X5234990Y-283403D01*
X5145900Y-283403D01*
X5145900Y-232603D01*
X4734585Y-232603D02*
G01*
X4734585Y-283403D01*
X4650600Y-283403D01*
X4650600Y-232603D01*
X975499Y-1075496D02*
G01*
X975499Y448503D01*
X1712099Y448503D01*
X1712099Y-1075496D01*
X975499Y-1075496D01*
X1051509Y448503D02*
G01*
X1051509Y499303D01*
X1140599Y499303D01*
X1140599Y448503D01*
X1551914Y448503D02*
G01*
X1551914Y499303D01*
X1635899Y499303D01*
X1635899Y448503D01*
M02*
