G04 Layer: TopLayer*
G04 EasyEDA v6.5.54, 2026-03-01 00:31:17*
G04 5ffec7154e454e17ae970ef37a63e625,3c0a2ecc023845ba9696b03a0d16ddfb,10*
G04 Gerber Generator version 0.2*
G04 Scale: 100 percent, Rotated: No, Reflected: No *
G04 Dimensions in millimeters *
G04 leading zeros omitted , absolute positions ,4 integer and 5 decimal *
%FSLAX45Y45*%
%MOMM*%

%ADD10C,1.0000*%
%ADD11C,0.3000*%
%ADD12C,2.5000*%
%ADD13C,1.5240*%
%ADD14R,1.5240X1.5240*%
%ADD15C,1.6000*%
%ADD16R,1.6000X1.6000*%
%ADD17R,0.0123X1.6000*%
%ADD18C,1.7780*%
%ADD19C,0.6100*%
%ADD20C,0.6200*%

%LPD*%
G36*
X736092Y-3580892D02*
G01*
X732180Y-3580129D01*
X728929Y-3577894D01*
X726694Y-3574643D01*
X725932Y-3570732D01*
X725932Y6853224D01*
X726694Y6857034D01*
X728878Y6860336D01*
X732129Y6862572D01*
X735939Y6863384D01*
X739800Y6862673D01*
X743153Y6860540D01*
X745388Y6857288D01*
X750265Y6846214D01*
X760425Y6827977D01*
X772210Y6810756D01*
X785571Y6794703D01*
X800303Y6779971D01*
X816356Y6766610D01*
X833577Y6754825D01*
X851814Y6744665D01*
X870915Y6736232D01*
X890676Y6729628D01*
X910996Y6724853D01*
X931671Y6721957D01*
X952500Y6720992D01*
X973328Y6721957D01*
X994003Y6724853D01*
X1014323Y6729628D01*
X1034084Y6736232D01*
X1053185Y6744665D01*
X1071422Y6754825D01*
X1088644Y6766610D01*
X1104696Y6779971D01*
X1119428Y6794703D01*
X1132789Y6810756D01*
X1144574Y6827977D01*
X1154734Y6846214D01*
X1163167Y6865315D01*
X1169771Y6885076D01*
X1174546Y6905396D01*
X1177442Y6926072D01*
X1178407Y6946900D01*
X1177442Y6967728D01*
X1174546Y6988403D01*
X1169771Y7008723D01*
X1163167Y7028484D01*
X1154734Y7047585D01*
X1144574Y7065822D01*
X1132789Y7083044D01*
X1119428Y7099096D01*
X1104696Y7113828D01*
X1088644Y7127189D01*
X1071422Y7138974D01*
X1053185Y7149134D01*
X1040942Y7154519D01*
X1037742Y7156754D01*
X1035608Y7160107D01*
X1034897Y7163968D01*
X1035710Y7167778D01*
X1037894Y7171029D01*
X1041196Y7173214D01*
X1045057Y7173975D01*
X5355742Y7173975D01*
X5359603Y7173214D01*
X5362905Y7171029D01*
X5365089Y7167778D01*
X5365902Y7163968D01*
X5365191Y7160107D01*
X5363057Y7156754D01*
X5359857Y7154519D01*
X5347614Y7149134D01*
X5329377Y7138974D01*
X5312156Y7127189D01*
X5296103Y7113828D01*
X5281371Y7099096D01*
X5268010Y7083044D01*
X5256225Y7065822D01*
X5246065Y7047585D01*
X5237632Y7028484D01*
X5231028Y7008723D01*
X5226253Y6988403D01*
X5223357Y6967728D01*
X5222392Y6946900D01*
X5223357Y6926072D01*
X5226253Y6905396D01*
X5231028Y6885076D01*
X5237632Y6865315D01*
X5246065Y6846214D01*
X5256225Y6827977D01*
X5268010Y6810756D01*
X5281371Y6794703D01*
X5296103Y6779971D01*
X5312156Y6766610D01*
X5329377Y6754825D01*
X5347614Y6744665D01*
X5366715Y6736232D01*
X5386476Y6729628D01*
X5406796Y6724853D01*
X5427472Y6721957D01*
X5448300Y6720992D01*
X5469128Y6721957D01*
X5489803Y6724853D01*
X5510123Y6729628D01*
X5529884Y6736232D01*
X5548985Y6744665D01*
X5567222Y6754825D01*
X5584444Y6766610D01*
X5600496Y6779971D01*
X5615228Y6794703D01*
X5628589Y6810756D01*
X5640374Y6827977D01*
X5650534Y6846214D01*
X5654649Y6855561D01*
X5656884Y6858812D01*
X5660237Y6860946D01*
X5664098Y6861657D01*
X5667908Y6860844D01*
X5671159Y6858609D01*
X5673344Y6855307D01*
X5674106Y6851497D01*
X5674106Y-3570732D01*
X5673344Y-3574643D01*
X5671108Y-3577894D01*
X5667857Y-3580129D01*
X5663946Y-3580892D01*
G37*

%LPC*%
G36*
X5410200Y-3515207D02*
G01*
X5431028Y-3514242D01*
X5451703Y-3511346D01*
X5472023Y-3506571D01*
X5491784Y-3499967D01*
X5510885Y-3491534D01*
X5529122Y-3481374D01*
X5546344Y-3469589D01*
X5562396Y-3456228D01*
X5577128Y-3441496D01*
X5590489Y-3425444D01*
X5602274Y-3408222D01*
X5612434Y-3389985D01*
X5620867Y-3370884D01*
X5627471Y-3351123D01*
X5632246Y-3330803D01*
X5635142Y-3310128D01*
X5636107Y-3289300D01*
X5635142Y-3268472D01*
X5632246Y-3247796D01*
X5627471Y-3227476D01*
X5620867Y-3207715D01*
X5612434Y-3188614D01*
X5602274Y-3170377D01*
X5590489Y-3153156D01*
X5577128Y-3137103D01*
X5562396Y-3122371D01*
X5546344Y-3109010D01*
X5529122Y-3097225D01*
X5510885Y-3087065D01*
X5491784Y-3078632D01*
X5472023Y-3072028D01*
X5451703Y-3067253D01*
X5431028Y-3064357D01*
X5410200Y-3063392D01*
X5389372Y-3064357D01*
X5368696Y-3067253D01*
X5348376Y-3072028D01*
X5328615Y-3078632D01*
X5309514Y-3087065D01*
X5291277Y-3097225D01*
X5274056Y-3109010D01*
X5258003Y-3122371D01*
X5243271Y-3137103D01*
X5229910Y-3153156D01*
X5218125Y-3170377D01*
X5207965Y-3188614D01*
X5199532Y-3207715D01*
X5192928Y-3227476D01*
X5188153Y-3247796D01*
X5185257Y-3268472D01*
X5184292Y-3289300D01*
X5185257Y-3310128D01*
X5188153Y-3330803D01*
X5192928Y-3351123D01*
X5199532Y-3370884D01*
X5207965Y-3389985D01*
X5218125Y-3408222D01*
X5229910Y-3425444D01*
X5243271Y-3441496D01*
X5258003Y-3456228D01*
X5274056Y-3469589D01*
X5291277Y-3481374D01*
X5309514Y-3491534D01*
X5328615Y-3499967D01*
X5348376Y-3506571D01*
X5368696Y-3511346D01*
X5389372Y-3514242D01*
G37*
G36*
X977900Y-3502507D02*
G01*
X998728Y-3501542D01*
X1019403Y-3498646D01*
X1039723Y-3493871D01*
X1059484Y-3487267D01*
X1078585Y-3478834D01*
X1096822Y-3468674D01*
X1114044Y-3456889D01*
X1130096Y-3443528D01*
X1144828Y-3428796D01*
X1158189Y-3412744D01*
X1169974Y-3395522D01*
X1180134Y-3377285D01*
X1188567Y-3358184D01*
X1195171Y-3338423D01*
X1199946Y-3318103D01*
X1202842Y-3297428D01*
X1203807Y-3276600D01*
X1202842Y-3255772D01*
X1199946Y-3235096D01*
X1195171Y-3214776D01*
X1188567Y-3195015D01*
X1180134Y-3175914D01*
X1169974Y-3157677D01*
X1158189Y-3140456D01*
X1144828Y-3124403D01*
X1130096Y-3109671D01*
X1114044Y-3096310D01*
X1096822Y-3084525D01*
X1078585Y-3074365D01*
X1059484Y-3065932D01*
X1039723Y-3059328D01*
X1019403Y-3054553D01*
X998728Y-3051657D01*
X977900Y-3050692D01*
X957071Y-3051657D01*
X936396Y-3054553D01*
X916076Y-3059328D01*
X896315Y-3065932D01*
X877214Y-3074365D01*
X858977Y-3084525D01*
X841756Y-3096310D01*
X825703Y-3109671D01*
X810971Y-3124403D01*
X797610Y-3140456D01*
X785825Y-3157677D01*
X775665Y-3175914D01*
X767232Y-3195015D01*
X760628Y-3214776D01*
X755853Y-3235096D01*
X752957Y-3255772D01*
X751992Y-3276600D01*
X752957Y-3297428D01*
X755853Y-3318103D01*
X760628Y-3338423D01*
X767232Y-3358184D01*
X775665Y-3377285D01*
X785825Y-3395522D01*
X797610Y-3412744D01*
X810971Y-3428796D01*
X825703Y-3443528D01*
X841756Y-3456889D01*
X858977Y-3468674D01*
X877214Y-3478834D01*
X896315Y-3487267D01*
X916076Y-3493871D01*
X936396Y-3498646D01*
X957071Y-3501542D01*
G37*
G36*
X3175000Y-2946908D02*
G01*
X3188614Y-2945993D01*
X3201974Y-2943250D01*
X3214878Y-2938780D01*
X3227019Y-2932633D01*
X3238246Y-2924911D01*
X3248406Y-2915767D01*
X3257194Y-2905353D01*
X3264509Y-2893872D01*
X3270250Y-2881477D01*
X3274314Y-2868472D01*
X3276549Y-2855010D01*
X3277006Y-2841396D01*
X3275685Y-2827832D01*
X3272485Y-2814574D01*
X3267608Y-2801823D01*
X3261055Y-2789885D01*
X3252978Y-2778912D01*
X3243478Y-2769108D01*
X3232759Y-2760624D01*
X3221024Y-2753664D01*
X3208477Y-2748381D01*
X3195320Y-2744774D01*
X3181807Y-2742946D01*
X3168192Y-2742946D01*
X3154680Y-2744774D01*
X3141522Y-2748381D01*
X3128975Y-2753664D01*
X3117240Y-2760624D01*
X3106521Y-2769108D01*
X3097022Y-2778912D01*
X3088944Y-2789885D01*
X3082391Y-2801823D01*
X3077514Y-2814574D01*
X3074314Y-2827832D01*
X3072993Y-2841396D01*
X3073450Y-2855010D01*
X3075686Y-2868472D01*
X3079750Y-2881477D01*
X3085490Y-2893872D01*
X3092805Y-2905353D01*
X3101594Y-2915767D01*
X3111754Y-2924911D01*
X3122980Y-2932633D01*
X3135122Y-2938780D01*
X3148025Y-2943250D01*
X3161385Y-2945993D01*
G37*
G36*
X4038600Y-2946908D02*
G01*
X4052214Y-2945993D01*
X4065574Y-2943250D01*
X4078478Y-2938780D01*
X4090619Y-2932633D01*
X4101846Y-2924911D01*
X4112006Y-2915767D01*
X4120794Y-2905353D01*
X4128109Y-2893872D01*
X4133850Y-2881477D01*
X4137914Y-2868472D01*
X4140149Y-2855010D01*
X4140606Y-2841396D01*
X4139285Y-2827832D01*
X4136085Y-2814574D01*
X4131208Y-2801823D01*
X4124655Y-2789885D01*
X4116578Y-2778912D01*
X4107078Y-2769108D01*
X4096359Y-2760624D01*
X4084624Y-2753664D01*
X4072077Y-2748381D01*
X4058920Y-2744774D01*
X4045407Y-2742946D01*
X4031792Y-2742946D01*
X4018279Y-2744774D01*
X4006799Y-2747924D01*
X4003294Y-2748229D01*
X3999839Y-2747314D01*
X3996944Y-2745282D01*
X3770629Y-2518968D01*
X3768445Y-2515666D01*
X3767632Y-2511806D01*
X3767632Y-960170D01*
X3768598Y-955852D01*
X3771341Y-952347D01*
X3775303Y-950315D01*
X3779723Y-950214D01*
X3783787Y-951941D01*
X3786733Y-955294D01*
X3787444Y-956614D01*
X3795522Y-967587D01*
X3805021Y-977392D01*
X3815740Y-985875D01*
X3827475Y-992835D01*
X3840022Y-998118D01*
X3853179Y-1001725D01*
X3866692Y-1003553D01*
X3880307Y-1003553D01*
X3893820Y-1001725D01*
X3906977Y-998118D01*
X3919524Y-992835D01*
X3931259Y-985875D01*
X3941978Y-977392D01*
X3951478Y-967587D01*
X3959555Y-956614D01*
X3966108Y-944676D01*
X3970985Y-931926D01*
X3974185Y-918667D01*
X3975506Y-905103D01*
X3975049Y-891489D01*
X3972814Y-878027D01*
X3970426Y-870305D01*
X3969969Y-866698D01*
X3970832Y-863142D01*
X3972915Y-860145D01*
X4042257Y-790803D01*
X4047642Y-784250D01*
X4051401Y-777189D01*
X4053738Y-769518D01*
X4054551Y-761034D01*
X4054551Y137261D01*
X4055414Y141376D01*
X4057904Y144780D01*
X4061510Y146862D01*
X4065676Y147370D01*
X4076649Y146354D01*
X4086402Y147218D01*
X4095902Y149758D01*
X4104792Y153924D01*
X4112869Y159512D01*
X4119829Y166471D01*
X4125468Y174548D01*
X4129582Y183438D01*
X4132122Y192938D01*
X4132986Y202692D01*
X4132122Y212496D01*
X4129582Y221996D01*
X4125468Y230886D01*
X4119372Y239572D01*
X4118000Y242366D01*
X4117543Y245414D01*
X4117543Y2171293D01*
X4116679Y2179726D01*
X4114393Y2187397D01*
X4110583Y2194458D01*
X4105198Y2201062D01*
X3998366Y2307894D01*
X3996232Y2311044D01*
X3995369Y2314702D01*
X3995928Y2318410D01*
X3997350Y2322525D01*
X4000093Y2335885D01*
X4001008Y2349500D01*
X4000093Y2363114D01*
X3997350Y2376474D01*
X3992879Y2389378D01*
X3986733Y2401519D01*
X3979011Y2412746D01*
X3969867Y2422906D01*
X3959453Y2431694D01*
X3947972Y2439009D01*
X3935577Y2444750D01*
X3922572Y2448814D01*
X3909110Y2451049D01*
X3895496Y2451506D01*
X3881932Y2450185D01*
X3868674Y2446985D01*
X3855923Y2442108D01*
X3843985Y2435555D01*
X3833012Y2427478D01*
X3823208Y2417978D01*
X3814724Y2407259D01*
X3807764Y2395524D01*
X3802481Y2382977D01*
X3798874Y2369820D01*
X3797046Y2356307D01*
X3797046Y2342692D01*
X3798874Y2329180D01*
X3802481Y2316022D01*
X3807764Y2303475D01*
X3814724Y2291740D01*
X3823208Y2281021D01*
X3833012Y2271522D01*
X3843985Y2263444D01*
X3855923Y2256891D01*
X3868674Y2252014D01*
X3881932Y2248814D01*
X3895496Y2247493D01*
X3909110Y2247950D01*
X3922572Y2250186D01*
X3930294Y2252573D01*
X3933901Y2253030D01*
X3937457Y2252167D01*
X3940454Y2250084D01*
X4032758Y2157831D01*
X4034942Y2154529D01*
X4035704Y2150618D01*
X4035704Y1954174D01*
X4034942Y1950313D01*
X4032758Y1947011D01*
X4029456Y1944827D01*
X4025544Y1944014D01*
X4021683Y1944827D01*
X4018381Y1947011D01*
X3968292Y1997049D01*
X3963517Y2001012D01*
X3960774Y2004517D01*
X3959809Y2008784D01*
X3960723Y2013102D01*
X3963365Y2016658D01*
X3969867Y2022093D01*
X3979011Y2032254D01*
X3986733Y2043480D01*
X3990543Y2051050D01*
X3943350Y2051050D01*
X3943350Y2019554D01*
X3942587Y2015693D01*
X3940352Y2012391D01*
X3937101Y2010156D01*
X3933190Y2009393D01*
X3879138Y2009393D01*
X3875278Y2010156D01*
X3871976Y2012391D01*
X3857447Y2026920D01*
X3855212Y2030222D01*
X3854450Y2034133D01*
X3854450Y2051050D01*
X3837533Y2051050D01*
X3833622Y2051812D01*
X3830320Y2054047D01*
X3783584Y2100783D01*
X3781399Y2104085D01*
X3780586Y2107946D01*
X3780586Y2187854D01*
X3781094Y2190902D01*
X3782415Y2193696D01*
X3788511Y2202383D01*
X3792677Y2211273D01*
X3795217Y2220772D01*
X3796080Y2230526D01*
X3795217Y2240330D01*
X3792677Y2249830D01*
X3788511Y2258720D01*
X3782872Y2266797D01*
X3775913Y2273757D01*
X3767886Y2279345D01*
X3758996Y2283510D01*
X3749497Y2286050D01*
X3739692Y2286914D01*
X3729888Y2286050D01*
X3720439Y2283510D01*
X3711498Y2279345D01*
X3703472Y2273757D01*
X3696512Y2266797D01*
X3690874Y2258720D01*
X3686708Y2249830D01*
X3684168Y2240330D01*
X3683304Y2230526D01*
X3684168Y2220772D01*
X3686708Y2211273D01*
X3690874Y2202383D01*
X3696970Y2193696D01*
X3698341Y2190902D01*
X3698798Y2187854D01*
X3698798Y2087321D01*
X3699611Y2078837D01*
X3701948Y2071166D01*
X3705707Y2064105D01*
X3711143Y2057552D01*
X3828745Y1939950D01*
X3833774Y1935784D01*
X3836162Y1932939D01*
X3837381Y1929485D01*
X3837279Y1925828D01*
X3835908Y1922424D01*
X3823208Y1909978D01*
X3814724Y1899259D01*
X3807764Y1887524D01*
X3802481Y1874977D01*
X3798874Y1861820D01*
X3797046Y1848307D01*
X3797046Y1834692D01*
X3798874Y1821180D01*
X3802024Y1809699D01*
X3802329Y1806193D01*
X3801414Y1802739D01*
X3799382Y1799843D01*
X3374237Y1374698D01*
X3368852Y1368094D01*
X3365042Y1361033D01*
X3362756Y1353362D01*
X3362350Y1349349D01*
X3360978Y1345184D01*
X3357981Y1341983D01*
X3353917Y1340307D01*
X3349548Y1340561D01*
X3345687Y1342593D01*
X3342995Y1346047D01*
X3342081Y1350314D01*
X3342081Y1984603D01*
X3342843Y1988515D01*
X3345027Y1991817D01*
X3857193Y2503932D01*
X3860393Y2506116D01*
X3864203Y2506929D01*
X3881932Y2502814D01*
X3895496Y2501493D01*
X3909110Y2501950D01*
X3922572Y2504186D01*
X3935577Y2508250D01*
X3947972Y2513990D01*
X3959453Y2521305D01*
X3969867Y2530094D01*
X3979011Y2540254D01*
X3986733Y2551480D01*
X3992879Y2563622D01*
X3997350Y2576525D01*
X4000093Y2589885D01*
X4001008Y2603500D01*
X4000093Y2617114D01*
X3998671Y2624023D01*
X3998722Y2628341D01*
X4000550Y2632202D01*
X4003801Y2634996D01*
X4007967Y2636215D01*
X4012184Y2635554D01*
X4015790Y2633268D01*
X4670806Y1978253D01*
X4673041Y1974951D01*
X4673803Y1971039D01*
X4673854Y-1526540D01*
X4674666Y-1535379D01*
X4675073Y-1537817D01*
X4677206Y-1546453D01*
X4681372Y-1557020D01*
X4682490Y-1559204D01*
X4687112Y-1566824D01*
X4694174Y-1575663D01*
X4790287Y-1671828D01*
X4792167Y-1674469D01*
X4793183Y-1677517D01*
X4793132Y-1680718D01*
X4790287Y-1697634D01*
X4789322Y-1714500D01*
X4790287Y-1731416D01*
X4793081Y-1748078D01*
X4797806Y-1764334D01*
X4804257Y-1779981D01*
X4812436Y-1794814D01*
X4822240Y-1808581D01*
X4833518Y-1821230D01*
X4846116Y-1832457D01*
X4859934Y-1842262D01*
X4874768Y-1850440D01*
X4890363Y-1856943D01*
X4906619Y-1861616D01*
X4923332Y-1864461D01*
X4940198Y-1865426D01*
X4957114Y-1864461D01*
X4973777Y-1861616D01*
X4990033Y-1856943D01*
X5005679Y-1850440D01*
X5020513Y-1842262D01*
X5034280Y-1832457D01*
X5046929Y-1821230D01*
X5058206Y-1808581D01*
X5067960Y-1794814D01*
X5076139Y-1779981D01*
X5082641Y-1764334D01*
X5087315Y-1748078D01*
X5090160Y-1731416D01*
X5091125Y-1714500D01*
X5090160Y-1697634D01*
X5087315Y-1680921D01*
X5082641Y-1664665D01*
X5076139Y-1649018D01*
X5067960Y-1634236D01*
X5058206Y-1620418D01*
X5046929Y-1607820D01*
X5034280Y-1596542D01*
X5020513Y-1586738D01*
X5005679Y-1578559D01*
X4990033Y-1572107D01*
X4973777Y-1567383D01*
X4957114Y-1564589D01*
X4940198Y-1563624D01*
X4923332Y-1564589D01*
X4906619Y-1567383D01*
X4903419Y-1567434D01*
X4900320Y-1566468D01*
X4897729Y-1564589D01*
X4828590Y-1495450D01*
X4826406Y-1492148D01*
X4825593Y-1488236D01*
X4825593Y-1455826D01*
X4826355Y-1452067D01*
X4828438Y-1448816D01*
X4831638Y-1446580D01*
X4835398Y-1445717D01*
X4839208Y-1446276D01*
X4842560Y-1448257D01*
X4846116Y-1451457D01*
X4859934Y-1461262D01*
X4871364Y-1467612D01*
X4871364Y-1402384D01*
X4835753Y-1402384D01*
X4831892Y-1401572D01*
X4828590Y-1399387D01*
X4826406Y-1396085D01*
X4825593Y-1392224D01*
X4825593Y-1274826D01*
X4826406Y-1270914D01*
X4828590Y-1267612D01*
X4831892Y-1265428D01*
X4835753Y-1264666D01*
X4871364Y-1264666D01*
X4871364Y-1199438D01*
X4859934Y-1205738D01*
X4846116Y-1215542D01*
X4842560Y-1218742D01*
X4839208Y-1220724D01*
X4835398Y-1221333D01*
X4831638Y-1220470D01*
X4828438Y-1218234D01*
X4826355Y-1214983D01*
X4825593Y-1211173D01*
X4825593Y-1074826D01*
X4826355Y-1071067D01*
X4828438Y-1067816D01*
X4831638Y-1065580D01*
X4835398Y-1064717D01*
X4839208Y-1065276D01*
X4842560Y-1067257D01*
X4846116Y-1070457D01*
X4859934Y-1080262D01*
X4874768Y-1088440D01*
X4890363Y-1094943D01*
X4906619Y-1099616D01*
X4923332Y-1102461D01*
X4940198Y-1103426D01*
X4957114Y-1102461D01*
X4973777Y-1099616D01*
X4990033Y-1094943D01*
X5005679Y-1088440D01*
X5020513Y-1080262D01*
X5034280Y-1070457D01*
X5046929Y-1059230D01*
X5058206Y-1046581D01*
X5067960Y-1032814D01*
X5076139Y-1017981D01*
X5082641Y-1002334D01*
X5087315Y-986078D01*
X5090160Y-969416D01*
X5091125Y-952500D01*
X5090160Y-935634D01*
X5087315Y-918921D01*
X5082641Y-902665D01*
X5076139Y-887018D01*
X5067960Y-872236D01*
X5058206Y-858418D01*
X5046929Y-845819D01*
X5034280Y-834542D01*
X5020513Y-824737D01*
X5005679Y-816559D01*
X4990033Y-810107D01*
X4973777Y-805383D01*
X4957114Y-802589D01*
X4940198Y-801624D01*
X4923332Y-802589D01*
X4906619Y-805383D01*
X4890363Y-810107D01*
X4874768Y-816559D01*
X4859934Y-824737D01*
X4846116Y-834542D01*
X4842560Y-837742D01*
X4839208Y-839724D01*
X4835398Y-840333D01*
X4831638Y-839469D01*
X4828438Y-837234D01*
X4826355Y-833983D01*
X4825593Y-830173D01*
X4825593Y-693826D01*
X4826355Y-690067D01*
X4828438Y-686816D01*
X4831638Y-684580D01*
X4835398Y-683717D01*
X4839208Y-684276D01*
X4842560Y-686257D01*
X4846116Y-689457D01*
X4859934Y-699262D01*
X4874768Y-707440D01*
X4890363Y-713943D01*
X4906619Y-718616D01*
X4923332Y-721461D01*
X4940198Y-722426D01*
X4957114Y-721461D01*
X4973777Y-718616D01*
X4990033Y-713943D01*
X5005679Y-707440D01*
X5020513Y-699262D01*
X5034280Y-689457D01*
X5046929Y-678230D01*
X5058206Y-665581D01*
X5067960Y-651814D01*
X5076139Y-636981D01*
X5082641Y-621334D01*
X5087315Y-605078D01*
X5090160Y-588416D01*
X5091125Y-571500D01*
X5090160Y-554634D01*
X5087315Y-537921D01*
X5082641Y-521665D01*
X5076139Y-506018D01*
X5067960Y-491235D01*
X5058206Y-477418D01*
X5046929Y-464820D01*
X5034280Y-453542D01*
X5020513Y-443738D01*
X5005679Y-435559D01*
X4990033Y-429107D01*
X4973777Y-424383D01*
X4957114Y-421589D01*
X4940198Y-420624D01*
X4923332Y-421589D01*
X4906619Y-424383D01*
X4890363Y-429107D01*
X4874768Y-435559D01*
X4859934Y-443738D01*
X4846116Y-453542D01*
X4842560Y-456742D01*
X4839208Y-458724D01*
X4835398Y-459333D01*
X4831638Y-458470D01*
X4828438Y-456234D01*
X4826355Y-452983D01*
X4825593Y-449173D01*
X4825593Y-148285D01*
X4826406Y-144322D01*
X4828743Y-140970D01*
X4832146Y-138785D01*
X4836160Y-138125D01*
X4840071Y-139090D01*
X4843322Y-141528D01*
X4846269Y-144830D01*
X4858918Y-156057D01*
X4872736Y-165862D01*
X4887518Y-174040D01*
X4903165Y-180543D01*
X4919421Y-185216D01*
X4936083Y-188061D01*
X4953000Y-189026D01*
X4969865Y-188061D01*
X4986578Y-185216D01*
X5002834Y-180543D01*
X5018481Y-174040D01*
X5033264Y-165862D01*
X5047081Y-156057D01*
X5059680Y-144830D01*
X5070957Y-132181D01*
X5080762Y-118414D01*
X5088940Y-103581D01*
X5095392Y-87934D01*
X5100116Y-71678D01*
X5102910Y-55016D01*
X5103876Y-38100D01*
X5102910Y-21234D01*
X5100116Y-4521D01*
X5095392Y11734D01*
X5088940Y27381D01*
X5080762Y42164D01*
X5070957Y55981D01*
X5059680Y68580D01*
X5047081Y79857D01*
X5033264Y89662D01*
X5018481Y97840D01*
X5002834Y104292D01*
X4986578Y109016D01*
X4969865Y111810D01*
X4953000Y112776D01*
X4936083Y111810D01*
X4919421Y109016D01*
X4903165Y104292D01*
X4887518Y97840D01*
X4872736Y89662D01*
X4858918Y79857D01*
X4846269Y68580D01*
X4843322Y65278D01*
X4840071Y62839D01*
X4836160Y61925D01*
X4832146Y62585D01*
X4828743Y64719D01*
X4826406Y68072D01*
X4825593Y72034D01*
X4825593Y232714D01*
X4826406Y236677D01*
X4828743Y240029D01*
X4832146Y242214D01*
X4836160Y242874D01*
X4840071Y241909D01*
X4843322Y239471D01*
X4846269Y236169D01*
X4858918Y224942D01*
X4872736Y215138D01*
X4887518Y206959D01*
X4903165Y200456D01*
X4919421Y195783D01*
X4936083Y192938D01*
X4953000Y191973D01*
X4969865Y192938D01*
X4986578Y195783D01*
X5002834Y200456D01*
X5018481Y206959D01*
X5033264Y215138D01*
X5047081Y224942D01*
X5059680Y236169D01*
X5070957Y248818D01*
X5080762Y262585D01*
X5088940Y277418D01*
X5095392Y293065D01*
X5100116Y309321D01*
X5102910Y325983D01*
X5103876Y342900D01*
X5102910Y359765D01*
X5100116Y376478D01*
X5095392Y392734D01*
X5088940Y408381D01*
X5080762Y423164D01*
X5070957Y436981D01*
X5059680Y449580D01*
X5047081Y460857D01*
X5033264Y470662D01*
X5018481Y478840D01*
X5002834Y485292D01*
X4986578Y490016D01*
X4969865Y492810D01*
X4953000Y493776D01*
X4936083Y492810D01*
X4919421Y490016D01*
X4903165Y485292D01*
X4887518Y478840D01*
X4872736Y470662D01*
X4858918Y460857D01*
X4846269Y449580D01*
X4843322Y446278D01*
X4840071Y443839D01*
X4836160Y442925D01*
X4832146Y443585D01*
X4828743Y445719D01*
X4826406Y449072D01*
X4825593Y453034D01*
X4825593Y613714D01*
X4826406Y617677D01*
X4828743Y621030D01*
X4832146Y623214D01*
X4836160Y623874D01*
X4840071Y622909D01*
X4843322Y620471D01*
X4846269Y617169D01*
X4858918Y605942D01*
X4872736Y596138D01*
X4887518Y587959D01*
X4903165Y581456D01*
X4919421Y576783D01*
X4936083Y573938D01*
X4953000Y572973D01*
X4969865Y573938D01*
X4986578Y576783D01*
X5002834Y581456D01*
X5018481Y587959D01*
X5033264Y596138D01*
X5047081Y605942D01*
X5059680Y617169D01*
X5070957Y629818D01*
X5080762Y643585D01*
X5088940Y658418D01*
X5095392Y674065D01*
X5100116Y690321D01*
X5102910Y706983D01*
X5103876Y723900D01*
X5102910Y740765D01*
X5100116Y757478D01*
X5095392Y773734D01*
X5088940Y789381D01*
X5080762Y804164D01*
X5070957Y817981D01*
X5059680Y830580D01*
X5047081Y841857D01*
X5033264Y851662D01*
X5018481Y859840D01*
X5002834Y866292D01*
X4986578Y871016D01*
X4969865Y873810D01*
X4953000Y874776D01*
X4936083Y873810D01*
X4919421Y871016D01*
X4903165Y866292D01*
X4887518Y859840D01*
X4872736Y851662D01*
X4858918Y841857D01*
X4846269Y830580D01*
X4843322Y827278D01*
X4840071Y824839D01*
X4836160Y823925D01*
X4832146Y824585D01*
X4828743Y826719D01*
X4826406Y830071D01*
X4825593Y834034D01*
X4825593Y994714D01*
X4826406Y998677D01*
X4828743Y1002030D01*
X4832146Y1004214D01*
X4836160Y1004874D01*
X4840071Y1003909D01*
X4843322Y1001471D01*
X4846269Y998169D01*
X4858918Y986942D01*
X4872736Y977137D01*
X4887518Y968959D01*
X4903165Y962456D01*
X4919421Y957783D01*
X4936083Y954938D01*
X4953000Y953973D01*
X4969865Y954938D01*
X4986578Y957783D01*
X5002834Y962456D01*
X5018481Y968959D01*
X5033264Y977137D01*
X5047081Y986942D01*
X5059680Y998169D01*
X5070957Y1010818D01*
X5080762Y1024585D01*
X5088940Y1039418D01*
X5095392Y1055065D01*
X5100116Y1071321D01*
X5102910Y1087983D01*
X5103876Y1104900D01*
X5102910Y1121765D01*
X5100116Y1138478D01*
X5095392Y1154734D01*
X5088940Y1170381D01*
X5080762Y1185164D01*
X5070957Y1198981D01*
X5059680Y1211580D01*
X5047081Y1222857D01*
X5033264Y1232662D01*
X5018481Y1240840D01*
X5002834Y1247292D01*
X4986578Y1252016D01*
X4969865Y1254810D01*
X4953000Y1255776D01*
X4936083Y1254810D01*
X4919421Y1252016D01*
X4903165Y1247292D01*
X4887518Y1240840D01*
X4872736Y1232662D01*
X4858918Y1222857D01*
X4846269Y1211580D01*
X4843322Y1208278D01*
X4840071Y1205839D01*
X4836160Y1204925D01*
X4832146Y1205585D01*
X4828743Y1207719D01*
X4826406Y1211072D01*
X4825593Y1215034D01*
X4825542Y2009343D01*
X4824730Y2018182D01*
X4824323Y2020620D01*
X4822190Y2029256D01*
X4821428Y2031593D01*
X4818024Y2039823D01*
X4816906Y2042007D01*
X4812284Y2049627D01*
X4805222Y2058466D01*
X4013454Y2850337D01*
X4011218Y2853588D01*
X4010456Y2857500D01*
X4011218Y2861411D01*
X4013454Y2864662D01*
X4032758Y2884068D01*
X4039819Y2892907D01*
X4044442Y2900527D01*
X4045559Y2902712D01*
X4048963Y2910941D01*
X4049725Y2913278D01*
X4051858Y2921914D01*
X4052265Y2924352D01*
X4053078Y2933192D01*
X4053078Y5258308D01*
X4052265Y5267147D01*
X4051858Y5269585D01*
X4049725Y5278221D01*
X4048963Y5280558D01*
X4045559Y5288788D01*
X4044442Y5290972D01*
X4039819Y5298592D01*
X4032758Y5307431D01*
X3927601Y5412638D01*
X3925265Y5416245D01*
X3924655Y5420461D01*
X3924808Y5422900D01*
X3923893Y5437276D01*
X3921201Y5451449D01*
X3916730Y5465165D01*
X3910584Y5478221D01*
X3902862Y5490362D01*
X3893667Y5501487D01*
X3883151Y5511342D01*
X3871518Y5519826D01*
X3858869Y5526735D01*
X3845458Y5532069D01*
X3831488Y5535676D01*
X3817213Y5537454D01*
X3802786Y5537454D01*
X3788511Y5535676D01*
X3774541Y5532069D01*
X3761130Y5526735D01*
X3748481Y5519826D01*
X3736848Y5511342D01*
X3726332Y5501487D01*
X3717137Y5490362D01*
X3709415Y5478221D01*
X3703269Y5465165D01*
X3698798Y5451449D01*
X3696106Y5437276D01*
X3695192Y5422900D01*
X3696106Y5408523D01*
X3698798Y5394350D01*
X3703269Y5380634D01*
X3709415Y5367578D01*
X3717137Y5355437D01*
X3726332Y5344312D01*
X3736848Y5334457D01*
X3748481Y5325973D01*
X3761130Y5319014D01*
X3774541Y5313730D01*
X3788511Y5310124D01*
X3802786Y5308346D01*
X3812997Y5308346D01*
X3816908Y5307584D01*
X3820210Y5305348D01*
X3824732Y5300827D01*
X3826967Y5297525D01*
X3827729Y5293614D01*
X3826967Y5289753D01*
X3824732Y5286451D01*
X3821429Y5284216D01*
X3817569Y5283454D01*
X3802786Y5283454D01*
X3788511Y5281676D01*
X3774541Y5278069D01*
X3761130Y5272735D01*
X3748481Y5265826D01*
X3736848Y5257342D01*
X3726332Y5247487D01*
X3717137Y5236362D01*
X3709415Y5224221D01*
X3703269Y5211165D01*
X3698798Y5197449D01*
X3696106Y5183276D01*
X3695192Y5168900D01*
X3696106Y5154523D01*
X3698798Y5140350D01*
X3703269Y5126634D01*
X3709415Y5113578D01*
X3717137Y5101437D01*
X3726332Y5090312D01*
X3736848Y5080457D01*
X3748481Y5071973D01*
X3761130Y5065014D01*
X3774541Y5059730D01*
X3788511Y5056124D01*
X3802786Y5054346D01*
X3817213Y5054346D01*
X3831488Y5056124D01*
X3845458Y5059730D01*
X3858869Y5065014D01*
X3871518Y5071973D01*
X3887520Y5083505D01*
X3891381Y5084165D01*
X3895191Y5083352D01*
X3898442Y5081117D01*
X3900576Y5077866D01*
X3901338Y5074005D01*
X3901338Y5009743D01*
X3900576Y5005933D01*
X3898442Y5002682D01*
X3895191Y5000447D01*
X3891381Y4999634D01*
X3887520Y5000294D01*
X3871518Y5011826D01*
X3860800Y5017719D01*
X3860800Y4965700D01*
X3891178Y4965700D01*
X3895039Y4964938D01*
X3898341Y4962702D01*
X3900576Y4959400D01*
X3901338Y4955540D01*
X3901338Y4874260D01*
X3900576Y4870348D01*
X3898341Y4867097D01*
X3895039Y4864862D01*
X3891178Y4864100D01*
X3860800Y4864100D01*
X3860800Y4812080D01*
X3871518Y4817973D01*
X3887520Y4829505D01*
X3891381Y4830165D01*
X3895191Y4829352D01*
X3898442Y4827117D01*
X3900576Y4823866D01*
X3901338Y4820005D01*
X3901338Y4755743D01*
X3900576Y4751933D01*
X3898442Y4748682D01*
X3895191Y4746447D01*
X3891381Y4745634D01*
X3887520Y4746294D01*
X3871518Y4757826D01*
X3858869Y4764735D01*
X3845458Y4770069D01*
X3831488Y4773676D01*
X3817213Y4775454D01*
X3802786Y4775454D01*
X3788511Y4773676D01*
X3774541Y4770069D01*
X3761130Y4764735D01*
X3748481Y4757826D01*
X3736848Y4749342D01*
X3726332Y4739487D01*
X3717137Y4728362D01*
X3709415Y4716221D01*
X3703269Y4703165D01*
X3698798Y4689449D01*
X3696106Y4675276D01*
X3695192Y4660900D01*
X3696106Y4646523D01*
X3698798Y4632350D01*
X3703269Y4618634D01*
X3709415Y4605578D01*
X3717137Y4593437D01*
X3726332Y4582312D01*
X3736848Y4572457D01*
X3748481Y4563973D01*
X3761130Y4557014D01*
X3774541Y4551730D01*
X3788511Y4548124D01*
X3802786Y4546346D01*
X3817213Y4546346D01*
X3831488Y4548124D01*
X3845458Y4551730D01*
X3858869Y4557014D01*
X3871518Y4563973D01*
X3887520Y4575505D01*
X3891381Y4576165D01*
X3895191Y4575352D01*
X3898442Y4573117D01*
X3900576Y4569866D01*
X3901338Y4566005D01*
X3901338Y4501743D01*
X3900576Y4497933D01*
X3898442Y4494682D01*
X3895191Y4492447D01*
X3891381Y4491634D01*
X3887520Y4492294D01*
X3871518Y4503826D01*
X3858869Y4510735D01*
X3845458Y4516069D01*
X3831488Y4519676D01*
X3817213Y4521454D01*
X3802786Y4521454D01*
X3788511Y4519676D01*
X3774541Y4516069D01*
X3761130Y4510735D01*
X3748481Y4503826D01*
X3736848Y4495342D01*
X3726332Y4485487D01*
X3717137Y4474362D01*
X3709415Y4462221D01*
X3703269Y4449165D01*
X3698798Y4435449D01*
X3696106Y4421276D01*
X3695192Y4406900D01*
X3696106Y4392523D01*
X3698798Y4378350D01*
X3703269Y4364634D01*
X3709415Y4351578D01*
X3717137Y4339437D01*
X3726332Y4328312D01*
X3736848Y4318457D01*
X3748481Y4309973D01*
X3761130Y4303014D01*
X3774541Y4297730D01*
X3788511Y4294124D01*
X3802786Y4292346D01*
X3817213Y4292346D01*
X3831488Y4294124D01*
X3845458Y4297730D01*
X3858869Y4303014D01*
X3871518Y4309973D01*
X3887520Y4321505D01*
X3891381Y4322165D01*
X3895191Y4321352D01*
X3898442Y4319117D01*
X3900576Y4315866D01*
X3901338Y4312005D01*
X3901338Y4247743D01*
X3900576Y4243933D01*
X3898442Y4240682D01*
X3895191Y4238447D01*
X3891381Y4237634D01*
X3887520Y4238294D01*
X3871518Y4249826D01*
X3858869Y4256735D01*
X3845458Y4262069D01*
X3831488Y4265676D01*
X3817213Y4267454D01*
X3802786Y4267454D01*
X3788511Y4265676D01*
X3774541Y4262069D01*
X3761130Y4256735D01*
X3748481Y4249826D01*
X3736848Y4241342D01*
X3726332Y4231487D01*
X3717137Y4220362D01*
X3709415Y4208221D01*
X3703269Y4195165D01*
X3698798Y4181449D01*
X3696106Y4167276D01*
X3695192Y4152900D01*
X3696106Y4138523D01*
X3698798Y4124350D01*
X3703269Y4110634D01*
X3709415Y4097578D01*
X3717137Y4085437D01*
X3726332Y4074312D01*
X3736848Y4064457D01*
X3748481Y4055973D01*
X3761130Y4049014D01*
X3774541Y4043730D01*
X3788511Y4040124D01*
X3802786Y4038346D01*
X3817213Y4038346D01*
X3831488Y4040124D01*
X3845458Y4043730D01*
X3858869Y4049014D01*
X3871518Y4055973D01*
X3887520Y4067505D01*
X3891381Y4068165D01*
X3895191Y4067352D01*
X3898442Y4065117D01*
X3900576Y4061866D01*
X3901338Y4058005D01*
X3901338Y3993743D01*
X3900576Y3989933D01*
X3898442Y3986682D01*
X3895191Y3984447D01*
X3891381Y3983634D01*
X3887520Y3984294D01*
X3871518Y3995826D01*
X3858869Y4002735D01*
X3845458Y4008069D01*
X3831488Y4011676D01*
X3817213Y4013454D01*
X3802786Y4013454D01*
X3788511Y4011676D01*
X3774541Y4008069D01*
X3761130Y4002735D01*
X3748481Y3995826D01*
X3736848Y3987342D01*
X3726332Y3977487D01*
X3717137Y3966362D01*
X3709415Y3954221D01*
X3703269Y3941165D01*
X3698798Y3927449D01*
X3696106Y3913276D01*
X3695192Y3898900D01*
X3696106Y3884523D01*
X3698798Y3870350D01*
X3703269Y3856634D01*
X3709415Y3843578D01*
X3717137Y3831437D01*
X3726332Y3820312D01*
X3736848Y3810457D01*
X3748481Y3801973D01*
X3761130Y3795014D01*
X3774541Y3789730D01*
X3788511Y3786124D01*
X3802786Y3784346D01*
X3817213Y3784346D01*
X3831488Y3786124D01*
X3845458Y3789730D01*
X3858869Y3795014D01*
X3871518Y3801973D01*
X3887520Y3813505D01*
X3891381Y3814165D01*
X3895191Y3813352D01*
X3898442Y3811117D01*
X3900576Y3807866D01*
X3901338Y3804005D01*
X3901338Y3739794D01*
X3900576Y3735933D01*
X3898442Y3732682D01*
X3895191Y3730447D01*
X3891381Y3729634D01*
X3887520Y3730294D01*
X3871518Y3741826D01*
X3858869Y3748786D01*
X3845458Y3754069D01*
X3831488Y3757676D01*
X3817213Y3759454D01*
X3802786Y3759454D01*
X3788511Y3757676D01*
X3774541Y3754069D01*
X3761130Y3748786D01*
X3748481Y3741826D01*
X3736848Y3733342D01*
X3726332Y3723487D01*
X3717137Y3712362D01*
X3709415Y3700221D01*
X3703269Y3687165D01*
X3698798Y3673449D01*
X3696106Y3659276D01*
X3695192Y3644900D01*
X3696106Y3630523D01*
X3698798Y3616350D01*
X3702964Y3603548D01*
X3703472Y3599891D01*
X3702608Y3596284D01*
X3700475Y3593236D01*
X3250793Y3143554D01*
X3247491Y3141370D01*
X3243630Y3140557D01*
X3239719Y3141370D01*
X3236417Y3143554D01*
X3234232Y3146856D01*
X3233470Y3150717D01*
X3233470Y3378708D01*
X3232607Y3387191D01*
X3230321Y3394862D01*
X3226511Y3401923D01*
X3221126Y3408476D01*
X3184398Y3445205D01*
X3182315Y3448304D01*
X3181451Y3451961D01*
X3182010Y3455670D01*
X3184296Y3462375D01*
X3186988Y3475990D01*
X3187903Y3489807D01*
X3186988Y3503625D01*
X3184296Y3517188D01*
X3179826Y3530295D01*
X3173679Y3542741D01*
X3166008Y3554272D01*
X3156864Y3564686D01*
X3146450Y3573779D01*
X3134918Y3581501D01*
X3122523Y3587597D01*
X3109417Y3592068D01*
X3095802Y3594760D01*
X3081985Y3595674D01*
X3068167Y3594760D01*
X3054604Y3592068D01*
X3041497Y3587597D01*
X3029051Y3581501D01*
X3017520Y3573779D01*
X3007106Y3564686D01*
X2998012Y3554272D01*
X2990291Y3542741D01*
X2984144Y3530295D01*
X2979724Y3517188D01*
X2977032Y3503625D01*
X2976118Y3489807D01*
X2977032Y3475990D01*
X2979724Y3462375D01*
X2984144Y3449269D01*
X2990291Y3436874D01*
X2998012Y3425342D01*
X3007106Y3414928D01*
X3017520Y3405784D01*
X3029051Y3398113D01*
X3041497Y3391966D01*
X3054604Y3387496D01*
X3068167Y3384804D01*
X3081985Y3383889D01*
X3095802Y3384804D01*
X3109417Y3387496D01*
X3116122Y3389782D01*
X3119831Y3390341D01*
X3123488Y3389477D01*
X3126536Y3387344D01*
X3148685Y3365246D01*
X3150870Y3361944D01*
X3151632Y3358083D01*
X3151632Y3335324D01*
X3150717Y3331108D01*
X3148076Y3327603D01*
X3144266Y3325571D01*
X3139897Y3325317D01*
X3134918Y3327501D01*
X3122523Y3333597D01*
X3109417Y3338068D01*
X3095802Y3340760D01*
X3081985Y3341674D01*
X3068167Y3340760D01*
X3054604Y3338068D01*
X3041497Y3333597D01*
X3029051Y3327501D01*
X3017520Y3319779D01*
X3007106Y3310686D01*
X2998012Y3300272D01*
X2990291Y3288741D01*
X2984144Y3276295D01*
X2979724Y3263188D01*
X2977032Y3249625D01*
X2976118Y3235807D01*
X2977032Y3221990D01*
X2979724Y3208375D01*
X2984144Y3195269D01*
X2990291Y3182874D01*
X2998012Y3171342D01*
X3007106Y3160928D01*
X3017520Y3151784D01*
X3029051Y3144113D01*
X3041497Y3137966D01*
X3054604Y3133496D01*
X3068167Y3130804D01*
X3081985Y3129889D01*
X3095802Y3130804D01*
X3109417Y3133496D01*
X3122523Y3137966D01*
X3134918Y3144113D01*
X3139897Y3146298D01*
X3144266Y3146044D01*
X3148076Y3143961D01*
X3150717Y3140506D01*
X3151632Y3136239D01*
X3151632Y3081324D01*
X3150717Y3077108D01*
X3148076Y3073603D01*
X3144266Y3071571D01*
X3139897Y3071317D01*
X3134918Y3073501D01*
X3122523Y3079648D01*
X3109417Y3084068D01*
X3095802Y3086760D01*
X3081985Y3087674D01*
X3068167Y3086760D01*
X3054604Y3084068D01*
X3041497Y3079648D01*
X3029051Y3073501D01*
X3017520Y3065780D01*
X3007106Y3056686D01*
X2998012Y3046272D01*
X2990291Y3034741D01*
X2984144Y3022295D01*
X2979724Y3009188D01*
X2977032Y2995625D01*
X2976118Y2981807D01*
X2977032Y2967990D01*
X2979724Y2954375D01*
X2984144Y2941269D01*
X2990291Y2928874D01*
X2998012Y2917342D01*
X3007106Y2906928D01*
X3017520Y2897784D01*
X3029051Y2890113D01*
X3041497Y2883966D01*
X3054604Y2879496D01*
X3068167Y2876804D01*
X3081985Y2875889D01*
X3095802Y2876804D01*
X3109417Y2879496D01*
X3122523Y2883966D01*
X3134918Y2890113D01*
X3139897Y2892298D01*
X3144266Y2892044D01*
X3148076Y2889961D01*
X3150717Y2886506D01*
X3151632Y2882239D01*
X3151632Y2843885D01*
X3150870Y2839974D01*
X3148685Y2836672D01*
X3145383Y2834487D01*
X3141472Y2833725D01*
X3002584Y2833725D01*
X2996234Y2833014D01*
X2990799Y2831084D01*
X2985871Y2827985D01*
X2981807Y2823921D01*
X2978708Y2818993D01*
X2976778Y2813558D01*
X2976067Y2807208D01*
X2976067Y2648356D01*
X2976778Y2642057D01*
X2978708Y2636570D01*
X2981807Y2631694D01*
X2985871Y2627579D01*
X2990799Y2624531D01*
X2996234Y2622600D01*
X3002584Y2621889D01*
X3141472Y2621889D01*
X3145383Y2621127D01*
X3148685Y2618892D01*
X3150870Y2615590D01*
X3151632Y2611729D01*
X3151632Y2573324D01*
X3150717Y2569108D01*
X3148076Y2565603D01*
X3144266Y2563571D01*
X3139897Y2563317D01*
X3134918Y2565501D01*
X3122523Y2571597D01*
X3109417Y2576068D01*
X3095802Y2578760D01*
X3081985Y2579674D01*
X3068167Y2578760D01*
X3054604Y2576068D01*
X3041497Y2571597D01*
X3029051Y2565501D01*
X3017520Y2557780D01*
X3007106Y2548686D01*
X2998012Y2538272D01*
X2990291Y2526741D01*
X2984144Y2514295D01*
X2979724Y2501188D01*
X2977032Y2487625D01*
X2976118Y2473807D01*
X2977032Y2459990D01*
X2979724Y2446375D01*
X2982010Y2439670D01*
X2982518Y2435961D01*
X2981655Y2432304D01*
X2979572Y2429205D01*
X2378760Y1828444D01*
X2375458Y1826260D01*
X2371598Y1825447D01*
X2367686Y1826260D01*
X2364384Y1828444D01*
X2362200Y1831746D01*
X2361438Y1835607D01*
X2361438Y3469182D01*
X2362200Y3473043D01*
X2364384Y3476345D01*
X2958744Y4070705D01*
X2962046Y4072890D01*
X2965907Y4073651D01*
X2969818Y4072890D01*
X2973120Y4070705D01*
X2975305Y4067403D01*
X2976067Y4063492D01*
X2976067Y3918356D01*
X2976778Y3912057D01*
X2978708Y3906570D01*
X2981807Y3901694D01*
X2985871Y3897579D01*
X2990799Y3894531D01*
X2996234Y3892600D01*
X3002584Y3891889D01*
X3161436Y3891889D01*
X3167735Y3892600D01*
X3173222Y3894531D01*
X3178098Y3897579D01*
X3182213Y3901694D01*
X3185261Y3906570D01*
X3187192Y3912057D01*
X3187903Y3918356D01*
X3187903Y4077208D01*
X3187192Y4083558D01*
X3185261Y4088993D01*
X3182213Y4093921D01*
X3178098Y4097985D01*
X3173222Y4101084D01*
X3167735Y4102963D01*
X3161436Y4103674D01*
X3016300Y4103674D01*
X3012389Y4104487D01*
X3009087Y4106672D01*
X3006902Y4109974D01*
X3006140Y4113834D01*
X3006902Y4117746D01*
X3009087Y4121048D01*
X3037433Y4149344D01*
X3040532Y4151477D01*
X3044139Y4152341D01*
X3047847Y4151782D01*
X3054604Y4149496D01*
X3068167Y4146804D01*
X3081985Y4145889D01*
X3095802Y4146804D01*
X3109417Y4149496D01*
X3122523Y4153966D01*
X3134918Y4160113D01*
X3146450Y4167784D01*
X3156864Y4176928D01*
X3166008Y4187342D01*
X3173679Y4198874D01*
X3179826Y4211269D01*
X3184296Y4224375D01*
X3186988Y4237990D01*
X3187903Y4251807D01*
X3186988Y4265625D01*
X3184296Y4279188D01*
X3179826Y4292295D01*
X3173679Y4304741D01*
X3166008Y4316272D01*
X3156864Y4326686D01*
X3146450Y4335780D01*
X3134918Y4343501D01*
X3122523Y4349597D01*
X3109417Y4354068D01*
X3095802Y4356760D01*
X3081985Y4357674D01*
X3068167Y4356760D01*
X3054604Y4354068D01*
X3041497Y4349597D01*
X3029051Y4343501D01*
X3017520Y4335780D01*
X3007106Y4326686D01*
X2998012Y4316272D01*
X2990291Y4304741D01*
X2984144Y4292295D01*
X2979724Y4279188D01*
X2977032Y4265625D01*
X2976118Y4251807D01*
X2977032Y4237990D01*
X2979724Y4224375D01*
X2982010Y4217670D01*
X2982518Y4213961D01*
X2981655Y4210304D01*
X2979572Y4207205D01*
X2291943Y3519576D01*
X2286558Y3513023D01*
X2282748Y3505962D01*
X2280462Y3498291D01*
X2279599Y3489807D01*
X2279599Y185978D01*
X2279142Y182930D01*
X2277770Y180136D01*
X2271725Y171450D01*
X2267559Y162560D01*
X2265019Y153060D01*
X2264156Y143256D01*
X2265019Y133502D01*
X2267559Y124002D01*
X2271725Y115112D01*
X2277364Y107035D01*
X2284272Y100076D01*
X2292350Y94488D01*
X2301240Y90322D01*
X2310739Y87782D01*
X2320544Y86918D01*
X2326640Y87426D01*
X2330704Y86969D01*
X2334260Y84937D01*
X2336698Y81635D01*
X2337663Y77622D01*
X2336952Y73558D01*
X2334666Y70154D01*
X1642821Y-621741D01*
X1637436Y-628294D01*
X1633626Y-635355D01*
X1631340Y-643026D01*
X1630476Y-651510D01*
X1630476Y-2205532D01*
X1629562Y-2209698D01*
X1627022Y-2213152D01*
X1623263Y-2215235D01*
X1618945Y-2215591D01*
X1614932Y-2214118D01*
X1611426Y-2211933D01*
X1605940Y-2210003D01*
X1599641Y-2209292D01*
X1568450Y-2209292D01*
X1568450Y-2266950D01*
X1620316Y-2266950D01*
X1624228Y-2267712D01*
X1627530Y-2269947D01*
X1629714Y-2273198D01*
X1630476Y-2277110D01*
X1630476Y-2345690D01*
X1629714Y-2349601D01*
X1627530Y-2352852D01*
X1624228Y-2355088D01*
X1620316Y-2355850D01*
X1568450Y-2355850D01*
X1568450Y-2413508D01*
X1599641Y-2413508D01*
X1605940Y-2412796D01*
X1611426Y-2410866D01*
X1614932Y-2408682D01*
X1618945Y-2407208D01*
X1623263Y-2407564D01*
X1627022Y-2409647D01*
X1629562Y-2413101D01*
X1630476Y-2417267D01*
X1630476Y-2508097D01*
X1629511Y-2512415D01*
X1626819Y-2515920D01*
X1622856Y-2517952D01*
X1618437Y-2518054D01*
X1614373Y-2516327D01*
X1611426Y-2512974D01*
X1610055Y-2510485D01*
X1601978Y-2499512D01*
X1592478Y-2489708D01*
X1581759Y-2481224D01*
X1570024Y-2474264D01*
X1557477Y-2468981D01*
X1544320Y-2465374D01*
X1530807Y-2463546D01*
X1517192Y-2463546D01*
X1503680Y-2465374D01*
X1490522Y-2468981D01*
X1477975Y-2474264D01*
X1466240Y-2481224D01*
X1455521Y-2489708D01*
X1446022Y-2499512D01*
X1437944Y-2510485D01*
X1431391Y-2522423D01*
X1426514Y-2535174D01*
X1423314Y-2548432D01*
X1421993Y-2561996D01*
X1422450Y-2575610D01*
X1424686Y-2589072D01*
X1428750Y-2602077D01*
X1434490Y-2614472D01*
X1441805Y-2625953D01*
X1450594Y-2636367D01*
X1460754Y-2645511D01*
X1471980Y-2653233D01*
X1484122Y-2659380D01*
X1497025Y-2663850D01*
X1510385Y-2666593D01*
X1524000Y-2667508D01*
X1537614Y-2666593D01*
X1550974Y-2663850D01*
X1563878Y-2659380D01*
X1576019Y-2653233D01*
X1587246Y-2645511D01*
X1597406Y-2636367D01*
X1606194Y-2625953D01*
X1611782Y-2617216D01*
X1614830Y-2614168D01*
X1618843Y-2612644D01*
X1623161Y-2612948D01*
X1626971Y-2614980D01*
X1629562Y-2618435D01*
X1630476Y-2622702D01*
X1630476Y-2650845D01*
X1629714Y-2654757D01*
X1627530Y-2658059D01*
X1565656Y-2719882D01*
X1562760Y-2721914D01*
X1559306Y-2722829D01*
X1555800Y-2722524D01*
X1544320Y-2719374D01*
X1530807Y-2717546D01*
X1517192Y-2717546D01*
X1503680Y-2719374D01*
X1490522Y-2722981D01*
X1477975Y-2728264D01*
X1466240Y-2735224D01*
X1455521Y-2743708D01*
X1446022Y-2753512D01*
X1437944Y-2764485D01*
X1431391Y-2776423D01*
X1426514Y-2789174D01*
X1423314Y-2802432D01*
X1421993Y-2815996D01*
X1422450Y-2829610D01*
X1424686Y-2843072D01*
X1428750Y-2856077D01*
X1434490Y-2868472D01*
X1441805Y-2879953D01*
X1450594Y-2890367D01*
X1460754Y-2899511D01*
X1471980Y-2907233D01*
X1484122Y-2913380D01*
X1497025Y-2917850D01*
X1510385Y-2920593D01*
X1524000Y-2921508D01*
X1537614Y-2920593D01*
X1550974Y-2917850D01*
X1563878Y-2913380D01*
X1576019Y-2907233D01*
X1587246Y-2899511D01*
X1597406Y-2890367D01*
X1606194Y-2879953D01*
X1613509Y-2868472D01*
X1619250Y-2856077D01*
X1623314Y-2843072D01*
X1625549Y-2829610D01*
X1626006Y-2815996D01*
X1624685Y-2802432D01*
X1621282Y-2788513D01*
X1620570Y-2784703D01*
X1621383Y-2780893D01*
X1623568Y-2777693D01*
X1699971Y-2701290D01*
X1705356Y-2694686D01*
X1709166Y-2687624D01*
X1711452Y-2679954D01*
X1712315Y-2671521D01*
X1712315Y-672134D01*
X1713077Y-668274D01*
X1715262Y-664972D01*
X2411933Y31648D01*
X2415235Y33883D01*
X2419096Y34645D01*
X2423007Y33883D01*
X2426309Y31648D01*
X2428494Y28397D01*
X2429256Y24485D01*
X2429256Y-813612D01*
X2428341Y-817880D01*
X2425649Y-821385D01*
X2421788Y-823417D01*
X2417419Y-823620D01*
X2413355Y-821994D01*
X2401519Y-813866D01*
X2389378Y-807720D01*
X2376474Y-803249D01*
X2363114Y-800506D01*
X2349500Y-799592D01*
X2335885Y-800506D01*
X2322525Y-803249D01*
X2309622Y-807720D01*
X2297480Y-813866D01*
X2286254Y-821588D01*
X2276094Y-830732D01*
X2267305Y-841146D01*
X2259990Y-852627D01*
X2254250Y-865022D01*
X2250186Y-878027D01*
X2247950Y-891489D01*
X2247493Y-905103D01*
X2248814Y-918667D01*
X2252014Y-931926D01*
X2256891Y-944676D01*
X2263444Y-956614D01*
X2271522Y-967587D01*
X2281021Y-977392D01*
X2291740Y-985875D01*
X2303475Y-992835D01*
X2316022Y-998118D01*
X2329180Y-1001725D01*
X2342692Y-1003553D01*
X2356307Y-1003553D01*
X2369820Y-1001725D01*
X2382977Y-998118D01*
X2395524Y-992835D01*
X2407259Y-985875D01*
X2412796Y-981506D01*
X2416911Y-979525D01*
X2421382Y-979576D01*
X2425446Y-981506D01*
X2428290Y-985062D01*
X2429256Y-989482D01*
X2429256Y-2199843D01*
X2428392Y-2203958D01*
X2425903Y-2207412D01*
X2422194Y-2209495D01*
X2417978Y-2209901D01*
X2412441Y-2209292D01*
X2381250Y-2209292D01*
X2381250Y-2266950D01*
X2419096Y-2266950D01*
X2423007Y-2267712D01*
X2426309Y-2269947D01*
X2428494Y-2273198D01*
X2429256Y-2277110D01*
X2429256Y-2345690D01*
X2428494Y-2349601D01*
X2426309Y-2352852D01*
X2423007Y-2355088D01*
X2419096Y-2355850D01*
X2381250Y-2355850D01*
X2381250Y-2413508D01*
X2412441Y-2413508D01*
X2417978Y-2412898D01*
X2422194Y-2413304D01*
X2425903Y-2415387D01*
X2428392Y-2418842D01*
X2429256Y-2422956D01*
X2429256Y-2489352D01*
X2428494Y-2493314D01*
X2426258Y-2496616D01*
X2422906Y-2498801D01*
X2418994Y-2499512D01*
X2415082Y-2498699D01*
X2411831Y-2496464D01*
X2405278Y-2489708D01*
X2394559Y-2481224D01*
X2382824Y-2474264D01*
X2370277Y-2468981D01*
X2357120Y-2465374D01*
X2343607Y-2463546D01*
X2329992Y-2463546D01*
X2316480Y-2465374D01*
X2303322Y-2468981D01*
X2290775Y-2474264D01*
X2279040Y-2481224D01*
X2268321Y-2489708D01*
X2258822Y-2499512D01*
X2250744Y-2510485D01*
X2244191Y-2522423D01*
X2239314Y-2535174D01*
X2236114Y-2548432D01*
X2234793Y-2561996D01*
X2235250Y-2575610D01*
X2237486Y-2589072D01*
X2241550Y-2602077D01*
X2247290Y-2614472D01*
X2254605Y-2625953D01*
X2263394Y-2636367D01*
X2273554Y-2645511D01*
X2284780Y-2653233D01*
X2296922Y-2659380D01*
X2309825Y-2663850D01*
X2323185Y-2666593D01*
X2336800Y-2667508D01*
X2350414Y-2666593D01*
X2363774Y-2663850D01*
X2376678Y-2659380D01*
X2388819Y-2653233D01*
X2400046Y-2645511D01*
X2410206Y-2636367D01*
X2411374Y-2634996D01*
X2414574Y-2632456D01*
X2418537Y-2631389D01*
X2422601Y-2631998D01*
X2426106Y-2634183D01*
X2428443Y-2637536D01*
X2429256Y-2641549D01*
X2429256Y-2664866D01*
X2428494Y-2668778D01*
X2426309Y-2672080D01*
X2378456Y-2719882D01*
X2375560Y-2721914D01*
X2372106Y-2722829D01*
X2368600Y-2722524D01*
X2357120Y-2719374D01*
X2343607Y-2717546D01*
X2329992Y-2717546D01*
X2316480Y-2719374D01*
X2303322Y-2722981D01*
X2290775Y-2728264D01*
X2279040Y-2735224D01*
X2268321Y-2743708D01*
X2258822Y-2753512D01*
X2250744Y-2764485D01*
X2244191Y-2776423D01*
X2239314Y-2789174D01*
X2236114Y-2802432D01*
X2234793Y-2815996D01*
X2235250Y-2829610D01*
X2237486Y-2843072D01*
X2241550Y-2856077D01*
X2247290Y-2868472D01*
X2254605Y-2879953D01*
X2263394Y-2890367D01*
X2273554Y-2899511D01*
X2284780Y-2907233D01*
X2296922Y-2913380D01*
X2309825Y-2917850D01*
X2323185Y-2920593D01*
X2336800Y-2921508D01*
X2350414Y-2920593D01*
X2363774Y-2917850D01*
X2376678Y-2913380D01*
X2388819Y-2907233D01*
X2400046Y-2899511D01*
X2410206Y-2890367D01*
X2418994Y-2879953D01*
X2426309Y-2868472D01*
X2432050Y-2856077D01*
X2436114Y-2843072D01*
X2438349Y-2829610D01*
X2438806Y-2815996D01*
X2437485Y-2802432D01*
X2434082Y-2788513D01*
X2433370Y-2784703D01*
X2434183Y-2780893D01*
X2436368Y-2777693D01*
X2498750Y-2715310D01*
X2504135Y-2708706D01*
X2507945Y-2701645D01*
X2510231Y-2693974D01*
X2511094Y-2685542D01*
X2511094Y-977798D01*
X2511856Y-973886D01*
X2514092Y-970534D01*
X2517444Y-968349D01*
X2521356Y-967638D01*
X2525268Y-968451D01*
X2528570Y-970737D01*
X2535021Y-977392D01*
X2545740Y-985875D01*
X2557475Y-992835D01*
X2570022Y-998118D01*
X2583180Y-1001725D01*
X2596692Y-1003553D01*
X2610307Y-1003553D01*
X2623820Y-1001725D01*
X2636977Y-998118D01*
X2649524Y-992835D01*
X2661259Y-985875D01*
X2671978Y-977392D01*
X2681478Y-967587D01*
X2689555Y-956614D01*
X2696108Y-944676D01*
X2700985Y-931926D01*
X2704185Y-918667D01*
X2705506Y-905103D01*
X2705049Y-891489D01*
X2702814Y-878027D01*
X2698750Y-865022D01*
X2693009Y-852627D01*
X2685694Y-841146D01*
X2676906Y-830732D01*
X2666746Y-821588D01*
X2655519Y-813866D01*
X2643378Y-807720D01*
X2630474Y-803249D01*
X2617114Y-800506D01*
X2603500Y-799592D01*
X2589885Y-800506D01*
X2576525Y-803249D01*
X2563622Y-807720D01*
X2551480Y-813866D01*
X2540254Y-821588D01*
X2530094Y-830732D01*
X2529027Y-832053D01*
X2525776Y-834593D01*
X2521813Y-835609D01*
X2517749Y-835050D01*
X2514244Y-832866D01*
X2511907Y-829513D01*
X2511094Y-825500D01*
X2511094Y292201D01*
X2511856Y296113D01*
X2514092Y299466D01*
X2517444Y301650D01*
X2521356Y302361D01*
X2525268Y301548D01*
X2528570Y299262D01*
X2535021Y292608D01*
X2545740Y284124D01*
X2557475Y277164D01*
X2570022Y271881D01*
X2583180Y268274D01*
X2596692Y266446D01*
X2610307Y266446D01*
X2623820Y268274D01*
X2636977Y271881D01*
X2649524Y277164D01*
X2661259Y284124D01*
X2671978Y292608D01*
X2681478Y302412D01*
X2687726Y310896D01*
X2690876Y313690D01*
X2694889Y314960D01*
X2699054Y314502D01*
X2702712Y312369D01*
X2705201Y308965D01*
X2706065Y304850D01*
X2706065Y-790651D01*
X2706878Y-799134D01*
X2709214Y-806805D01*
X2712974Y-813866D01*
X2718409Y-820419D01*
X2758084Y-860145D01*
X2760167Y-863142D01*
X2761030Y-866698D01*
X2760573Y-870305D01*
X2758186Y-878027D01*
X2755950Y-891489D01*
X2755493Y-905103D01*
X2756814Y-918667D01*
X2760014Y-931926D01*
X2764891Y-944676D01*
X2771444Y-956614D01*
X2779522Y-967587D01*
X2789021Y-977392D01*
X2799740Y-985875D01*
X2811475Y-992835D01*
X2824022Y-998118D01*
X2837180Y-1001725D01*
X2850692Y-1003553D01*
X2864307Y-1003553D01*
X2877820Y-1001725D01*
X2890977Y-998118D01*
X2903524Y-992835D01*
X2915259Y-985875D01*
X2925978Y-977392D01*
X2935478Y-967587D01*
X2943555Y-956614D01*
X2950108Y-944676D01*
X2954985Y-931926D01*
X2958185Y-918667D01*
X2959506Y-905103D01*
X2959049Y-891489D01*
X2956814Y-878027D01*
X2952750Y-865022D01*
X2947009Y-852627D01*
X2939694Y-841146D01*
X2930906Y-830732D01*
X2920746Y-821588D01*
X2909519Y-813866D01*
X2897378Y-807720D01*
X2884474Y-803249D01*
X2871114Y-800506D01*
X2857500Y-799592D01*
X2843885Y-800506D01*
X2830525Y-803249D01*
X2826410Y-804672D01*
X2822702Y-805230D01*
X2819044Y-804367D01*
X2815894Y-802233D01*
X2790850Y-777189D01*
X2788666Y-773887D01*
X2787853Y-770026D01*
X2787853Y273354D01*
X2788767Y277469D01*
X2791256Y280924D01*
X2794965Y283006D01*
X2799181Y283413D01*
X2803194Y282092D01*
X2811475Y277164D01*
X2824022Y271881D01*
X2837180Y268274D01*
X2850692Y266446D01*
X2864307Y266446D01*
X2877820Y268274D01*
X2890977Y271881D01*
X2903524Y277164D01*
X2907842Y279755D01*
X2911906Y281076D01*
X2916123Y280670D01*
X2919780Y278587D01*
X2922320Y275132D01*
X2923184Y271018D01*
X2923184Y-753821D01*
X2924048Y-762254D01*
X2926334Y-769924D01*
X2930144Y-776986D01*
X2935528Y-783590D01*
X3012084Y-860145D01*
X3014167Y-863142D01*
X3015030Y-866698D01*
X3014573Y-870305D01*
X3012186Y-878027D01*
X3009950Y-891489D01*
X3009493Y-905103D01*
X3010814Y-918667D01*
X3014014Y-931926D01*
X3018891Y-944676D01*
X3025444Y-956614D01*
X3033522Y-967587D01*
X3043021Y-977392D01*
X3053740Y-985875D01*
X3065475Y-992835D01*
X3078022Y-998118D01*
X3091180Y-1001725D01*
X3104692Y-1003553D01*
X3118307Y-1003553D01*
X3131820Y-1001725D01*
X3144977Y-998118D01*
X3157524Y-992835D01*
X3169259Y-985875D01*
X3179978Y-977392D01*
X3189478Y-967587D01*
X3197555Y-956614D01*
X3204108Y-944676D01*
X3208985Y-931926D01*
X3212185Y-918667D01*
X3213506Y-905103D01*
X3213049Y-891489D01*
X3210814Y-878027D01*
X3206750Y-865022D01*
X3201009Y-852627D01*
X3193694Y-841146D01*
X3184906Y-830732D01*
X3174746Y-821588D01*
X3163519Y-813866D01*
X3151378Y-807720D01*
X3138474Y-803249D01*
X3125114Y-800506D01*
X3111500Y-799592D01*
X3097885Y-800506D01*
X3084525Y-803249D01*
X3080410Y-804672D01*
X3076702Y-805230D01*
X3073044Y-804367D01*
X3069894Y-802233D01*
X3007969Y-740359D01*
X3005785Y-737057D01*
X3005023Y-733145D01*
X3005023Y310997D01*
X3005988Y315315D01*
X3008680Y318820D01*
X3012643Y320852D01*
X3017062Y320954D01*
X3021177Y319176D01*
X3024073Y315874D01*
X3025444Y313385D01*
X3033522Y302412D01*
X3043021Y292608D01*
X3053740Y284124D01*
X3065475Y277164D01*
X3078022Y271881D01*
X3091180Y268274D01*
X3104692Y266446D01*
X3118307Y266446D01*
X3131820Y268274D01*
X3144977Y271881D01*
X3157524Y277164D01*
X3169259Y284124D01*
X3180130Y292760D01*
X3183432Y294995D01*
X3187344Y295859D01*
X3191256Y295097D01*
X3194558Y292912D01*
X3196793Y289610D01*
X3197606Y285699D01*
X3197606Y-520192D01*
X3198418Y-528675D01*
X3200755Y-536346D01*
X3204514Y-543407D01*
X3209950Y-549960D01*
X3520084Y-860145D01*
X3522167Y-863142D01*
X3523030Y-866698D01*
X3522573Y-870305D01*
X3520186Y-878027D01*
X3517950Y-891489D01*
X3517493Y-905103D01*
X3518814Y-918667D01*
X3522014Y-931926D01*
X3526891Y-944676D01*
X3533444Y-956614D01*
X3541522Y-967587D01*
X3551021Y-977392D01*
X3561740Y-985875D01*
X3573475Y-992835D01*
X3586022Y-998118D01*
X3599179Y-1001725D01*
X3612692Y-1003553D01*
X3626307Y-1003553D01*
X3639820Y-1001725D01*
X3652977Y-998118D01*
X3665524Y-992835D01*
X3670503Y-989888D01*
X3674516Y-988517D01*
X3678732Y-988923D01*
X3682441Y-991057D01*
X3684930Y-994460D01*
X3685844Y-998626D01*
X3685844Y-2532430D01*
X3686657Y-2540914D01*
X3688994Y-2548585D01*
X3692753Y-2555646D01*
X3698189Y-2562199D01*
X3939032Y-2803093D01*
X3941216Y-2806293D01*
X3942029Y-2810103D01*
X3937914Y-2827832D01*
X3936593Y-2841396D01*
X3937050Y-2855010D01*
X3939286Y-2868472D01*
X3943350Y-2881477D01*
X3949090Y-2893872D01*
X3956405Y-2905353D01*
X3965194Y-2915767D01*
X3975354Y-2924911D01*
X3986580Y-2932633D01*
X3998722Y-2938780D01*
X4011625Y-2943250D01*
X4024985Y-2945993D01*
G37*
G36*
X5029200Y-2805176D02*
G01*
X5046116Y-2804261D01*
X5062778Y-2801416D01*
X5079034Y-2796743D01*
X5094681Y-2790240D01*
X5109464Y-2782062D01*
X5123281Y-2772257D01*
X5135880Y-2760980D01*
X5147157Y-2748381D01*
X5156962Y-2734564D01*
X5165140Y-2719781D01*
X5171643Y-2704134D01*
X5176316Y-2687878D01*
X5179161Y-2671216D01*
X5180076Y-2654300D01*
X5179161Y-2637383D01*
X5176316Y-2620721D01*
X5171643Y-2604465D01*
X5165140Y-2588818D01*
X5156962Y-2574036D01*
X5147157Y-2560218D01*
X5135880Y-2547620D01*
X5123281Y-2536342D01*
X5109464Y-2526538D01*
X5094681Y-2518359D01*
X5079034Y-2511856D01*
X5062778Y-2507183D01*
X5046116Y-2504338D01*
X5029200Y-2503424D01*
X5012283Y-2504338D01*
X4995621Y-2507183D01*
X4979365Y-2511856D01*
X4963718Y-2518359D01*
X4948936Y-2526538D01*
X4935118Y-2536342D01*
X4922520Y-2547620D01*
X4911242Y-2560218D01*
X4901438Y-2574036D01*
X4893259Y-2588818D01*
X4886756Y-2604465D01*
X4882083Y-2620721D01*
X4879238Y-2637383D01*
X4878324Y-2654300D01*
X4879238Y-2671216D01*
X4882083Y-2687878D01*
X4886756Y-2704134D01*
X4893259Y-2719781D01*
X4901438Y-2734564D01*
X4911242Y-2748381D01*
X4922520Y-2760980D01*
X4935118Y-2772257D01*
X4948936Y-2782062D01*
X4963718Y-2790240D01*
X4979365Y-2796743D01*
X4995621Y-2801416D01*
X5012283Y-2804261D01*
G37*
G36*
X3175000Y-2692908D02*
G01*
X3188614Y-2691993D01*
X3201974Y-2689250D01*
X3214878Y-2684780D01*
X3227019Y-2678633D01*
X3238246Y-2670911D01*
X3248406Y-2661767D01*
X3257194Y-2651353D01*
X3264509Y-2639872D01*
X3270250Y-2627477D01*
X3274314Y-2614472D01*
X3276549Y-2601010D01*
X3277006Y-2587396D01*
X3275685Y-2573832D01*
X3272485Y-2560574D01*
X3267608Y-2547823D01*
X3261055Y-2535885D01*
X3252978Y-2524912D01*
X3243478Y-2515108D01*
X3232759Y-2506624D01*
X3221024Y-2499664D01*
X3208477Y-2494381D01*
X3195320Y-2490774D01*
X3181807Y-2488946D01*
X3168192Y-2488946D01*
X3154680Y-2490774D01*
X3141522Y-2494381D01*
X3128975Y-2499664D01*
X3117240Y-2506624D01*
X3106521Y-2515108D01*
X3097022Y-2524912D01*
X3088944Y-2535885D01*
X3082391Y-2547823D01*
X3077514Y-2560574D01*
X3074314Y-2573832D01*
X3072993Y-2587396D01*
X3073450Y-2601010D01*
X3075686Y-2614472D01*
X3079750Y-2627477D01*
X3085490Y-2639872D01*
X3092805Y-2651353D01*
X3101594Y-2661767D01*
X3111754Y-2670911D01*
X3122980Y-2678633D01*
X3135122Y-2684780D01*
X3148025Y-2689250D01*
X3161385Y-2691993D01*
G37*
G36*
X4038600Y-2692908D02*
G01*
X4052214Y-2691993D01*
X4065574Y-2689250D01*
X4078478Y-2684780D01*
X4090619Y-2678633D01*
X4101846Y-2670911D01*
X4112006Y-2661767D01*
X4120794Y-2651353D01*
X4128109Y-2639872D01*
X4133850Y-2627477D01*
X4137914Y-2614472D01*
X4140149Y-2601010D01*
X4140606Y-2587396D01*
X4139285Y-2573832D01*
X4136085Y-2560574D01*
X4131208Y-2547823D01*
X4124655Y-2535885D01*
X4116578Y-2524912D01*
X4107078Y-2515108D01*
X4096359Y-2506624D01*
X4084624Y-2499664D01*
X4072077Y-2494381D01*
X4058920Y-2490774D01*
X4045407Y-2488946D01*
X4031792Y-2488946D01*
X4018279Y-2490774D01*
X4005122Y-2494381D01*
X3992575Y-2499664D01*
X3980840Y-2506624D01*
X3970121Y-2515108D01*
X3960622Y-2524912D01*
X3952544Y-2535885D01*
X3945991Y-2547823D01*
X3941114Y-2560574D01*
X3937914Y-2573832D01*
X3936593Y-2587396D01*
X3937050Y-2601010D01*
X3939286Y-2614472D01*
X3943350Y-2627477D01*
X3949090Y-2639872D01*
X3956405Y-2651353D01*
X3965194Y-2661767D01*
X3975354Y-2670911D01*
X3986580Y-2678633D01*
X3998722Y-2684780D01*
X4011625Y-2689250D01*
X4024985Y-2691993D01*
G37*
G36*
X3962958Y-2438908D02*
G01*
X3994150Y-2438908D01*
X3994150Y-2381250D01*
X3936492Y-2381250D01*
X3936492Y-2412441D01*
X3937203Y-2418740D01*
X3939133Y-2424226D01*
X3942181Y-2429103D01*
X3946296Y-2433218D01*
X3951173Y-2436266D01*
X3956659Y-2438196D01*
G37*
G36*
X3219450Y-2438908D02*
G01*
X3250641Y-2438908D01*
X3256940Y-2438196D01*
X3262426Y-2436266D01*
X3267303Y-2433218D01*
X3271418Y-2429103D01*
X3274466Y-2424226D01*
X3276396Y-2418740D01*
X3277108Y-2412441D01*
X3277108Y-2381250D01*
X3219450Y-2381250D01*
G37*
G36*
X3099358Y-2438908D02*
G01*
X3130550Y-2438908D01*
X3130550Y-2381250D01*
X3072892Y-2381250D01*
X3072892Y-2412441D01*
X3073603Y-2418740D01*
X3075533Y-2424226D01*
X3078581Y-2429103D01*
X3082696Y-2433218D01*
X3087573Y-2436266D01*
X3093059Y-2438196D01*
G37*
G36*
X4083050Y-2438908D02*
G01*
X4114241Y-2438908D01*
X4120540Y-2438196D01*
X4126026Y-2436266D01*
X4130903Y-2433218D01*
X4135018Y-2429103D01*
X4138066Y-2424226D01*
X4139996Y-2418740D01*
X4140708Y-2412441D01*
X4140708Y-2381250D01*
X4083050Y-2381250D01*
G37*
G36*
X2261158Y-2413508D02*
G01*
X2292350Y-2413508D01*
X2292350Y-2355850D01*
X2234692Y-2355850D01*
X2234692Y-2387041D01*
X2235403Y-2393340D01*
X2237333Y-2398826D01*
X2240381Y-2403703D01*
X2244496Y-2407818D01*
X2249373Y-2410866D01*
X2254859Y-2412796D01*
G37*
G36*
X1448358Y-2413508D02*
G01*
X1479550Y-2413508D01*
X1479550Y-2355850D01*
X1421892Y-2355850D01*
X1421892Y-2387041D01*
X1422603Y-2393340D01*
X1424533Y-2398826D01*
X1427581Y-2403703D01*
X1431696Y-2407818D01*
X1436573Y-2410866D01*
X1442059Y-2412796D01*
G37*
G36*
X5098034Y-2407361D02*
G01*
X5109464Y-2401062D01*
X5123281Y-2391257D01*
X5135880Y-2379980D01*
X5147157Y-2367381D01*
X5156962Y-2353564D01*
X5163261Y-2342134D01*
X5098034Y-2342134D01*
G37*
G36*
X4960366Y-2407361D02*
G01*
X4960366Y-2342134D01*
X4895138Y-2342134D01*
X4901438Y-2353564D01*
X4911242Y-2367381D01*
X4922520Y-2379980D01*
X4935118Y-2391257D01*
X4948936Y-2401062D01*
G37*
G36*
X3936492Y-2292350D02*
G01*
X3994150Y-2292350D01*
X3994150Y-2234692D01*
X3962958Y-2234692D01*
X3956659Y-2235403D01*
X3951173Y-2237333D01*
X3946296Y-2240381D01*
X3942181Y-2244496D01*
X3939133Y-2249373D01*
X3937203Y-2254859D01*
X3936492Y-2261158D01*
G37*
G36*
X3219450Y-2292350D02*
G01*
X3277108Y-2292350D01*
X3277108Y-2261158D01*
X3276396Y-2254859D01*
X3274466Y-2249373D01*
X3271418Y-2244496D01*
X3267303Y-2240381D01*
X3262426Y-2237333D01*
X3256940Y-2235403D01*
X3250641Y-2234692D01*
X3219450Y-2234692D01*
G37*
G36*
X3072892Y-2292350D02*
G01*
X3130550Y-2292350D01*
X3130550Y-2234692D01*
X3099358Y-2234692D01*
X3093059Y-2235403D01*
X3087573Y-2237333D01*
X3082696Y-2240381D01*
X3078581Y-2244496D01*
X3075533Y-2249373D01*
X3073603Y-2254859D01*
X3072892Y-2261158D01*
G37*
G36*
X4083050Y-2292350D02*
G01*
X4140708Y-2292350D01*
X4140708Y-2261158D01*
X4139996Y-2254859D01*
X4138066Y-2249373D01*
X4135018Y-2244496D01*
X4130903Y-2240381D01*
X4126026Y-2237333D01*
X4120540Y-2235403D01*
X4114241Y-2234692D01*
X4083050Y-2234692D01*
G37*
G36*
X1421892Y-2266950D02*
G01*
X1479550Y-2266950D01*
X1479550Y-2209292D01*
X1448358Y-2209292D01*
X1442059Y-2210003D01*
X1436573Y-2211933D01*
X1431696Y-2214981D01*
X1427581Y-2219096D01*
X1424533Y-2223973D01*
X1422603Y-2229459D01*
X1421892Y-2235758D01*
G37*
G36*
X2234692Y-2266950D02*
G01*
X2292350Y-2266950D01*
X2292350Y-2209292D01*
X2261158Y-2209292D01*
X2254859Y-2210003D01*
X2249373Y-2211933D01*
X2244496Y-2214981D01*
X2240381Y-2219096D01*
X2237333Y-2223973D01*
X2235403Y-2229459D01*
X2234692Y-2235758D01*
G37*
G36*
X4895138Y-2204466D02*
G01*
X4960366Y-2204466D01*
X4960366Y-2139238D01*
X4948936Y-2145538D01*
X4935118Y-2155342D01*
X4922520Y-2166620D01*
X4911242Y-2179218D01*
X4901438Y-2193036D01*
G37*
G36*
X5098034Y-2204466D02*
G01*
X5163261Y-2204466D01*
X5156962Y-2193036D01*
X5147157Y-2179218D01*
X5135880Y-2166620D01*
X5123281Y-2155342D01*
X5109464Y-2145538D01*
X5098034Y-2139238D01*
G37*
G36*
X1402334Y-1950161D02*
G01*
X1413764Y-1943862D01*
X1427581Y-1934057D01*
X1440180Y-1922780D01*
X1451457Y-1910181D01*
X1461262Y-1896364D01*
X1467561Y-1884934D01*
X1402334Y-1884934D01*
G37*
G36*
X1264666Y-1950161D02*
G01*
X1264666Y-1884934D01*
X1199438Y-1884934D01*
X1205738Y-1896364D01*
X1215542Y-1910181D01*
X1226820Y-1922780D01*
X1239418Y-1934057D01*
X1253236Y-1943862D01*
G37*
G36*
X1402334Y-1747266D02*
G01*
X1467561Y-1747266D01*
X1461262Y-1735836D01*
X1451457Y-1722018D01*
X1440180Y-1709420D01*
X1427581Y-1698142D01*
X1413764Y-1688338D01*
X1402334Y-1682038D01*
G37*
G36*
X1199438Y-1747266D02*
G01*
X1264666Y-1747266D01*
X1264666Y-1682038D01*
X1253236Y-1688338D01*
X1239418Y-1698142D01*
X1226820Y-1709420D01*
X1215542Y-1722018D01*
X1205738Y-1735836D01*
G37*
G36*
X1333500Y-1585976D02*
G01*
X1350416Y-1585061D01*
X1367078Y-1582216D01*
X1383334Y-1577543D01*
X1398981Y-1571040D01*
X1413764Y-1562862D01*
X1427581Y-1553057D01*
X1440180Y-1541780D01*
X1451457Y-1529181D01*
X1461262Y-1515364D01*
X1469440Y-1500581D01*
X1475943Y-1484934D01*
X1480616Y-1468678D01*
X1483461Y-1452016D01*
X1484376Y-1435100D01*
X1483461Y-1418183D01*
X1480616Y-1401521D01*
X1475943Y-1385265D01*
X1469440Y-1369618D01*
X1461262Y-1354836D01*
X1451457Y-1341018D01*
X1440180Y-1328420D01*
X1427581Y-1317142D01*
X1413764Y-1307338D01*
X1398981Y-1299159D01*
X1383334Y-1292656D01*
X1367078Y-1287983D01*
X1350416Y-1285138D01*
X1333500Y-1284224D01*
X1316583Y-1285138D01*
X1299921Y-1287983D01*
X1283665Y-1292656D01*
X1268018Y-1299159D01*
X1253236Y-1307338D01*
X1239418Y-1317142D01*
X1226820Y-1328420D01*
X1215542Y-1341018D01*
X1205738Y-1354836D01*
X1197559Y-1369618D01*
X1191056Y-1385265D01*
X1186383Y-1401521D01*
X1183538Y-1418183D01*
X1182624Y-1435100D01*
X1183538Y-1452016D01*
X1186383Y-1468678D01*
X1191056Y-1484934D01*
X1197559Y-1500581D01*
X1205738Y-1515364D01*
X1215542Y-1529181D01*
X1226820Y-1541780D01*
X1239418Y-1553057D01*
X1253236Y-1562862D01*
X1268018Y-1571040D01*
X1283665Y-1577543D01*
X1299921Y-1582216D01*
X1316583Y-1585061D01*
G37*
G36*
X5009083Y-1467612D02*
G01*
X5020513Y-1461262D01*
X5034280Y-1451457D01*
X5046929Y-1440230D01*
X5058206Y-1427581D01*
X5067960Y-1413814D01*
X5074310Y-1402384D01*
X5009083Y-1402384D01*
G37*
G36*
X5009083Y-1264666D02*
G01*
X5074310Y-1264666D01*
X5067960Y-1253236D01*
X5058206Y-1239418D01*
X5046929Y-1226820D01*
X5034280Y-1215542D01*
X5020513Y-1205738D01*
X5009083Y-1199438D01*
G37*
G36*
X1333500Y-1039876D02*
G01*
X1350416Y-1038910D01*
X1367078Y-1036116D01*
X1383334Y-1031392D01*
X1398981Y-1024940D01*
X1413814Y-1016762D01*
X1427581Y-1006957D01*
X1440230Y-995680D01*
X1451457Y-983081D01*
X1461262Y-969264D01*
X1469440Y-954481D01*
X1475943Y-938834D01*
X1480616Y-922578D01*
X1483461Y-905865D01*
X1484426Y-889000D01*
X1483461Y-872083D01*
X1480616Y-855421D01*
X1475943Y-839165D01*
X1469440Y-823518D01*
X1461262Y-808736D01*
X1451457Y-794918D01*
X1440230Y-782269D01*
X1427581Y-771042D01*
X1413814Y-761238D01*
X1398981Y-753059D01*
X1383334Y-746556D01*
X1367078Y-741883D01*
X1350416Y-739038D01*
X1333500Y-738073D01*
X1316634Y-739038D01*
X1299921Y-741883D01*
X1283665Y-746556D01*
X1268018Y-753059D01*
X1253236Y-761238D01*
X1239418Y-771042D01*
X1226820Y-782269D01*
X1215542Y-794918D01*
X1205738Y-808736D01*
X1197559Y-823518D01*
X1191107Y-839165D01*
X1186383Y-855421D01*
X1183589Y-872083D01*
X1182624Y-889000D01*
X1183589Y-905865D01*
X1186383Y-922578D01*
X1191107Y-938834D01*
X1197559Y-954481D01*
X1205738Y-969264D01*
X1215542Y-983081D01*
X1226820Y-995680D01*
X1239418Y-1006957D01*
X1253236Y-1016762D01*
X1268018Y-1024940D01*
X1283665Y-1031392D01*
X1299921Y-1036116D01*
X1316634Y-1038910D01*
G37*
G36*
X2088692Y-1003553D02*
G01*
X2102307Y-1003553D01*
X2115820Y-1001725D01*
X2128977Y-998118D01*
X2141524Y-992835D01*
X2153259Y-985875D01*
X2163978Y-977392D01*
X2173478Y-967587D01*
X2181555Y-956614D01*
X2188108Y-944676D01*
X2192985Y-931926D01*
X2196185Y-918667D01*
X2197506Y-905103D01*
X2197049Y-891489D01*
X2194814Y-878027D01*
X2190750Y-865022D01*
X2185009Y-852627D01*
X2177694Y-841146D01*
X2168906Y-830732D01*
X2158746Y-821588D01*
X2147519Y-813866D01*
X2135378Y-807720D01*
X2122474Y-803249D01*
X2109114Y-800506D01*
X2095500Y-799592D01*
X2081885Y-800506D01*
X2068525Y-803249D01*
X2055622Y-807720D01*
X2043480Y-813866D01*
X2032254Y-821588D01*
X2022093Y-830732D01*
X2013305Y-841146D01*
X2005990Y-852627D01*
X2000250Y-865022D01*
X1996186Y-878027D01*
X1993950Y-891489D01*
X1993493Y-905103D01*
X1994814Y-918667D01*
X1998014Y-931926D01*
X2002891Y-944676D01*
X2009444Y-956614D01*
X2017522Y-967587D01*
X2027021Y-977392D01*
X2037740Y-985875D01*
X2049475Y-992835D01*
X2062022Y-998118D01*
X2075180Y-1001725D01*
G37*
G36*
X3358692Y-1003553D02*
G01*
X3372307Y-1003553D01*
X3385820Y-1001725D01*
X3398977Y-998118D01*
X3411524Y-992835D01*
X3423259Y-985875D01*
X3433978Y-977392D01*
X3443478Y-967587D01*
X3451555Y-956614D01*
X3458108Y-944676D01*
X3462985Y-931926D01*
X3466185Y-918667D01*
X3467506Y-905103D01*
X3467049Y-891489D01*
X3464814Y-878027D01*
X3460750Y-865022D01*
X3455009Y-852627D01*
X3447694Y-841146D01*
X3438906Y-830732D01*
X3428746Y-821588D01*
X3417519Y-813866D01*
X3405378Y-807720D01*
X3392474Y-803249D01*
X3379114Y-800506D01*
X3365500Y-799592D01*
X3351885Y-800506D01*
X3338525Y-803249D01*
X3325622Y-807720D01*
X3313480Y-813866D01*
X3302254Y-821588D01*
X3292094Y-830732D01*
X3283305Y-841146D01*
X3275990Y-852627D01*
X3270250Y-865022D01*
X3266186Y-878027D01*
X3263950Y-891489D01*
X3263493Y-905103D01*
X3264814Y-918667D01*
X3268014Y-931926D01*
X3272891Y-944676D01*
X3279444Y-956614D01*
X3287522Y-967587D01*
X3297021Y-977392D01*
X3307740Y-985875D01*
X3319475Y-992835D01*
X3332022Y-998118D01*
X3345179Y-1001725D01*
G37*
G36*
X4120692Y-1003553D02*
G01*
X4134307Y-1003553D01*
X4147820Y-1001725D01*
X4160977Y-998118D01*
X4173524Y-992835D01*
X4185259Y-985875D01*
X4195978Y-977392D01*
X4205478Y-967587D01*
X4213555Y-956614D01*
X4220108Y-944676D01*
X4224985Y-931926D01*
X4228185Y-918667D01*
X4229506Y-905103D01*
X4229049Y-891489D01*
X4226814Y-878027D01*
X4222750Y-865022D01*
X4217009Y-852627D01*
X4209694Y-841146D01*
X4200906Y-830732D01*
X4190746Y-821588D01*
X4179519Y-813866D01*
X4167378Y-807720D01*
X4154474Y-803249D01*
X4141114Y-800506D01*
X4127500Y-799592D01*
X4113885Y-800506D01*
X4100525Y-803249D01*
X4087622Y-807720D01*
X4075480Y-813866D01*
X4064254Y-821588D01*
X4054094Y-830732D01*
X4045305Y-841146D01*
X4037990Y-852627D01*
X4032250Y-865022D01*
X4028186Y-878027D01*
X4025950Y-891489D01*
X4025493Y-905103D01*
X4026814Y-918667D01*
X4030014Y-931926D01*
X4034891Y-944676D01*
X4041444Y-956614D01*
X4049522Y-967587D01*
X4059021Y-977392D01*
X4069740Y-985875D01*
X4081475Y-992835D01*
X4094022Y-998118D01*
X4107179Y-1001725D01*
G37*
G36*
X1402384Y-642061D02*
G01*
X1413814Y-635762D01*
X1427581Y-625957D01*
X1440230Y-614680D01*
X1451457Y-602081D01*
X1461262Y-588264D01*
X1467612Y-576834D01*
X1402384Y-576834D01*
G37*
G36*
X1264666Y-642061D02*
G01*
X1264666Y-576834D01*
X1199438Y-576834D01*
X1205738Y-588264D01*
X1215542Y-602081D01*
X1226820Y-614680D01*
X1239418Y-625957D01*
X1253236Y-635762D01*
G37*
G36*
X1402384Y-439115D02*
G01*
X1467612Y-439115D01*
X1461262Y-427735D01*
X1451457Y-413918D01*
X1440230Y-401269D01*
X1427581Y-390042D01*
X1413814Y-380238D01*
X1402384Y-373888D01*
G37*
G36*
X1199438Y-439115D02*
G01*
X1264666Y-439115D01*
X1264666Y-373888D01*
X1253236Y-380238D01*
X1239418Y-390042D01*
X1226820Y-401269D01*
X1215542Y-413918D01*
X1205738Y-427735D01*
G37*
G36*
X1333500Y-277876D02*
G01*
X1350416Y-276910D01*
X1367078Y-274116D01*
X1383334Y-269392D01*
X1398981Y-262940D01*
X1413814Y-254762D01*
X1427581Y-244957D01*
X1440230Y-233679D01*
X1451457Y-221081D01*
X1461262Y-207264D01*
X1469440Y-192481D01*
X1475943Y-176834D01*
X1480616Y-160578D01*
X1483461Y-143865D01*
X1484426Y-127000D01*
X1483461Y-110083D01*
X1480616Y-93421D01*
X1475943Y-77165D01*
X1469440Y-61518D01*
X1468678Y-60096D01*
X1467408Y-55930D01*
X1468018Y-51612D01*
X1470355Y-48006D01*
X1565503Y47142D01*
X1570888Y53746D01*
X1574698Y60807D01*
X1576984Y68478D01*
X1577848Y76911D01*
X1577848Y5288381D01*
X1576984Y5296814D01*
X1574698Y5304485D01*
X1570888Y5311546D01*
X1565503Y5318150D01*
X1406448Y5477205D01*
X1404315Y5480304D01*
X1403451Y5483961D01*
X1404010Y5487670D01*
X1406296Y5494375D01*
X1408988Y5507990D01*
X1409903Y5521807D01*
X1408988Y5535625D01*
X1406296Y5549188D01*
X1401826Y5562295D01*
X1395679Y5574741D01*
X1388008Y5586272D01*
X1378864Y5596686D01*
X1368450Y5605780D01*
X1356918Y5613501D01*
X1344523Y5619597D01*
X1331417Y5624068D01*
X1317802Y5626760D01*
X1303985Y5627674D01*
X1290167Y5626760D01*
X1276604Y5624068D01*
X1263497Y5619597D01*
X1251051Y5613501D01*
X1239520Y5605780D01*
X1236167Y5602833D01*
X1232814Y5600903D01*
X1229004Y5600293D01*
X1225245Y5601208D01*
X1222095Y5603443D01*
X1220012Y5606694D01*
X1219301Y5610453D01*
X1219301Y5628995D01*
X1220063Y5632907D01*
X1222248Y5636209D01*
X1259433Y5673344D01*
X1262532Y5675477D01*
X1266190Y5676341D01*
X1269898Y5675782D01*
X1276604Y5673496D01*
X1290167Y5670804D01*
X1303985Y5669889D01*
X1317802Y5670804D01*
X1331417Y5673496D01*
X1344523Y5677966D01*
X1356918Y5684113D01*
X1368450Y5691784D01*
X1378864Y5700928D01*
X1388008Y5711342D01*
X1395679Y5722823D01*
X1401826Y5735269D01*
X1406296Y5748375D01*
X1408988Y5761990D01*
X1409903Y5775807D01*
X1408988Y5789625D01*
X1406296Y5803188D01*
X1401826Y5816295D01*
X1395679Y5828741D01*
X1388008Y5840272D01*
X1378864Y5850686D01*
X1368450Y5859780D01*
X1356918Y5867501D01*
X1344523Y5873597D01*
X1331417Y5878068D01*
X1317802Y5880760D01*
X1303985Y5881674D01*
X1290167Y5880760D01*
X1276604Y5878068D01*
X1263497Y5873597D01*
X1251051Y5867501D01*
X1239520Y5859780D01*
X1229106Y5850686D01*
X1220012Y5840272D01*
X1212291Y5828741D01*
X1206195Y5816295D01*
X1201724Y5803188D01*
X1199032Y5789625D01*
X1198118Y5775807D01*
X1199032Y5761990D01*
X1201724Y5748375D01*
X1204010Y5741670D01*
X1204518Y5737910D01*
X1203706Y5734304D01*
X1201572Y5731205D01*
X1149807Y5679440D01*
X1144422Y5672836D01*
X1140612Y5665774D01*
X1138326Y5658104D01*
X1137462Y5649671D01*
X1137462Y409600D01*
X1138326Y401167D01*
X1140612Y393496D01*
X1144422Y386435D01*
X1149807Y379831D01*
X1196644Y332994D01*
X1198981Y329336D01*
X1199591Y325069D01*
X1198372Y320903D01*
X1197559Y319481D01*
X1191107Y303834D01*
X1186383Y287578D01*
X1183589Y270916D01*
X1182624Y254000D01*
X1183589Y237134D01*
X1186383Y220421D01*
X1191107Y204165D01*
X1197559Y188518D01*
X1205738Y173736D01*
X1215542Y159918D01*
X1226820Y147320D01*
X1239418Y136042D01*
X1253236Y126237D01*
X1268018Y118059D01*
X1283665Y111607D01*
X1299921Y106883D01*
X1316634Y104089D01*
X1333500Y103124D01*
X1350416Y104089D01*
X1367078Y106883D01*
X1383334Y111607D01*
X1398981Y118059D01*
X1413814Y126237D01*
X1427581Y136042D01*
X1440230Y147320D01*
X1451457Y159918D01*
X1461262Y173736D01*
X1469440Y188518D01*
X1476095Y204774D01*
X1478026Y208381D01*
X1481226Y210972D01*
X1485188Y212090D01*
X1489303Y211480D01*
X1492808Y209346D01*
X1495196Y205994D01*
X1496009Y201930D01*
X1496009Y97586D01*
X1495247Y93675D01*
X1493062Y90373D01*
X1412544Y9855D01*
X1408887Y7518D01*
X1404569Y6908D01*
X1400403Y8178D01*
X1398981Y8940D01*
X1383334Y15443D01*
X1367078Y20116D01*
X1350416Y22961D01*
X1333500Y23926D01*
X1316634Y22961D01*
X1299921Y20116D01*
X1283665Y15443D01*
X1268018Y8940D01*
X1253236Y762D01*
X1239418Y-9042D01*
X1226820Y-20269D01*
X1215542Y-32918D01*
X1205738Y-46736D01*
X1197559Y-61518D01*
X1191107Y-77165D01*
X1186383Y-93421D01*
X1183589Y-110083D01*
X1182624Y-127000D01*
X1183589Y-143865D01*
X1186383Y-160578D01*
X1191107Y-176834D01*
X1197559Y-192481D01*
X1205738Y-207264D01*
X1215542Y-221081D01*
X1226820Y-233679D01*
X1239418Y-244957D01*
X1253236Y-254762D01*
X1268018Y-262940D01*
X1283665Y-269392D01*
X1299921Y-274116D01*
X1316634Y-276910D01*
G37*
G36*
X3943350Y2139950D02*
G01*
X3990543Y2139950D01*
X3986733Y2147519D01*
X3979011Y2158746D01*
X3969867Y2168906D01*
X3959453Y2177694D01*
X3947972Y2185009D01*
X3943350Y2187143D01*
G37*
G36*
X3807104Y2139950D02*
G01*
X3854450Y2139950D01*
X3854450Y2187295D01*
X3843985Y2181555D01*
X3833012Y2173478D01*
X3823208Y2163978D01*
X3814724Y2153259D01*
X3807764Y2141524D01*
G37*
G36*
X2552700Y2164486D02*
G01*
X2562453Y2165350D01*
X2571953Y2167890D01*
X2580843Y2172055D01*
X2588920Y2177643D01*
X2595880Y2184603D01*
X2601518Y2192680D01*
X2605633Y2201570D01*
X2608173Y2211070D01*
X2609037Y2220823D01*
X2608173Y2230628D01*
X2605633Y2240127D01*
X2601518Y2249017D01*
X2595422Y2257704D01*
X2594051Y2260498D01*
X2593594Y2263546D01*
X2593594Y3193338D01*
X2594356Y3197199D01*
X2596540Y3200501D01*
X3037433Y3641344D01*
X3040532Y3643477D01*
X3044139Y3644341D01*
X3047847Y3643782D01*
X3054604Y3641496D01*
X3068167Y3638804D01*
X3081985Y3637889D01*
X3095802Y3638804D01*
X3109417Y3641496D01*
X3122523Y3645966D01*
X3134918Y3652113D01*
X3146450Y3659784D01*
X3156864Y3668928D01*
X3166008Y3679342D01*
X3173679Y3690874D01*
X3179826Y3703269D01*
X3184296Y3716375D01*
X3186988Y3729990D01*
X3187903Y3743807D01*
X3186988Y3757625D01*
X3184296Y3771188D01*
X3179826Y3784295D01*
X3173679Y3796741D01*
X3166008Y3808272D01*
X3156864Y3818686D01*
X3146450Y3827779D01*
X3134918Y3835501D01*
X3122523Y3841597D01*
X3109417Y3846068D01*
X3095802Y3848760D01*
X3081985Y3849674D01*
X3068167Y3848760D01*
X3054604Y3846068D01*
X3041497Y3841597D01*
X3029051Y3835501D01*
X3017520Y3827779D01*
X3007106Y3818686D01*
X2998012Y3808272D01*
X2990291Y3796741D01*
X2984144Y3784295D01*
X2979724Y3771188D01*
X2977032Y3757625D01*
X2976118Y3743807D01*
X2977032Y3729990D01*
X2979724Y3716375D01*
X2982010Y3709670D01*
X2982518Y3705961D01*
X2981655Y3702304D01*
X2979572Y3699205D01*
X2524099Y3243732D01*
X2518714Y3237179D01*
X2514904Y3230118D01*
X2512618Y3222447D01*
X2511755Y3213963D01*
X2511755Y2263546D01*
X2511298Y2260498D01*
X2509926Y2257704D01*
X2503881Y2249017D01*
X2499715Y2240127D01*
X2497175Y2230628D01*
X2496312Y2220823D01*
X2497175Y2211070D01*
X2499715Y2201570D01*
X2503881Y2192680D01*
X2509520Y2184603D01*
X2516428Y2177643D01*
X2524506Y2172055D01*
X2533396Y2167890D01*
X2542895Y2165350D01*
G37*
G36*
X3081985Y4399889D02*
G01*
X3095802Y4400804D01*
X3109417Y4403496D01*
X3122523Y4407966D01*
X3134918Y4414113D01*
X3146450Y4421784D01*
X3156864Y4430928D01*
X3166008Y4441342D01*
X3173679Y4452874D01*
X3179826Y4465269D01*
X3184296Y4478375D01*
X3186988Y4491990D01*
X3187903Y4505807D01*
X3186988Y4519625D01*
X3184296Y4533188D01*
X3179826Y4546295D01*
X3173679Y4558741D01*
X3166008Y4570272D01*
X3156864Y4580686D01*
X3146450Y4589780D01*
X3134918Y4597501D01*
X3122523Y4603597D01*
X3109417Y4608068D01*
X3095802Y4610760D01*
X3081985Y4611674D01*
X3068167Y4610760D01*
X3054604Y4608068D01*
X3041497Y4603597D01*
X3029051Y4597501D01*
X3017520Y4589780D01*
X3007106Y4580686D01*
X2998012Y4570272D01*
X2990291Y4558741D01*
X2984144Y4546295D01*
X2979724Y4533188D01*
X2977032Y4519625D01*
X2976118Y4505807D01*
X2977032Y4491990D01*
X2979724Y4478375D01*
X2984144Y4465269D01*
X2990291Y4452874D01*
X2998012Y4441342D01*
X3007106Y4430928D01*
X3017520Y4421784D01*
X3029051Y4414113D01*
X3041497Y4407966D01*
X3054604Y4403496D01*
X3068167Y4400804D01*
G37*
G36*
X3081985Y4653889D02*
G01*
X3095802Y4654804D01*
X3109417Y4657496D01*
X3122523Y4661966D01*
X3134918Y4668113D01*
X3146450Y4675784D01*
X3156864Y4684928D01*
X3166008Y4695342D01*
X3173679Y4706874D01*
X3179826Y4719269D01*
X3184296Y4732375D01*
X3186988Y4745990D01*
X3187903Y4759807D01*
X3186988Y4773625D01*
X3184296Y4787188D01*
X3179826Y4800295D01*
X3173679Y4812741D01*
X3166008Y4824272D01*
X3156864Y4834686D01*
X3146450Y4843780D01*
X3134918Y4851501D01*
X3122523Y4857597D01*
X3109417Y4862068D01*
X3095802Y4864760D01*
X3081985Y4865674D01*
X3068167Y4864760D01*
X3054604Y4862068D01*
X3041497Y4857597D01*
X3029051Y4851501D01*
X3017520Y4843780D01*
X3007106Y4834686D01*
X2998012Y4824272D01*
X2990291Y4812741D01*
X2984144Y4800295D01*
X2979724Y4787188D01*
X2977032Y4773625D01*
X2976118Y4759807D01*
X2977032Y4745990D01*
X2979724Y4732375D01*
X2984144Y4719269D01*
X2990291Y4706874D01*
X2998012Y4695342D01*
X3007106Y4684928D01*
X3017520Y4675784D01*
X3029051Y4668113D01*
X3041497Y4661966D01*
X3054604Y4657496D01*
X3068167Y4654804D01*
G37*
G36*
X3759200Y4812080D02*
G01*
X3759200Y4864100D01*
X3707282Y4864100D01*
X3709415Y4859578D01*
X3717137Y4847437D01*
X3726332Y4836312D01*
X3736848Y4826457D01*
X3748481Y4817973D01*
G37*
G36*
X3081985Y4907889D02*
G01*
X3095802Y4908804D01*
X3109417Y4911496D01*
X3122523Y4915966D01*
X3134918Y4922113D01*
X3146450Y4929784D01*
X3156864Y4938928D01*
X3166008Y4949342D01*
X3173679Y4960823D01*
X3179826Y4973269D01*
X3184296Y4986375D01*
X3186988Y4999990D01*
X3187903Y5013807D01*
X3186988Y5027625D01*
X3184296Y5041188D01*
X3179826Y5054295D01*
X3173679Y5066741D01*
X3166008Y5078272D01*
X3156864Y5088686D01*
X3146450Y5097780D01*
X3134918Y5105501D01*
X3122523Y5111597D01*
X3109417Y5116068D01*
X3095802Y5118760D01*
X3081985Y5119674D01*
X3068167Y5118760D01*
X3054604Y5116068D01*
X3041497Y5111597D01*
X3029051Y5105501D01*
X3017520Y5097780D01*
X3007106Y5088686D01*
X2998012Y5078272D01*
X2990291Y5066741D01*
X2984144Y5054295D01*
X2979724Y5041188D01*
X2977032Y5027625D01*
X2976118Y5013807D01*
X2977032Y4999990D01*
X2979724Y4986375D01*
X2984144Y4973269D01*
X2990291Y4960823D01*
X2998012Y4949342D01*
X3007106Y4938928D01*
X3017520Y4929784D01*
X3029051Y4922113D01*
X3041497Y4915966D01*
X3054604Y4911496D01*
X3068167Y4908804D01*
G37*
G36*
X3707282Y4965700D02*
G01*
X3759200Y4965700D01*
X3759200Y5017719D01*
X3748481Y5011826D01*
X3736848Y5003342D01*
X3726332Y4993487D01*
X3717137Y4982362D01*
X3709415Y4970221D01*
G37*
G36*
X3002584Y5161889D02*
G01*
X3035655Y5161889D01*
X3035655Y5221427D01*
X2976067Y5221427D01*
X2976067Y5188356D01*
X2976778Y5182057D01*
X2978708Y5176570D01*
X2981807Y5171694D01*
X2985871Y5167579D01*
X2990799Y5164480D01*
X2996234Y5162600D01*
G37*
G36*
X3128365Y5161889D02*
G01*
X3161436Y5161889D01*
X3167735Y5162600D01*
X3173222Y5164480D01*
X3178098Y5167579D01*
X3182213Y5171694D01*
X3185261Y5176570D01*
X3187192Y5182057D01*
X3187903Y5188356D01*
X3187903Y5221427D01*
X3128365Y5221427D01*
G37*
G36*
X1767738Y5210962D02*
G01*
X1777288Y5212181D01*
X1786483Y5215026D01*
X1795119Y5219344D01*
X1802892Y5225084D01*
X1809546Y5232044D01*
X1814931Y5240070D01*
X1818944Y5248859D01*
X1821332Y5258155D01*
X1822196Y5267756D01*
X1821332Y5277408D01*
X1818944Y5286705D01*
X1814931Y5295493D01*
X1809546Y5303520D01*
X1802892Y5310479D01*
X1795119Y5316220D01*
X1786483Y5320538D01*
X1777288Y5323382D01*
X1767738Y5324602D01*
X1758086Y5324195D01*
X1748637Y5322163D01*
X1739696Y5318556D01*
X1731467Y5313527D01*
X1724253Y5307126D01*
X1718157Y5299608D01*
X1713484Y5291226D01*
X1710283Y5282133D01*
X1708657Y5272582D01*
X1708657Y5262981D01*
X1710283Y5253431D01*
X1713484Y5244338D01*
X1718157Y5235956D01*
X1724253Y5228437D01*
X1731467Y5222036D01*
X1739696Y5217007D01*
X1748637Y5213400D01*
X1758086Y5211368D01*
G37*
G36*
X2976067Y5314137D02*
G01*
X3035655Y5314137D01*
X3035655Y5373674D01*
X3002584Y5373674D01*
X2996234Y5372963D01*
X2990799Y5371084D01*
X2985871Y5367985D01*
X2981807Y5363921D01*
X2978708Y5358993D01*
X2976778Y5353558D01*
X2976067Y5347208D01*
G37*
G36*
X3128365Y5314137D02*
G01*
X3187903Y5314137D01*
X3187903Y5347208D01*
X3187192Y5353558D01*
X3185261Y5358993D01*
X3182213Y5363921D01*
X3178098Y5367985D01*
X3173222Y5371084D01*
X3167735Y5372963D01*
X3161436Y5373674D01*
X3128365Y5373674D01*
G37*
G36*
X3081985Y5415889D02*
G01*
X3095802Y5416804D01*
X3109417Y5419496D01*
X3122523Y5423966D01*
X3134918Y5430113D01*
X3146450Y5437784D01*
X3156864Y5446928D01*
X3166008Y5457342D01*
X3173679Y5468874D01*
X3179826Y5481269D01*
X3184296Y5494375D01*
X3186988Y5507990D01*
X3187903Y5521807D01*
X3186988Y5535625D01*
X3184296Y5549188D01*
X3179826Y5562295D01*
X3173679Y5574741D01*
X3166008Y5586272D01*
X3156864Y5596686D01*
X3146450Y5605780D01*
X3134918Y5613501D01*
X3122523Y5619597D01*
X3109417Y5624068D01*
X3095802Y5626760D01*
X3081985Y5627674D01*
X3068167Y5626760D01*
X3054604Y5624068D01*
X3041497Y5619597D01*
X3029051Y5613501D01*
X3017520Y5605780D01*
X3007106Y5596686D01*
X2998012Y5586272D01*
X2990291Y5574741D01*
X2984144Y5562295D01*
X2979724Y5549188D01*
X2977032Y5535625D01*
X2976118Y5521807D01*
X2977032Y5507990D01*
X2979724Y5494375D01*
X2984144Y5481269D01*
X2990291Y5468874D01*
X2998012Y5457342D01*
X3007106Y5446928D01*
X3017520Y5437784D01*
X3029051Y5430113D01*
X3041497Y5423966D01*
X3054604Y5419496D01*
X3068167Y5416804D01*
G37*
G36*
X3081985Y5669889D02*
G01*
X3095802Y5670804D01*
X3109417Y5673496D01*
X3122523Y5677966D01*
X3134918Y5684113D01*
X3146450Y5691784D01*
X3156864Y5700928D01*
X3166008Y5711342D01*
X3173679Y5722823D01*
X3179826Y5735269D01*
X3184296Y5748375D01*
X3186988Y5761990D01*
X3187903Y5775807D01*
X3186988Y5789625D01*
X3184296Y5803188D01*
X3179826Y5816295D01*
X3173679Y5828741D01*
X3166008Y5840272D01*
X3156864Y5850686D01*
X3146450Y5859780D01*
X3134918Y5867501D01*
X3122523Y5873597D01*
X3109417Y5878068D01*
X3095802Y5880760D01*
X3081985Y5881674D01*
X3068167Y5880760D01*
X3054604Y5878068D01*
X3041497Y5873597D01*
X3029051Y5867501D01*
X3017520Y5859780D01*
X3007106Y5850686D01*
X2998012Y5840272D01*
X2990291Y5828741D01*
X2984144Y5816295D01*
X2979724Y5803188D01*
X2977032Y5789625D01*
X2976118Y5775807D01*
X2977032Y5761990D01*
X2979724Y5748375D01*
X2984144Y5735269D01*
X2990291Y5722823D01*
X2998012Y5711342D01*
X3007106Y5700928D01*
X3017520Y5691784D01*
X3029051Y5684113D01*
X3041497Y5677966D01*
X3054604Y5673496D01*
X3068167Y5670804D01*
G37*

%LPD*%
G36*
X3779265Y-853490D02*
G01*
X3774948Y-853186D01*
X3771188Y-851103D01*
X3768547Y-847648D01*
X3767632Y-843432D01*
X3767632Y736092D01*
X3768140Y739140D01*
X3769461Y741883D01*
X3775557Y750570D01*
X3779723Y759460D01*
X3782263Y768959D01*
X3783126Y778764D01*
X3782263Y788568D01*
X3779723Y798068D01*
X3775557Y806958D01*
X3769918Y814984D01*
X3762959Y821944D01*
X3754932Y827582D01*
X3746042Y831748D01*
X3736543Y834288D01*
X3726738Y835152D01*
X3716934Y834288D01*
X3707485Y831748D01*
X3698544Y827582D01*
X3690518Y821944D01*
X3683558Y814984D01*
X3677920Y806958D01*
X3673754Y798068D01*
X3671214Y788568D01*
X3670350Y778764D01*
X3671214Y768959D01*
X3673754Y759460D01*
X3677920Y750570D01*
X3684015Y741883D01*
X3685387Y739140D01*
X3685844Y736092D01*
X3685844Y465429D01*
X3684981Y461416D01*
X3682644Y458012D01*
X3679139Y455879D01*
X3675075Y455269D01*
X3671112Y456336D01*
X3663950Y459943D01*
X3663950Y412750D01*
X3675684Y412750D01*
X3679545Y411988D01*
X3682847Y409752D01*
X3685082Y406501D01*
X3685844Y402590D01*
X3685844Y334010D01*
X3685082Y330098D01*
X3682847Y326847D01*
X3679545Y324612D01*
X3675684Y323850D01*
X3663950Y323850D01*
X3663950Y276504D01*
X3665524Y277164D01*
X3670503Y280111D01*
X3674516Y281482D01*
X3678732Y281076D01*
X3682441Y278942D01*
X3684930Y275539D01*
X3685844Y271373D01*
X3685844Y-804570D01*
X3684981Y-808583D01*
X3682644Y-811987D01*
X3679139Y-814120D01*
X3675075Y-814730D01*
X3671112Y-813663D01*
X3659378Y-807720D01*
X3646474Y-803249D01*
X3633114Y-800506D01*
X3619500Y-799592D01*
X3605885Y-800506D01*
X3592525Y-803249D01*
X3588410Y-804672D01*
X3584701Y-805230D01*
X3581044Y-804367D01*
X3577894Y-802233D01*
X3282391Y-506730D01*
X3280206Y-503428D01*
X3279394Y-499567D01*
X3279394Y285699D01*
X3280206Y289610D01*
X3282442Y292912D01*
X3285744Y295097D01*
X3289706Y295859D01*
X3293567Y294995D01*
X3297021Y292608D01*
X3307740Y284124D01*
X3319475Y277164D01*
X3332022Y271881D01*
X3345179Y268274D01*
X3358692Y266446D01*
X3372307Y266446D01*
X3385820Y268274D01*
X3398977Y271881D01*
X3411524Y277164D01*
X3423259Y284124D01*
X3433978Y292608D01*
X3443478Y302412D01*
X3451555Y313385D01*
X3458108Y325323D01*
X3462985Y338074D01*
X3466185Y351332D01*
X3467506Y364896D01*
X3467049Y378510D01*
X3464814Y391972D01*
X3460750Y404977D01*
X3455009Y417372D01*
X3447694Y428853D01*
X3438906Y439267D01*
X3428746Y448411D01*
X3417519Y456133D01*
X3405378Y462280D01*
X3392474Y466750D01*
X3379114Y469493D01*
X3365500Y470408D01*
X3351885Y469493D01*
X3338525Y466750D01*
X3325622Y462280D01*
X3313480Y456133D01*
X3302254Y448411D01*
X3296361Y443128D01*
X3293059Y441147D01*
X3289249Y440486D01*
X3285439Y441401D01*
X3282289Y443585D01*
X3280156Y446836D01*
X3279394Y450646D01*
X3279394Y544423D01*
X3280257Y548487D01*
X3282696Y551891D01*
X3286302Y554024D01*
X3290468Y554532D01*
X3301187Y553567D01*
X3310940Y554431D01*
X3320440Y556971D01*
X3329330Y561136D01*
X3337407Y566775D01*
X3344367Y573735D01*
X3350006Y581761D01*
X3354120Y590651D01*
X3356660Y600151D01*
X3357524Y609955D01*
X3356660Y619760D01*
X3354120Y629259D01*
X3350006Y638149D01*
X3343910Y646836D01*
X3342538Y649579D01*
X3342081Y652627D01*
X3342081Y902614D01*
X3342843Y906526D01*
X3345027Y909828D01*
X3348329Y912012D01*
X3352241Y912774D01*
X3356101Y912012D01*
X3359404Y909828D01*
X3366566Y902614D01*
X3374644Y897026D01*
X3383534Y892860D01*
X3393033Y890320D01*
X3402837Y889457D01*
X3412591Y890320D01*
X3417773Y890981D01*
X3421329Y889965D01*
X3424275Y887679D01*
X3426206Y884529D01*
X3426866Y880871D01*
X3426866Y766978D01*
X3426409Y763930D01*
X3425037Y761187D01*
X3418992Y752500D01*
X3414826Y743610D01*
X3412286Y734110D01*
X3411423Y724306D01*
X3412286Y714502D01*
X3414826Y705002D01*
X3418992Y696112D01*
X3424631Y688086D01*
X3431540Y681126D01*
X3439617Y675487D01*
X3448507Y671322D01*
X3458006Y668782D01*
X3467811Y667918D01*
X3477564Y668782D01*
X3487064Y671322D01*
X3495954Y675487D01*
X3504031Y681126D01*
X3510991Y688086D01*
X3516629Y696112D01*
X3520744Y705002D01*
X3523284Y714502D01*
X3524148Y724306D01*
X3523284Y734110D01*
X3520744Y743610D01*
X3516629Y752500D01*
X3510534Y761187D01*
X3509162Y763930D01*
X3508705Y766978D01*
X3508705Y1135227D01*
X3509467Y1139139D01*
X3511651Y1142441D01*
X3857193Y1487932D01*
X3860393Y1490116D01*
X3864203Y1490929D01*
X3881932Y1486814D01*
X3895496Y1485493D01*
X3909110Y1485950D01*
X3922572Y1488186D01*
X3935577Y1492250D01*
X3947972Y1497990D01*
X3957116Y1503832D01*
X3961180Y1505305D01*
X3965448Y1505000D01*
X3969258Y1502918D01*
X3971848Y1499463D01*
X3972763Y1495247D01*
X3972763Y-740410D01*
X3972001Y-744270D01*
X3969765Y-747572D01*
X3915105Y-802233D01*
X3912006Y-804367D01*
X3908298Y-805230D01*
X3904589Y-804672D01*
X3900474Y-803249D01*
X3887114Y-800506D01*
X3873500Y-799592D01*
X3859885Y-800506D01*
X3846525Y-803249D01*
X3833622Y-807720D01*
X3821480Y-813866D01*
X3810254Y-821588D01*
X3800094Y-830732D01*
X3791305Y-841146D01*
X3786378Y-848868D01*
X3783329Y-851966D01*
G37*

%LPC*%
G36*
X3575050Y276504D02*
G01*
X3575050Y323850D01*
X3527704Y323850D01*
X3533444Y313385D01*
X3541522Y302412D01*
X3551021Y292608D01*
X3561740Y284124D01*
X3573475Y277164D01*
G37*
G36*
X3527856Y412750D02*
G01*
X3575050Y412750D01*
X3575050Y459943D01*
X3567480Y456133D01*
X3556254Y448411D01*
X3546094Y439267D01*
X3537305Y428853D01*
X3529990Y417372D01*
G37*

%LPD*%
D10*
X3810000Y4914900D02*
G01*
X3632200Y4914900D01*
X3517900Y5029200D01*
X4940300Y-1333500D02*
G01*
X5461000Y-1333500D01*
X5575300Y-1447800D01*
X5029200Y-2273300D02*
G01*
X4749800Y-2273300D01*
X4597400Y-2120900D01*
X4038600Y-2336800D02*
G01*
X4038600Y-2133600D01*
X3962400Y-2057400D01*
X3175000Y-2336800D02*
G01*
X3175000Y-2324100D01*
X2857500Y-2006600D01*
X2336800Y-2311400D02*
G01*
X2336800Y-2032000D01*
X2286000Y-1981200D01*
X1524000Y-2311400D02*
G01*
X1346200Y-2311400D01*
X1155700Y-2501900D01*
X1333500Y-1816100D02*
G01*
X1333500Y-2032000D01*
X1219200Y-2146300D01*
X1333500Y-508000D02*
G01*
X1422400Y-508000D01*
X1524000Y-406400D01*
D11*
X3810002Y3644900D02*
G01*
X3238121Y3073019D01*
X3238121Y1867941D01*
X3081987Y1711807D01*
X1333502Y-127000D02*
G01*
X1536931Y76428D01*
X1536931Y5288864D01*
X1304013Y5521782D01*
X1333502Y254000D02*
G01*
X1178384Y409117D01*
X1178384Y5650153D01*
X1304013Y5775782D01*
X3898902Y1841500D02*
G01*
X3402815Y1345412D01*
X3402815Y945819D01*
X3898902Y1587500D02*
G01*
X3467788Y1156385D01*
X3467788Y724306D01*
X3898902Y2349500D02*
G01*
X4076626Y2171776D01*
X4076626Y202717D01*
X3898902Y2603500D02*
G01*
X3301164Y2005761D01*
X3301164Y609955D01*
X1304013Y2981782D02*
G01*
X1476047Y2809747D01*
X1476047Y2686177D01*
X3726741Y778763D02*
G01*
X3726741Y-2532938D01*
X4038602Y-2844800D01*
X3081987Y2219807D02*
G01*
X2470177Y1607997D01*
X2470177Y-2686024D01*
X2336802Y-2819400D01*
X3081987Y2473807D02*
G01*
X2407617Y1799437D01*
X2407617Y85217D01*
X1671398Y-651002D01*
X1671398Y-2672003D01*
X1524002Y-2819400D01*
X3739695Y2230551D02*
G01*
X3739695Y2086813D01*
X3858008Y1968500D01*
X3939034Y1968500D01*
X4013659Y1893874D01*
X4013659Y-761542D01*
X3873502Y-901700D01*
X3081987Y1203807D02*
G01*
X3238502Y1047292D01*
X3238502Y-520700D01*
X3619502Y-901700D01*
X3081987Y4251782D02*
G01*
X2320521Y3490315D01*
X2320521Y143281D01*
X3081987Y3743782D02*
G01*
X2552677Y3214471D01*
X2552677Y2220848D01*
X3111502Y-901700D02*
G01*
X2964106Y-754303D01*
X2964106Y1809419D01*
X3081987Y3489782D02*
G01*
X3192553Y3379215D01*
X3192553Y2169185D01*
X3116226Y2092858D01*
X3043608Y2092858D01*
X2746961Y1796211D01*
X2746961Y-791159D01*
X2857502Y-901700D01*
D10*
X3810002Y5422900D02*
G01*
X3977236Y5255666D01*
X3977236Y2935833D01*
X3898902Y2857500D01*
X3898902Y2857500D02*
G01*
X4749700Y2006701D01*
X4749700Y-1523898D01*
X4940302Y-1714500D01*
D12*
G01*
X4940223Y-1333500D03*
G01*
X4940223Y-952500D03*
G01*
X4940223Y-571500D03*
G01*
X4940223Y-1714500D03*
D13*
G01*
X2095500Y-901700D03*
G01*
X2349500Y-901700D03*
G01*
X2603500Y-901700D03*
G01*
X2857500Y-901700D03*
G01*
X3111500Y-901700D03*
G01*
X3365500Y-901700D03*
G01*
X3619500Y-901700D03*
G01*
X3873500Y-901700D03*
G01*
X4127500Y-901700D03*
G01*
X2603500Y368300D03*
G01*
X2857500Y368300D03*
G01*
X3111500Y368300D03*
G01*
X3365500Y368300D03*
G01*
X3619500Y368300D03*
D12*
G01*
X1333500Y-1816100D03*
G01*
X1333500Y-1435100D03*
G01*
X5029200Y-2273300D03*
G01*
X5029200Y-2654300D03*
D14*
G01*
X1524000Y-2311400D03*
D13*
G01*
X1524000Y-2565400D03*
G01*
X1524000Y-2819400D03*
D14*
G01*
X2336800Y-2311400D03*
D13*
G01*
X2336800Y-2565400D03*
G01*
X2336800Y-2819400D03*
D14*
G01*
X3175000Y-2336800D03*
D13*
G01*
X3175000Y-2590800D03*
G01*
X3175000Y-2844800D03*
D14*
G01*
X4038600Y-2336800D03*
D13*
G01*
X4038600Y-2590800D03*
G01*
X4038600Y-2844800D03*
D15*
G01*
X1304010Y949807D03*
G01*
X1304010Y1203807D03*
D16*
G01*
X1304010Y1457807D03*
D15*
G01*
X1304010Y1711807D03*
G01*
X1304010Y1965807D03*
G01*
X1304010Y2219807D03*
G01*
X1304010Y2473807D03*
D16*
G01*
X1304010Y2727782D03*
D15*
G01*
X1304010Y2981782D03*
G01*
X1304010Y3235782D03*
G01*
X1304010Y5775782D03*
G01*
X1304010Y5521782D03*
D16*
G01*
X1304010Y5267782D03*
D15*
G01*
X1304010Y5013782D03*
G01*
X1304010Y4759782D03*
G01*
X1304010Y4505782D03*
G01*
X1304010Y4251782D03*
D16*
G01*
X1304010Y3997782D03*
D15*
G01*
X1304010Y3743782D03*
G01*
X1304010Y3489782D03*
G01*
X3081985Y3489782D03*
G01*
X3081985Y3743782D03*
D16*
G01*
X3081985Y3997782D03*
D15*
G01*
X3081985Y4251782D03*
G01*
X3081985Y4505782D03*
G01*
X3081985Y4759782D03*
G01*
X3081985Y5013782D03*
D16*
G01*
X3081985Y5267782D03*
D15*
G01*
X3081985Y5521782D03*
G01*
X3081985Y5775782D03*
G01*
X3081985Y3235782D03*
G01*
X3081985Y2981782D03*
D16*
G01*
X3081985Y2727782D03*
D15*
G01*
X3081985Y2473807D03*
G01*
X3081985Y2219807D03*
G01*
X3081985Y1965807D03*
G01*
X3081985Y1711807D03*
D16*
G01*
X3081985Y1457807D03*
D15*
G01*
X3081985Y1203807D03*
G01*
X3081985Y949807D03*
D18*
G01*
X3810000Y5422900D03*
G01*
X3810000Y5168900D03*
G01*
X3810000Y4914900D03*
G01*
X3810000Y4660900D03*
G01*
X3810000Y4406900D03*
G01*
X3810000Y4152900D03*
G01*
X3810000Y3898900D03*
G01*
X3810000Y3644900D03*
D13*
G01*
X3898900Y2857500D03*
G01*
X3898900Y2603500D03*
G01*
X3898900Y2349500D03*
G01*
X3898900Y2095500D03*
G01*
X3898900Y1841500D03*
G01*
X3898900Y1587500D03*
D12*
G01*
X4953000Y342900D03*
G01*
X4953000Y723900D03*
G01*
X4953000Y1104900D03*
G01*
X4953000Y-38100D03*
G01*
X1333500Y-127000D03*
G01*
X1333500Y-508000D03*
G01*
X1333500Y-889000D03*
G01*
X1333500Y254000D03*
D19*
G01*
X2964106Y1809419D03*
G01*
X2552677Y2220848D03*
G01*
X2320521Y143281D03*
G01*
X3739695Y2230551D03*
G01*
X3726741Y778763D03*
G01*
X1476047Y2686177D03*
G01*
X3301164Y609955D03*
G01*
X4076626Y202717D03*
G01*
X3467788Y724306D03*
G01*
X3402815Y945819D03*
D20*
G01*
X1524000Y-406400D03*
G01*
X1219200Y-2146300D03*
G01*
X1155700Y-2501900D03*
G01*
X2286000Y-1981200D03*
G01*
X2857500Y-2006600D03*
G01*
X3962400Y-2057400D03*
G01*
X4597400Y-2120900D03*
G01*
X5575300Y-1447800D03*
G01*
X3517900Y5029200D03*
G01*
X1765300Y5267782D03*
G01*
X2768600Y5384800D03*
M02*
